<?xml version="1.0" standalone="no"?>
<!DOCTYPE svg PUBLIC "-//W3C//DTD SVG 1.1//EN" "http://www.w3.org/Graphics/SVG/1.1/DTD/svg11.dtd" >
<svg xmlns="http://www.w3.org/2000/svg">
<metadata>Generated by IcoMoon</metadata>
<defs>
<font id="icomoon" horiz-adv-x="1024">
<font-face units-per-em="1024" ascent="960" descent="-64" />
<missing-glyph horiz-adv-x="1024" />
<glyph unicode="&#x20;" horiz-adv-x="512" d="" />
<glyph unicode="&#xe900;" glyph-name="activity" d="M382.444 142.503l-129.098 296.922-29.346 19.243h-160v-64h139.020l151.636-348.762 59.146 1.101 256.432 655.332 99.541-286.184 30.225-21.487h160v64h-137.25l-120.525 346.513-60.023 1.148-259.757-663.825z" />
<glyph unicode="&#xe901;" glyph-name="add" d="M480 394.667v-352h64v352h352.004v64h-352.004v352h-64v-352h-352v-64h352z" />
<glyph unicode="&#xe902;" glyph-name="ambassadors" d="M535.885 898.55l-47.77-0.001-86.105-86.107h-114.009l-33.778-33.777v-114.001l-86.106-86.107v-47.769l86.106-86.107v-114.010l33.778-33.775h32l0.003-286.234 46.311-28.621 145.688 72.845 145.69-72.845 46.31 28.621v286.234h31.996l33.779 33.775v114.010l86.106 86.107v47.769l-86.106 86.107v114.009l-33.779 33.778h-114.010l-86.106 86.1zM384.002 296.896h18.008l86.105-86.11h47.77l86.11 86.11h18.010v-234.453l-113.69 56.845h-28.621l-113.689-56.845-0.003 234.453zM439.885 754.78l72.119 72.116 72.115-72.11 23.881-9.892h94.225v-94.223l9.89-23.884 72.119-72.116-72.119-72.116-9.89-23.885v-94.221h-94.225l-23.885-9.894-72.115-72.115-72.115 72.115-23.883 9.894h-94.223v94.221l-9.893 23.885-72.116 72.116 72.116 72.116 9.893 23.884v94.214h94.223l23.883 9.894z" />
<glyph unicode="&#xe903;" glyph-name="arrow-down" d="M534.63 68.037l240 240.004-45.257 45.252-185.37-185.374v642.748h-64v-642.748l-185.374 185.374-45.255-45.252 239.999-240.004h45.257z" />
<glyph unicode="&#xe904;" glyph-name="arrow-left" d="M153.372 404.041l240.001-240 45.254 45.252-185.372 185.374h642.746v64h-642.746l185.372 185.373-45.254 45.255-240-240.001v-45.252z" />
<glyph unicode="&#xe905;" glyph-name="arrow-right-down" d="M736 170.667h-351.999v64h274.746l-457.376 457.374 45.255 45.255 457.373-457.373v274.744h64v-352l-32-32z" />
<glyph unicode="&#xe906;" glyph-name="arrow-right-up" d="M736 682.667l-351.999-0.001v-64l274.746 0.001-457.376-457.373 45.255-45.257 457.373 457.375v-274.744h64v352l-32 32z" />
<glyph unicode="&#xe907;" glyph-name="arrow-right" d="M870.63 449.293l-240.004 240.001-45.252-45.255 185.374-185.373h-642.748v-64h642.748l-185.374-185.374 45.252-45.252 240.004 240v45.252z" />
<glyph unicode="&#xe908;" glyph-name="arrow-up" d="M489.374 785.295l-240.001-240.001 45.255-45.254 185.373 185.373v-642.746h64v642.746l185.374-185.372 45.252 45.254-240 240h-45.252z" />
<glyph unicode="&#xe909;" glyph-name="azero" d="M731.904 379.030h106.496c1.263-0.004 2.513 0.243 3.678 0.725s2.227 1.186 3.119 2.078c0.892 0.896 1.596 1.954 2.078 3.119s0.73 2.415 0.725 3.678v76.8c0 2.547-1.011 4.988-2.812 6.788s-4.241 2.812-6.788 2.812h-149.227l-117.568 264.043c-0.998 2.247-2.628 4.159-4.685 5.505s-4.459 2.072-6.921 2.089h-96c-2.475 0-4.894-0.718-6.972-2.066-2.074-1.348-3.712-3.268-4.719-5.529l-117.483-264.043h-149.227c-2.546 0-4.988-1.011-6.788-2.812s-2.812-4.241-2.812-6.788v-76.8c-0.003-1.263 0.244-2.513 0.725-3.678s1.189-2.223 2.080-3.119c0.892-0.892 1.952-1.596 3.118-2.078s2.415-0.73 3.677-0.725h106.496l-115.2-258.859c-0.649-1.459-0.925-3.055-0.801-4.646s0.642-3.127 1.508-4.467c0.866-1.34 2.053-2.445 3.453-3.213 1.4-0.764 2.969-1.169 4.565-1.178h85.696c2.474 0 4.895 0.717 6.97 2.065s3.715 3.268 4.721 5.53l228.992 514.325 228.992-514.325c1.007-2.261 2.645-4.181 4.723-5.53 2.074-1.348 4.493-2.065 6.967-2.065h85.696c1.6-0.004 3.179 0.393 4.587 1.156s2.607 1.865 3.477 3.204c0.875 1.344 1.399 2.884 1.527 4.48 0.124 1.596-0.149 3.2-0.802 4.663l-115.264 258.859z" />
<glyph unicode="&#xe90a;" glyph-name="back" d="M314.475 386.347l-176-160v-47.356l176-160 43.051 47.356-114.75 104.32h557.224l32 32v416h-64v-384h-525.233l114.758 104.324-43.051 47.356z" />
<glyph unicode="&#xe90b;" glyph-name="become-a-partner" d="M256 618.667c0 70.692 57.308 128 128 128 70.694 0 128-57.308 128-128s-57.306-128-128-128c-70.692 0-128 57.308-128 128zM523.264 486.494c32.683 34.423 52.736 80.956 52.736 132.173 0 106.039-85.961 192-192 192s-192-85.961-192-192c0-51.217 20.054-97.749 52.737-132.173-103.009-20.16-180.737-110.916-180.737-219.827v-224h64v224c0 88.367 71.634 160 160 160h192c88.367 0 160-71.633 160-160v-224h64v224c0 108.911-77.726 199.667-180.736 219.827zM832 682.667h128v-64h-128v-128h-64v128h-128v64h128v128h64v-128z" />
<glyph unicode="&#xe90c;" glyph-name="benefits" d="M544 810.667v64h64v-64h64v-64h-64v-64h-64v64h-64v64h64zM384 682.667v-64h-64v-64h64v-64h64v64h64v64h-64v64h-64zM640 554.667v64h64v-64h64v-64h-64v-64h-64v64h-64v64h64zM654.357 336.546l-22.212 41.067-174.174 45.837c-91.465 24.068-188.916 1.698-260.724-59.853l-1.085-0.93h-68.163v-64h80l20.825 7.706 10.073 8.631c55.851 47.872 131.646 65.271 202.783 46.554l141.167-37.15-5.406-16.218c-4.642-13.931-18.172-22.912-32.811-21.786l-158.177 12.169-4.908-63.812 158.179-12.169c32.525-2.5 63.219 11.627 82.615 36.096l226.658 71.578c15.667 4.949 32.474-2.773 38.98-17.745l-296.998-171.345c-53.069-30.618-116.361-38.157-175.141-20.873l-166.81 49.062-9.029 1.301h-112v-64h107.392l162.389-47.761c75.572-22.229 156.95-12.531 225.183 26.837l321.028 185.207 13.722 39.599-9.946 24.858c-18.658 46.647-70.131 71.019-118.042 55.889l-175.603-55.454 0.235 0.704z" />
<glyph unicode="&#xe90d;" glyph-name="bid" d="M415.163 860.664l-47.35-21.297-19.246-94.051-105.626-182.95-53.409-35.264 1.632-54.419 277.129-160 47.94 25.796 3.836 63.885 44.22 76.591 332.548-192 32 55.428-332.548 191.996 29.406 50.937 71.829 63.693-5.231 51.655-277.129 160zM410.226 727.398l11.386 55.642 200.229-115.602-42.492-37.682-6.485-7.942-112-193.99-4.228-14.084-1.186-19.742-187.447 108.224 16.504 10.898 10.081 10.704 15.999 27.711 166.277-95.999 32 55.424-166.277 96 32 55.426 166.277-96 32 55.426-166.275 96.002 3.637 9.585zM255.999 170.663h512.001v64h-512.001v-64zM191.999 42.663h640.001v64h-640.001v-64z" />
<glyph unicode="&#xe90e;" glyph-name="blog" d="M160 810.667l-32-32v-256l32-32h704l32 32v256l-32 32h-704zM192 554.667v192h640v-192h-640zM576 330.667l32 32h256l32-32v-256l-32-32h-256l-32 32v256zM640 298.667v-192h192v192h-192zM128 298.667h320v64h-320v-64zM128 106.667h320v64h-320v-64z" />
<glyph unicode="&#xe90f;" glyph-name="bulb" d="M543.996 938.667v-64h-64v64h64zM806.148 739.572l45.257 45.255-45.257 45.255-45.252-45.255 45.252-45.255zM895.996 458.667h64v64h-64v-64zM264.537 786.042l-45.033 45.476-45.476-45.033 45.032-45.476 45.476 45.033zM127.995 458.667h-64v64h64v-64zM351.995 106.667v-64h320.001v64h-320.001zM607.996-21.333v-64h-192.001v64h192.001zM255.995 490.667c0 141.385 114.615 256 256.001 256s256-114.615 256-256c0-84.484-34.061-128.964-71.172-167.932-4.489-4.71-9.284-9.583-14.212-14.592v0c-14.844-15.078-30.895-31.39-43.332-48.179-17.83-24.073-31.283-52.599-31.283-89.297h64c0 19.302 6.545 34.778 18.714 51.204 9.557 12.902 20.932 24.469 34.633 38.391v0.004c5.551 5.641 11.482 11.669 17.826 18.33 42.884 45.035 88.828 104.555 88.828 212.070 0 176.731-143.27 320-320 320-176.732 0-320.001-143.269-320.001-320 0-107.516 45.94-167.036 88.827-212.070 6.346-6.66 12.277-12.689 17.827-18.334h0.001c13.697-13.926 25.072-25.489 34.631-38.391 12.168-16.427 18.714-31.902 18.714-51.204h64c0 36.698-13.454 65.225-31.286 89.297-12.437 16.789-28.489 33.101-43.33 48.179h-0.001c-4.929 5.009-9.725 9.882-14.211 14.592-37.113 38.967-71.172 83.447-71.172 167.932z" />
<glyph unicode="&#xe910;" glyph-name="calendar-add" d="M704 810.667h160l32-32v-416h-64v192h-640v-448h320v-64h-352l-32 32v704l32 32h160v64h64v-64h256v64h64v-64zM832 618.667v128h-128v-64h-64v64h-256v-63.999h-64v63.999h-128v-128h640zM576 106.667h128v-128h64v128h128v64h-128v128h-64v-128h-128v-64z" />
<glyph unicode="&#xe911;" glyph-name="calendar-empty" d="M703.996 810.667h160l32-32v-704l-32-32h-703.998l-32 32v704l32 32h160v64h64v-64h255.998v64h64v-64zM319.997 682.668v63.999h-128v-128h639.998v128h-128v-64h-64v64h-255.998v-63.999h-64zM831.996 554.667h-639.998v-448h639.998v448zM647.765 240.158l-90.509 90.509 90.509 90.509-45.257 45.257-90.509-90.509-90.511 90.509-45.255-45.257 90.509-90.509-90.509-90.509 45.255-45.257 90.511 90.509 90.509-90.509 45.257 45.257z" />
<glyph unicode="&#xe912;" glyph-name="calendar" d="M383.998 810.667h256.002v64h64v-64h159.996l32-32v-704l-32-32h-703.998l-32 32v704l32 32h160v64h64v-64zM319.998 746.667h-128v-128h639.998v128h-127.996v-64h-64v64h-256.002v-63.999h-64v63.999zM191.997 554.667v-448h639.998v448h-639.998z" />
<glyph unicode="&#xe913;" glyph-name="camera" d="M96 746.667l-32-32v-576l32-32h576l32 32v134.263l207.040-129.399 48.96 27.136v512l-48.96 27.136-207.040-129.4v134.264l-32 32h-576zM128 170.667v512h512v-160l48.96-27.136 207.040 129.4v-396.527l-207.040 129.399-48.96-27.136v-160h-512zM256 554.667v64h-64v-64h64z" />
<glyph unicode="&#xe914;" glyph-name="car" d="M197.374 732.418l26.626 14.249h320l26.624-14.249 121.139-181.707 243.998-61 24.239-31.044v-224l-32-32h-96v64h64v167.014l-231.761 57.941-18.863 13.295-118.502 177.749h-285.748l-113.126-169.689v-233.055l13.255-13.257h50.745v-64h-64l-22.627 9.374-41.373 41.37v269.257l5.374 17.751 128 192zM384 266.667h256v-64h-256v64zM288 170.667c-35.346 0-64 28.655-64 64s28.654 64 64 64c35.346 0 64-28.655 64-64s-28.654-64-64-64zM288 106.667c70.692 0 128 57.306 128 128s-57.308 128-128 128c-70.692 0-128-57.306-128-128s57.308-128 128-128zM736 170.667c-35.345 0-64 28.655-64 64s28.655 64 64 64c35.345 0 64-28.655 64-64s-28.655-64-64-64zM736 106.667c70.694 0 128 57.306 128 128s-57.306 128-128 128c-70.694 0-128-57.306-128-128s57.306-128 128-128z" />
<glyph unicode="&#xe915;" glyph-name="carbon-footprint" d="M512 810.667c-143.019 0-266.766-105.088-287.078-247.271l-0.6-4.204-0.322-4.526v-6.744c-94.313-28.177-160-116.212-160-215.826 0-123.405 99.981-225.429 224-225.429h224v64h-224c-88.058 0-160 72.751-160 161.429 0 76.506 54.064 143.151 128.621 158.063l5.655 1.131 25.724 31.377v29.726l0.279 1.952c15.722 110.054 111.943 192.322 223.721 192.322s208-82.268 223.723-192.322l0.277-1.952v-29.726h64v32l-0.32 4.526-0.602 4.204c-20.314 142.182-144.060 247.271-287.078 247.271zM784 454.379l-16 9.237-192-110.848v-221.705l192-110.852 192 110.852v221.705l-176 101.611zM640 168.013v147.802l128 73.903 128-73.903v-147.802l-128-73.899-128 73.899z" />
<glyph unicode="&#xe916;" glyph-name="career" d="M416 778.667l32 32h160l32-32v-192l-32-32h-160l-32 32v192zM480 746.667v-128h96v128h-96zM192 234.667c0 70.694 57.308 128 128 128h128c70.694 0 128-57.306 128-128v-192h-384v192zM320 298.667c-35.346 0-64-28.655-64-64v-128h256v128c0 35.345-28.655 64-64 64h-128zM64 650.667l32 32h352v-64h-320v-512h768v512h-288v64h320l32-32v-576l-32-32h-832l-32 32v576zM832 426.667h-192v64h192v-64zM832 298.667h-192v64h192v-64zM384 490.667c-35.346 0-64-28.655-64-64s28.654-64 64-64c35.346 0 64 28.655 64 64s-28.654 64-64 64zM256 426.667c0 70.694 57.308 128 128 128 70.694 0 128-57.306 128-128s-57.306-128-128-128c-70.692 0-128 57.306-128 128z" />
<glyph unicode="&#xe917;" glyph-name="catalog" d="M192.002 842.667v-160h-64.001v-64h64.001v-160h-64.001v-64h64.001v-160h-64.002v-64h64.002v-160l32-32h639.998l32 32v832l-32 32h-639.998l-32-32zM256.002 170.667h63.998v64h-63.998v160h63.999v64h-63.999v160h63.999v64h-63.999v128h575.998v-768h-575.998v128zM704 170.667h-256v64h256v-64zM448 394.667h256v64h-256v-64zM704 618.667h-256v64h256v-64z" />
<glyph unicode="&#xe918;" glyph-name="challenges" d="M857.455 52.19l27.093 49.028-251.985 400.96v278.778l-43.883 29.711-240.002-96-1.648-58.709 221.532-103.382v-48.397l-105.775-132.22-89.62 38.409-38.881-11.149-206.288-296.764 26.275-50.266h703.18zM597.427 437.807l202.121-321.617h-584.057l156.453 225.075 88.015-37.722 37.594 9.421 99.874 124.843zM568.563 628.956v-5.754l-127.488 59.494 127.488 50.995v-104.735z" />
<glyph unicode="&#xe919;" glyph-name="changelog" d="M512 74.667c-194.404 0-352 157.598-352 352 0 123.53 63.633 232.249 160 295.081v-167.081h64v224l-32 32h-224v-64h118.18c-91.735-76.286-150.18-191.298-150.18-320 0-229.751 186.249-416 416-416v64zM512 778.667c194.406 0 352-157.596 352-352 0-123.529-63.633-232.247-160-295.083v167.083h-64v-224l32-32h224v64h-118.178c91.733 76.288 150.178 191.3 150.178 320 0 229.75-186.249 416-416 416v-64zM461.628 285.538l246.498 246.501-45.252 45.255-223.872-223.873-96.374 96.371-45.255-45.252 119-119.002h45.255z" />
<glyph unicode="&#xe91a;" glyph-name="check" d="M902.626 660.040l-464-463.999h-45.257l-224 224 45.255 45.252 201.373-201.37 441.373 441.371 45.257-45.255z" />
<glyph unicode="&#xe91b;" glyph-name="chevron-down" d="M902.63 580.040l-368-367.999h-45.257l-367.999 367.999 45.255 45.255 345.374-345.371 345.37 345.371 45.257-45.255z" />
<glyph unicode="&#xe91c;" glyph-name="chevron-left" d="M665.374 36.037l-368.001 368v45.257l368.001 367.999 45.252-45.255-345.371-345.374 345.371-345.37-45.252-45.257z" />
<glyph unicode="&#xe91d;" glyph-name="chevron-right" d="M358.63 817.297l368-368v-45.257l-368-368-45.255 45.257 345.373 345.374-345.373 345.371 45.255 45.255z" />
<glyph unicode="&#xe91e;" glyph-name="chevron-sort" d="M535.693-17.258l224 246.4-47.356 43.051-200.324-220.352-200.321 220.352-47.356-43.051 224.001-246.4h47.356zM488.337 870.591l-223.999-246.4 47.356-43.051 200.323 220.354 200.32-220.354 47.356 43.051-224 246.4h-47.356z" />
<glyph unicode="&#xe91f;" glyph-name="chevron-up" d="M121.37 273.293l368 368.001h45.257l368-368.001-45.257-45.252-345.374 345.371-345.371-345.371-45.255 45.252z" />
<glyph unicode="&#xe920;" glyph-name="circle-help" d="M512 810.667c-212.077 0-384-171.923-384-384 0-212.079 171.923-384 384-384 212.079 0 384 171.921 384 384 0 212.077-171.921 384-384 384zM64 426.667c0 247.424 200.576 448 448 448s448-200.576 448-448c0-247.424-200.576-448-448-448s-448 200.576-448 448zM480 170.667v64h64v-64h-64zM384 554.667c0 35.346 28.654 64 64 64h128c35.345 0 64-28.654 64-64v-31.005c0-26.168-15.932-49.703-40.23-59.423l-39.309-15.723c-48.593-19.439-80.461-66.505-80.461-118.844v-31.006h64v31.006c0 26.167 15.932 49.702 40.23 59.422l39.309 15.723c48.593 19.439 80.461 66.505 80.461 118.845v31.005c0 70.692-57.306 128-128 128h-128c-70.692 0-128-57.308-128-128v-32h64v32z" />
<glyph unicode="&#xe921;" glyph-name="circle-warning" d="M512 812c-212.814 0-385.333-172.52-385.333-385.333s172.52-385.331 385.333-385.331c212.813 0 385.331 172.518 385.331 385.331s-172.518 385.333-385.331 385.333zM65.333 426.667c0 246.687 199.98 446.667 446.667 446.667s446.669-199.98 446.669-446.667c0-246.686-199.983-446.669-446.669-446.669-246.687 0-446.667 199.983-446.667 446.669zM542.665 234.667v-96h-61.333v96h61.333zM481.331 682.667v-384h61.333v384h-61.333z" />
<glyph unicode="&#xe922;" glyph-name="clock" d="M128 426.667c0 212.077 171.923 384 384 384 212.079 0 384-171.923 384-384 0-212.079-171.921-384-384-384-212.077 0-384 171.921-384 384zM512 874.667c-247.424 0-448-200.576-448-448s200.576-448 448-448c247.424 0 448 200.576 448 448s-200.576 448-448 448zM489.374 404.041l160-160 45.252 45.252-150.626 150.63v274.743h-64v-288l9.374-22.626z" />
<glyph unicode="&#xe923;" glyph-name="close" d="M512 381.41l297.374-297.37 45.252 45.252-297.37 297.374 297.37 297.372-45.252 45.255-297.374-297.37-297.373 297.371-45.254-45.255 297.371-297.373-297.371-297.374 45.255-45.252 297.373 297.37z" />
<glyph unicode="&#xe924;" glyph-name="code" d="M622.95 722.523l-160-608.001-61.893 16.29 160.001 607.998 61.892-16.288zM106.345 426.667l189.836-219.042-48.364-41.916-208 240v41.916l208 240.001 48.364-41.916-189.836-219.043zM727.817 207.625l189.837 219.042-189.837 219.043 48.367 41.916 208-240.001v-41.916l-208-240-48.367 41.916z" />
<glyph unicode="&#xe925;" glyph-name="community" d="M512 810.667c-35.345 0-64-28.654-64-64s28.655-64 64-64c35.345 0 64 28.654 64 64s-28.655 64-64 64zM640 746.667c0-26.026-7.765-50.238-21.111-70.444 21.069-7.062 39.629-19.59 53.995-35.901 23.428 25.999 57.365 42.344 95.117 42.344 70.694 0 128-57.308 128-128 0-26.346-7.962-50.833-21.606-71.189 49.856-17.493 85.606-64.977 85.606-120.811v-128h-64v128c0 35.345-28.655 64-64 64h-128c-35.345 0-64-28.655-64-64v-64c0-26.347-7.962-50.833-21.606-71.189 49.856-17.493 85.606-64.977 85.606-120.811v-128h-64v128c0 35.345-28.655 64-64 64h-128c-35.346 0-64-28.655-64-64v-128h-64v128c0 55.834 35.749 103.317 85.606 120.811-13.646 20.356-21.606 44.843-21.606 71.189v64c0 35.345-28.654 64-64 64h-128c-35.346 0-64-28.655-64-64v-128h-64v128c0 55.834 35.749 103.317 85.606 120.811-13.646 20.356-21.606 44.843-21.606 71.189 0 70.692 57.308 128 128 128 37.753 0 71.689-16.345 95.117-42.344 14.367 16.311 32.927 28.839 53.993 35.901-13.343 20.206-21.111 44.418-21.111 70.444 0 70.692 57.306 128 128 128s128-57.308 128-128zM383.961 557.867c0.026-1.064 0.039-2.13 0.039-3.2 0-26.346-7.96-50.833-21.606-71.189 36.589-12.838 65.578-41.826 78.416-78.417 20.356 13.645 44.843 21.606 71.189 21.606s50.833-7.962 71.189-21.606c12.838 36.591 41.826 65.579 78.417 78.417-13.645 20.356-21.606 44.843-21.606 71.189 0 1.070 0.013 2.136 0.038 3.2h-0.038c0 33.579-27.221 60.8-60.8 60.8h-134.4c-33.579 0-60.8-27.221-60.8-60.8h-0.039zM256 490.667c35.346 0 64 28.654 64 64s-28.654 64-64 64c-35.346 0-64-28.654-64-64s28.654-64 64-64zM768 490.667c35.345 0 64 28.654 64 64s-28.655 64-64 64c-35.345 0-64-28.654-64-64s28.655-64 64-64zM512 234.667c35.345 0 64 28.655 64 64s-28.655 64-64 64c-35.345 0-64-28.655-64-64s28.655-64 64-64z" />
<glyph unicode="&#xe926;" glyph-name="contact" d="M480 874.667h64c229.751 0 416-186.25 416-416v-128c0-88.367-71.633-160-160-160-57.186 0-107.366 30.003-135.659 75.127-35.098-45.683-90.283-75.127-152.341-75.127-106.039 0-192 85.961-192 192v128c0 106.039 85.961 192 192 192 49.173 0 94.033-18.487 128-48.889v48.889h64v-191.872c0-0.043 0-0.085 0-0.128v-128c0-0.043 0-0.085 0-0.128v-31.872c0-53.018 42.982-96 96-96s96 42.982 96 96v128c0 194.404-157.594 352-352 352h-64c-194.404 0-352-157.596-352-352v-64c0-194.406 157.596-352 352-352h352v-64h-352c-229.75 0-416 186.249-416 416v64c0 229.75 186.25 416 416 416zM640 362.565c0 0.034 0 0.068 0 0.102v128c0 0.034 0 0.068 0 0.102-0.055 70.646-57.34 127.898-128 127.898-70.694 0-128-57.308-128-128v-128c0-70.694 57.306-128 128-128 70.66 0 127.945 57.25 128 127.898z" />
<glyph unicode="&#xe927;" glyph-name="copy" d="M159.997 810.667l-32-32 0.004-608h64l-0.004 576h576.003v64h-608.003zM288.001 682.667l-32-32v-576l32-32h575.999l32 32v576l-32 32h-575.999zM320.001 106.667v512h511.999v-512h-511.999z" />
<glyph unicode="&#xe928;" glyph-name="critical" d="M534.626 897.297h-45.257l-448-448v-45.257l448-448h45.257l448 448v45.257l-448 448zM109.252 426.671l402.744 402.744 402.748-402.744-402.748-402.748-402.744 402.748zM329.374 289.302l137.374 137.374-137.372 137.371 45.255 45.255 137.369-137.369 137.374 137.369 45.252-45.255-137.37-137.371 137.374-137.374-45.257-45.252-137.374 137.37-137.371-137.37-45.255 45.252z" />
<glyph unicode="&#xe929;" glyph-name="delete" d="M640 810.667l-255.999-0.001v64l256 0.001v-64zM194.776 682.667h-66.776v64h768v-64h-66.778l-61.355-674.897-31.868-29.103h-448.001l-31.869 29.103-61.354 674.897zM259.040 682.667l58.182-640h389.556l58.18 640h-505.917zM448 554.667v-384h-64v384h64zM640 170.667v384h-64v-384h64z" />
<glyph unicode="&#xe92a;" glyph-name="dev-portal" d="M64 714.667l32 32h832l32-32v-576l-32-32h-832l-32 32v576zM192 682.667h-64v-64h64v64zM256 682.667v-64h64v64h64v-64h512v64h-640zM896 554.667h-768v-384h768v384zM511.044 226.906l64 256-62.089 15.522-64-256 62.089-15.522zM341.333 362.667l93.867-70.4-38.4-51.2-128 96v51.2l128 96 38.4-51.2-93.867-70.4zM682.667 362.667l-93.867 70.4 38.4 51.2 128-96v-51.2l-128-96-38.4 51.2 93.867 70.4z" />
<glyph unicode="&#xe92b;" glyph-name="discord" d="M778.146 676.808c-48.951 22.46-101.444 39.008-156.326 48.486-0.998 0.183-1.997-0.274-2.513-1.189-6.75-12.007-14.229-27.671-19.465-39.983-59.029 8.838-117.756 8.838-175.576 0-5.237 12.585-12.987 27.976-19.768 39.983-0.515 0.884-1.513 1.341-2.513 1.189-54.853-9.447-107.344-25.995-156.324-48.486-0.424-0.183-0.788-0.488-1.029-0.884-99.565-148.748-126.839-293.84-113.459-437.132 0.060-0.7 0.454-1.37 0.999-1.796 65.69-48.243 129.322-77.53 191.772-96.943 0.999-0.303 2.058 0.064 2.694 0.887 14.772 20.173 27.941 41.442 39.232 63.812 0.666 1.31 0.030 2.863-1.332 3.383-20.887 7.923-40.777 17.583-59.908 28.553-1.513 0.883-1.635 3.051-0.242 4.087 4.026 3.017 8.053 6.153 11.898 9.323 0.695 0.58 1.664 0.7 2.482 0.337 125.69-57.387 261.762-57.387 385.965 0 0.819 0.393 1.788 0.273 2.513-0.307 3.844-3.17 7.872-6.336 11.93-9.353 1.391-1.037 1.301-3.204-0.213-4.087-19.132-11.183-39.023-20.629-59.938-28.523-1.361-0.521-1.967-2.103-1.301-3.413 11.533-22.336 24.7-43.61 39.202-63.782 0.606-0.853 1.694-1.22 2.692-0.917 62.754 19.413 126.387 48.7 192.077 96.943 0.576 0.427 0.939 1.067 0.998 1.766 16.013 165.662-26.82 309.563-113.549 437.132-0.213 0.426-0.576 0.731-0.998 0.914zM384.641 326.042c-37.841 0-69.021 34.743-69.021 77.406 0 42.667 30.575 77.406 69.021 77.406 38.747 0 69.627-35.046 69.021-77.406 0-42.662-30.577-77.406-69.021-77.406zM639.834 326.042c-37.841 0-69.022 34.743-69.022 77.406 0 42.667 30.575 77.406 69.022 77.406 38.746 0 69.623-35.046 69.018-77.406 0-42.662-30.272-77.406-69.018-77.406z" />
<glyph unicode="&#xe92c;" glyph-name="doc" d="M288 874.667h512l32-32v-704l-32-32h-32v-64h64v-64h-544c-53.020 0-96 42.982-96 96v704c0 53.019 42.981 96 96 96zM704 42.667v64h-416c-17.673 0-32-14.327-32-32s14.327-32 32-32h416zM256 165.206c10.009 3.537 20.78 5.461 32 5.461h480v640h-480c-17.673 0-32-14.327-32-32v-613.461zM480 647.467c-20.429-4.147-39.445-12.186-56.238-23.309l-24.901 24.901-45.255-45.255 24.901-24.901c-11.122-16.794-19.161-35.808-23.308-56.236h-35.2v-64h35.2c4.147-20.429 12.185-39.441 23.308-56.235l-24.901-24.9 45.255-45.257 24.901 24.9c16.792-11.123 35.809-19.162 56.238-23.309v-35.2h64v35.2c20.429 4.147 39.441 12.186 56.235 23.309l24.905-24.9 45.252 45.252-24.9 24.905c11.123 16.794 19.162 35.806 23.309 56.235h35.2v64h-35.2c-4.147 20.428-12.186 39.443-23.309 56.236l24.9 24.902-45.252 45.255-24.905-24.902c-16.794 11.123-35.806 19.162-56.235 23.308v35.2h-64v-35.2zM416 490.667c0 53.019 42.982 96 96 96s96-42.981 96-96c0-53.018-42.982-96-96-96s-96 42.982-96 96z" />
<glyph unicode="&#xe92d;" glyph-name="document" d="M192.003 842.667l32 32h352.002l22.626-9.373 224-224 9.374-22.627v-608l-32-32h-576.002l-32 32v832zM256.003 810.667v-768h512.002v562.745l-0.004 0.002v-50.747h-224l-32 32v224h-255.997zM576 797.414v-178.747h178.748l-178.748 178.747zM320.003 362.667h384.002v64h-384.002v-64zM320.003 170.667h384.002v64h-384.002v-64z" />
<glyph unicode="&#xe92e;" glyph-name="download" d="M479.996 295.928v578.739h64v-578.748l169.378 169.374 45.252-45.252-224-224h-45.252l-224.001 224 45.255 45.252 169.368-169.365zM896 10.667l-32-32h-704l-32 32v192l32 32h96v-64h-64v-128h640v128h-64v64h96l32-32v-192z" />
<glyph unicode="&#xe92f;" glyph-name="ecosystem" d="M320 842.667l-32 32h-192l-32-32v-192l32-32h193.012l66.856-80.229c-22.577-31.481-35.869-70.073-35.869-111.771s13.292-80.29 35.869-111.77l-66.856-80.23h-193.012l-32-32v-192l32-32h192l32 32v159.68h-64v-127.68h-128v128h190.988l82.484 98.982c31.253-22.037 69.376-34.982 110.528-34.982 41.148 0 79.275 12.945 110.524 34.982l82.487-98.982h190.989v-128h-128v127.68h-64v-159.68l32-32h192l32 32v192l-32 32h-193.011l-66.859 80.23c22.575 31.479 35.87 70.071 35.87 111.77s-13.295 80.29-35.87 111.77l66.859 80.23h193.011l32 32v192l-32 32h-192l-32-32v-159.68h64v127.68h128v-128h-190.989l-82.487-98.985c-31.249 22.040-69.376 34.985-110.524 34.985-41.152 0-79.275-12.945-110.528-34.983l-82.484 98.983h-190.988v128h128v-127.68h64v159.68zM383.998 426.667c0 70.694 57.308 128 128.002 128 70.69 0 128-57.306 128-128s-57.31-128-128-128c-70.694 0-128.002 57.306-128.002 128z" />
<glyph unicode="&#xe930;" glyph-name="edit-alt" d="M417.47 405.632v-73.493h73.491l229.239 229.238-73.493 73.492-229.237-229.237zM827.076 668.256l-61.623-61.624-73.493 73.492 61.628 61.624 73.489-73.492zM362.842 441.515l368.114 368.116h45.257l118.746-118.747v-45.255l-368.115-368.116-22.626-9.374h-118.748l-32 32v118.75l9.373 22.626zM223.997 746.67l-32-32 0.003-575.998 32-32h576l32 32v288h-64v-256h-512l-0.003 511.998h255.998v64h-287.998z" />
<glyph unicode="&#xe931;" glyph-name="edit" d="M192 349.41v-114.743h114.745l319.998 319.997-114.743 114.745-320-319.998zM557.252 714.664l114.748-114.745 98.743 98.746-114.743 114.745-98.748-98.746zM137.373 385.293l496.001 495.999h45.252l160-160v-45.255l-495.999-496-22.627-9.37h-160l-32 32v160l9.373 22.626zM64 106.667h896v-64h-896v64z" />
<glyph unicode="&#xe932;" glyph-name="explorer" d="M192 616.409l320 189.091 320-189.091v-379.476l-80.273-47.42 32.55-55.104 96 56.708 15.723 27.554v415.998l-15.718 27.549-352.004 208h-32.555l-352.002-208-15.721-27.549v-415.998l15.721-27.55 352.002-208h32.559l128 75.644-32.563 55.095-111.718-66.022-320 189.090v379.481zM512 554.67c-70.694 0-128-57.308-128-127.998 0-70.694 57.306-128 128-128s128 57.306 128 128c0 70.69-57.306 127.998-128 127.998zM320 426.671c0 106.037 85.961 191.998 192 191.998s192-85.961 192-191.998c0-55.787-23.791-106.014-61.781-141.094l136.585-209.429-53.606-34.961-136.559 209.391c-23.475-10.236-49.395-15.906-76.638-15.906-106.039 0-192 85.961-192 192z" />
<glyph unicode="&#xe933;" glyph-name="external-link-arrow" d="M274.744 746.667h-210.744v64h288l32-32v-288h-64v210.746l-265.373-265.372-45.255 45.257 265.371 265.37z" />
<glyph unicode="&#xe934;" glyph-name="external-link" d="M786.748 746.662h-210.748v64h288l32-32v-287.999h-64v210.745l-265.37-265.371-45.257 45.252 265.374 265.373zM192 714.663l32 32h288v-64h-256l0.003-512h511.997v256h64v-288l-32-32h-575.997l-32 32-0.003 576z" />
<glyph unicode="&#xe935;" glyph-name="eye" d="M119.173 393.575c17.87-28.719 44.646-66.953 80.224-105.075 71.456-76.557 175.589-149.833 312.608-149.833 137.015 0 241.148 73.276 312.606 149.833 35.575 38.123 62.353 76.356 80.222 105.075 8.452 13.581 14.865 24.96 19.234 33.092-4.369 8.132-10.782 19.511-19.234 33.092-17.869 28.719-44.646 66.954-80.222 105.073-71.458 76.559-175.59 149.834-312.606 149.834-137.019 0-241.152-73.275-312.608-149.834-35.578-38.12-62.354-76.355-80.224-105.073-8.452-13.581-14.865-24.96-19.234-33.092 4.369-8.132 10.782-19.511 19.234-33.092zM988.988 440.226c0.009-0.017 0.013-0.026-28.983-13.559 28.996-13.534 28.992-13.542 28.983-13.559l-0.013-0.030-0.043-0.090-0.124-0.26-0.414-0.866c-0.35-0.725-0.849-1.749-1.493-3.046-1.293-2.598-3.183-6.302-5.662-10.957-4.962-9.301-12.314-22.426-22.067-38.097-19.465-31.283-48.687-73.050-87.774-114.927-77.879-83.443-197.747-170.167-359.394-170.167-161.65 0-281.517 86.724-359.395 170.167-39.088 41.877-68.312 83.644-87.776 114.927-9.751 15.671-17.104 28.796-22.065 38.097-2.482 4.655-4.369 8.358-5.662 10.957-0.646 1.297-1.145 2.321-1.495 3.046l-0.414 0.866-0.124 0.26-0.041 0.090-0.015 0.030c-0.006 0.017-0.012 0.026 28.986 13.559-28.998 13.534-28.992 13.542-28.986 13.559l0.015 0.030 0.041 0.090 0.124 0.26 0.414 0.866c0.35 0.725 0.848 1.749 1.495 3.046 1.293 2.598 3.18 6.302 5.662 10.957 4.961 9.301 12.314 22.426 22.065 38.097 19.464 31.281 48.688 73.048 87.776 114.929 77.878 83.441 197.745 170.166 359.395 170.166 161.647 0 281.515-86.725 359.394-170.166 39.087-41.88 68.309-83.647 87.774-114.929 9.754-15.671 17.105-28.796 22.067-38.097 2.479-4.655 4.369-8.358 5.662-10.957 0.644-1.297 1.143-2.321 1.493-3.046l0.414-0.866 0.166-0.35 0.013-0.030zM64.003 426.667l-28.998-13.534v27.068l28.998-13.534zM960.004 426.667l28.996 13.534v-27.068l-28.996 13.534zM384.003 426.667c0 70.694 57.307 128 128.002 128 70.69 0 128-57.306 128-128s-57.31-128-128-128c-70.694 0-128.002 57.306-128.002 128zM512.004 618.667c-106.040 0-192.002-85.961-192.002-192s85.961-192 192.002-192c106.035 0 192 85.961 192 192s-85.965 192-192 192z" />
<glyph unicode="&#xe936;" glyph-name="face-neutral" d="M127.997 426.667c0 212.077 171.923 384 383.998 384 212.079 0 384-171.923 384-384 0-212.079-171.921-384-384-384-212.076 0-383.998 171.921-383.998 384zM511.996 874.667c-247.422 0-447.998-200.576-447.998-448s200.576-448 447.998-448c247.424 0 448 200.576 448 448s-200.576 448-448 448zM319.997 298.667v-64h383.998v64h-383.998zM415.997 586.667v-128h-64v128h64zM671.996 458.667v128h-64v-128h64z" />
<glyph unicode="&#xe937;" glyph-name="facebook" d="M512 808.334c-212.077 0-384-171.922-384-384 0-191.663 140.423-350.528 324.002-379.332v268.335h-97.502v110.997h97.502v84.599c0 96.241 57.327 149.401 145.041 149.401 42.014 0 85.956-7.5 85.956-7.5v-94.5h-48.422c-47.701 0-62.579-29.6-62.579-59.966v-72.034h106.5l-17.024-110.997h-89.476v-268.335c183.578 28.804 324.002 187.669 324.002 379.332 0 212.078-171.921 384-384 384z" />
<glyph unicode="&#xe938;" glyph-name="faq" d="M192 138.667l32-32h704l32 32v704l-32 32h-704l-32-32v-704zM896 170.667h-640v640h640v-640zM448 586.667c0 53.019 42.982 96 96 96h77.513c45.555 0 82.487-36.931 82.487-82.488 0-33.73-20.535-64.061-51.853-76.588l-8.030-3.213c-60.467-24.186-100.117-82.75-100.117-147.872v-9.839h64v9.839c0 38.955 23.718 73.984 59.883 88.448l8.034 3.213c55.616 22.246 92.083 76.113 92.083 136.012 0 80.903-65.583 146.488-146.487 146.488h-77.513c-88.367 0-160-71.634-160-160h64zM544 298.667v-64h64v64h-64zM96-21.333l-32 32v608h64v-576h576v-64h-608z" />
<glyph unicode="&#xe939;" glyph-name="features" d="M514.726 765.931l-98.207-212.912-25.29-18.374-232.839-27.607 172.144-159.194 9.66-29.73-45.696-229.973 204.599 114.526h31.258l204.599-114.526-45.696 229.973 9.66 29.73 172.143 159.194-232.836 27.607-25.293 18.374-98.206 212.912zM365.906 596.091l119.764 259.644h58.112l119.765-259.644 283.942-33.666 17.958-55.271-209.929-194.133 55.727-280.452-47.014-34.159-249.506 139.661-249.505-139.661-47.017 34.159 55.725 280.452-209.928 194.133 17.959 55.271 283.945 33.666z" />
<glyph unicode="&#xe93a;" glyph-name="flag" d="M277.978 458.667l-57.472 149.427-74.415 202.573h129.009c21.799 0 42.949-7.419 59.971-21.037l89.878-71.902c28.372-22.696 63.619-35.061 99.95-35.061h227.102l-61.542-147.692 7.834-35.822 147.861-136.486h-170.697c-17.399 0-34.475 4.727-49.395 13.679l-99.196 59.52c-24.866 14.921-53.321 22.801-82.321 22.801h-166.566zM298.907 394.667h145.637c17.399 0 34.475-4.727 49.395-13.679l99.196-59.52c24.866-14.921 53.321-22.801 82.321-22.801h252.544l21.705 55.514-191.565 176.827 71.398 171.351-29.538 44.308h-275.102c-21.798 0-42.948 7.419-59.968 21.036l-89.879 71.903c-28.37 22.696-63.62 35.061-99.951 35.061h-179.1l-29.867-43.487 94.465-245.609 199.434-542.904h-88.032v-64h240.001v64h-83.785l-129.308 352z" />
<glyph unicode="&#xe93b;" glyph-name="game" d="M338.211 748.9c-85.173 20.041-170.647-32.055-191.869-116.941l-81.905-327.622c-21.642-86.566 31.714-174.114 118.577-194.551l22.781-5.359c85.173-20.041 170.647 32.055 191.869 116.941l3.324 13.295h222.031l3.324-13.295c21.222-84.885 106.697-136.981 191.868-116.941l22.784 5.359c86.861 20.437 140.215 107.985 118.575 194.551l-81.907 327.622c-21.218 84.887-106.692 136.982-191.868 116.941l-22.78-5.36c-38.528-9.065-70.485-31.37-92.198-60.876h-117.628c-21.713 29.506-53.669 51.811-92.196 60.876l-22.781 5.36zM208.431 616.437c12.733 50.932 64.018 82.189 115.121 70.164l22.781-5.36c27.202-6.4 48.897-23.718 61.638-46.301l27.869-16.276h152.324l27.87 16.276c12.74 22.584 34.436 39.901 61.636 46.301l22.784 5.36c51.102 12.025 102.387-19.232 115.119-70.164l81.907-327.622c12.983-51.942-19.029-104.465-71.147-116.732l-22.78-5.359c-51.106-12.023-102.391 19.234-115.123 70.165l-9.382 37.534-31.044 24.239h-272.002l-31.045-24.239-9.384-37.534c-12.733-50.931-64.017-82.189-115.121-70.165l-22.781 5.359c-52.118 12.267-84.131 64.789-71.146 116.732l81.905 327.622zM704.004 554.665h-64v-63.998h-64v-64h64v-64h64v64h64v64h-64v63.998zM704.004 490.667v-64h-64v64h64zM320.003 554.665v-63.998h-64v-64h64v-64h64v64h64.001v64h-64.001v63.998h-64z" />
<glyph unicode="&#xe93c;" glyph-name="general-info" d="M63.997 842.667l32 32h832.003l32-32v-832.004l-32-32h-832.003l-32 32v832.004zM127.997 810.667v-768.004h768.003v768.004h-768.003zM544 682.667v-64h-64v64h64zM480.004 490.667v-320h64v320h-64z" />
<glyph unicode="&#xe93d;" glyph-name="gitbook" d="M467.302 207.429c13.995 0 26.594-11.196 26.594-26.594 0-13.995-11.2-26.594-26.594-26.594-13.999 0-26.594 11.2-26.594 26.594 0 15.398 12.595 26.594 26.594 26.594zM878.818 369.797c-13.999 0-26.594 11.196-26.594 26.594 0 13.999 11.196 26.594 26.594 26.594 13.995 0 26.594-11.196 26.594-26.594 0-13.995-12.599-26.594-26.594-26.594zM878.818 477.573c-44.791 0-81.186-36.39-81.186-81.182 0-8.397 1.399-16.798 4.198-25.195l-267.341-142.771c-15.398 22.396-40.593 34.995-67.187 34.995-30.797 0-58.789-18.197-72.786-44.791l-240.751 125.973c-25.195 13.999-44.791 54.588-41.992 93.781 1.4 19.597 8.399 34.991 18.196 40.589 6.999 4.203 13.997 2.803 23.795-1.399l1.399-1.399c64.387-33.591 272.943-142.767 281.34-146.97 13.999-5.598 20.996-8.397 44.791 2.799l431.113 223.956c6.997 2.799 13.999 8.398 13.999 18.196 0 12.597-12.599 18.196-12.599 18.196-25.195 11.197-62.985 29.394-99.379 46.191-78.383 36.393-167.966 78.384-207.159 99.379-33.591 18.196-61.585 2.8-65.783 0l-9.801-4.199c-177.762-89.582-412.913-205.758-426.911-214.156-23.795-13.996-39.192-43.393-40.591-79.783-2.799-57.387 26.595-117.577 68.586-138.573l254.748-131.571c5.599-39.194 40.591-69.986 79.785-69.986 44.791 0 79.782 34.991 81.182 79.782l279.945 151.168c13.995-11.196 32.192-16.794 50.389-16.794 44.791 0 81.182 36.39 81.182 81.182 0 46.191-36.39 82.581-81.182 82.581z" />
<glyph unicode="&#xe93e;" glyph-name="github" d="M511.979 811.719c-91.189-0.015-179.395-32.476-248.839-91.575s-115.592-140.98-130.188-230.992c-14.596-90.010 3.313-182.276 50.523-260.292s120.638-136.687 207.148-165.517c19.201-3.52 26.209 8.333 26.209 18.509 0 9.118-0.332 33.267-0.518 65.31-106.816-23.202-129.354 51.477-129.354 51.477-7.057 23.211-22.178 43.132-42.635 56.171-34.865 23.825 2.638 23.343 2.638 23.343 12.17-1.681 23.796-6.123 33.989-12.979s18.686-15.953 24.829-26.594c5.201-9.476 12.23-17.822 20.678-24.563s18.15-11.738 28.542-14.703c10.393-2.97 21.27-3.844 32.004-2.581s21.11 4.642 30.53 9.941c1.751 19.469 10.395 37.675 24.381 51.337-85.271 9.69-174.914 42.633-174.914 189.781-0.558 38.153 13.596 75.053 39.526 103.043-11.716 33.121-10.37 69.462 3.764 101.625 0 0 32.241 10.325 105.597-39.365 62.933 17.233 129.339 17.233 192.268 0 73.31 49.69 105.493 39.365 105.493 39.365 14.174-32.151 15.539-68.5 3.823-101.625 25.933-27.985 40.068-64.895 39.471-103.043 0-147.516-89.783-179.977-175.326-189.483 9.161-9.31 16.226-20.471 20.723-32.738 4.497-12.262 6.319-25.348 5.346-38.374 0-51.337-0.474-92.753-0.474-105.344 0-10.266 6.916-22.212 26.406-18.462 86.473 28.885 159.851 87.59 207.010 165.615 47.159 78.029 65.020 170.287 50.394 260.275-14.63 89.992-60.796 171.843-130.24 230.915s-157.636 91.515-248.806 91.523v0z" />
<glyph unicode="&#xe93f;" glyph-name="gitlab" d="M887.138 385.6l-39.309 121.067c0.017-0.055 0.026-0.115 0.043-0.166-0.021 0.064-0.034 0.124-0.051 0.188 0 0.004 0 0.009 0 0.013 0 0 0 0.004 0 0.004l-78.037 240.247c-4.267 12.656-16.013 21.15-29.478 21.045-13.508-0.070-24.93-8.4-29.107-21.231l-74.074-228.041h-233.719l-74.211 228.056c-4.173 12.82-15.599 21.148-29.102 21.218-0.055 0-0.107 0-0.163 0-13.296 0-25.066-8.442-29.38-21.239l-77.833-240.064c0 0 0-0.004 0-0.004-0.020-0.064-0.028-0.124-0.048-0.183 0.017 0.055 0.024 0.111 0.041 0.166l-39.453-121.075c-5.935-18.278 0.505-38.14 16.030-49.434l340.663-247.518c0.051-0.038 0.107-0.060 0.158-0.098 0.145-0.102 0.29-0.209 0.435-0.307-0.137 0.094-0.269 0.196-0.405 0.29 0 0 0 0.004-0.004 0.004 0.021-0.017 0.051-0.030 0.073-0.043s0.038-0.021 0.060-0.038c0 0 0.004-0.004 0.009-0.004 0.529-0.367 1.075-0.7 1.638-1.007 0.081-0.047 0.149-0.098 0.226-0.141 0.004 0 0.004-0.004 0.004-0.004 0.051-0.021 0.094-0.051 0.141-0.077 0.038-0.017 0.077-0.030 0.111-0.047 0.026-0.013 0.055-0.021 0.081-0.030 0.064-0.030 0.132-0.051 0.196-0.085 0.294-0.141 0.606-0.256 0.913-0.38 0.286-0.119 0.563-0.256 0.853-0.358 0.013-0.004 0.026-0.009 0.038-0.013 0.047-0.017 0.090-0.043 0.141-0.060 0.060-0.021 0.119-0.047 0.179-0.064 0.026-0.009 0.047-0.013 0.073-0.017 0.077-0.026 0.158-0.038 0.235-0.060 0.030-0.009 0.060-0.013 0.094-0.021 0.41-0.124 0.832-0.213 1.254-0.307 0.166-0.038 0.324-0.090 0.495-0.119 0.021-0.004 0.043-0.013 0.068-0.017 0.055-0.013 0.107-0.030 0.162-0.038 0.090-0.017 0.179-0.043 0.269-0.055 0.073-0.013 0.145-0.009 0.218-0.021 0.013 0 0.026 0 0.038 0 0.004 0 0.004 0 0.009 0 0.806-0.115 1.617-0.196 2.449-0.196 0.004 0 0.009 0 0.017 0 0 0 0.004 0 0.004 0v0c0.004 0 0.004 0 0.009 0 0.832 0 1.643 0.081 2.449 0.196 0.004 0 0.009 0 0.009 0 0.013 0 0.030 0 0.043 0 0.068 0.013 0.145 0.009 0.218 0.021 0.094 0.013 0.179 0.038 0.269 0.055 0.055 0.009 0.107 0.026 0.162 0.038 0.021 0.004 0.043 0.013 0.068 0.017 0.171 0.034 0.333 0.085 0.503 0.124 0.414 0.090 0.832 0.179 1.242 0.303 0.030 0.009 0.055 0.009 0.085 0.017 0.081 0.026 0.162 0.034 0.243 0.060 0.026 0.009 0.051 0.013 0.073 0.017 0.064 0.021 0.124 0.047 0.188 0.068 0.047 0.017 0.090 0.043 0.137 0.060 0.013 0.004 0.026 0.009 0.038 0.013 0.311 0.111 0.602 0.252 0.905 0.38 0.282 0.115 0.567 0.222 0.841 0.35 0.068 0.034 0.141 0.051 0.205 0.085 0.030 0.013 0.060 0.021 0.085 0.034 0.038 0.017 0.077 0.030 0.111 0.051 0.051 0.026 0.098 0.055 0.149 0.077 0 0 0 0 0 0.004 0.081 0.043 0.154 0.098 0.235 0.145 0.559 0.303 1.105 0.636 1.63 0.998 0.043 0.030 0.090 0.051 0.132 0.081 0.013 0.009 0.026 0.013 0.034 0.021 0.051 0.038 0.111 0.064 0.162 0.098l340.715 247.526c15.518 11.285 21.956 31.147 16.021 49.425zM740.518 724.446l66.82-205.719h-133.636l66.816 205.719zM795.635 483.938l-228.361-292.599 95.125 292.599h133.235zM503.633 97.344c0.017-0.051 0.047-0.098 0.064-0.154-0.017 0.055-0.047 0.102-0.064 0.154zM473.126 191.322l-228.241 292.617h133.246l94.994-292.617zM299.881 724.448l66.943-205.722h-133.638l66.695 205.722zM189.74 364.305c-3.302 2.402-4.67 6.643-3.404 10.534l29.328 90.005 214.898-275.516-240.822 174.976zM509.35 89.11c-0.068 0.051-0.132 0.111-0.196 0.166-0.013 0.013-0.026 0.030-0.043 0.038-0.132 0.111-0.26 0.222-0.384 0.333-0.252 0.218-0.495 0.435-0.725 0.666 0.017-0.017 0.038-0.030 0.060-0.047 0.026-0.026 0.055-0.047 0.081-0.068 0.499-0.478 1.024-0.926 1.57-1.34 0.009-0.004 0.013-0.013 0.017-0.017 0.030-0.017 0.051-0.043 0.077-0.064-0.149 0.111-0.307 0.213-0.457 0.333zM520.188 159.015l-105.481 324.924h211.116l-105.634-324.924zM531.627 89.647c-0.132-0.111-0.256-0.226-0.388-0.333-0.017-0.013-0.034-0.030-0.047-0.043-0.068-0.055-0.132-0.115-0.196-0.166-0.145-0.115-0.299-0.222-0.452-0.333 0.026 0.021 0.051 0.047 0.077 0.064 0.004 0.004 0.009 0.009 0.013 0.013 0.55 0.414 1.071 0.858 1.566 1.335 0.021 0.017 0.043 0.034 0.064 0.051 0.026 0.026 0.055 0.043 0.077 0.068-0.23-0.226-0.469-0.444-0.713-0.657zM850.662 364.31l-240.785-174.925 214.967 275.439 29.21-89.967c1.267-3.908-0.098-8.149-3.392-10.547z" />
<glyph unicode="&#xe940;" glyph-name="global" d="M398.304 793.547c-146.784-45.44-255.936-176.544-268.992-334.88h191.136c3.008 105.28 20.64 201.12 48.544 273.632 8.608 22.368 18.368 43.008 29.312 61.248zM512 810.667c-9.984 0-23.074-5.12-38.592-22.208-15.522-17.088-31.010-43.616-44.672-79.104-24.608-63.936-41.28-151.712-44.256-250.654h255.042c-2.978 98.942-19.652 186.718-44.258 250.654-13.666 35.488-29.12 62.016-44.672 79.104s-28.642 22.208-38.592 22.208zM703.552 458.667h191.134c-13.056 158.336-122.206 289.44-268.992 334.88 10.944-18.24 20.706-38.88 29.312-61.248 27.874-72.512 45.538-168.384 48.546-273.632zM639.522 394.667h-255.042c2.976-98.944 19.648-186.722 44.256-250.658 13.662-35.486 29.12-62.016 44.672-79.104 15.552-17.084 28.642-22.208 38.592-22.208 9.984 0 23.070 5.124 38.592 22.208 15.518 17.088 31.006 43.618 44.672 79.104 24.606 63.97 41.28 151.714 44.258 250.658zM625.694 59.785c146.786 45.44 255.936 176.546 268.992 334.882h-191.134c-2.974-105.28-20.642-201.122-48.546-273.63-8.606-22.37-18.368-43.008-29.312-61.252zM512-21.333c-247.424 0-448 200.576-448 448s200.576 448 448 448c247.424 0 448-200.576 448-448s-200.576-448-448-448zM398.304 59.785c-10.944 18.244-20.704 38.882-29.312 61.252-27.904 72.508-45.536 168.38-48.544 273.63h-191.136c13.056-158.336 122.208-289.442 268.992-334.882zM128 426.667v0z" />
<glyph unicode="&#xe941;" glyph-name="governance" d="M772.826 802.366l-84.267-72.227c-22.66-19.423-50.3-32.121-79.795-36.659l-112.516-17.309c-28.211-4.341-53.030-21.013-67.721-45.492l-45.984-76.642 100.137-26.703 74.722 53.373 37.197-52.079-175.729-125.521c-12.852-9.182-16.101-26.906-7.34-40.047 8.408-12.612 25.053-16.717 38.36-9.455l91.682 50.005c27.733 15.13 58.825 23.057 90.415 23.057 62.118 0 114.786 45.675 123.567 107.169l6.601 46.177c5.15 36.051 24.41 68.579 53.542 90.428l29.103 21.825 38.4-51.201-29.103-21.825c-15.556-11.665-25.839-29.031-28.587-48.278l-6.596-46.177c-4.006-28.030-14.037-53.886-28.668-76.333l32.026-6.404 24.875-38.707-54.741-232.674h167.595v-64h-896v64h55.475l105.622 392.316 39.145 22.6 53.959-14.389 55.447 92.412c24.479 40.798 65.844 68.586 112.871 75.82l112.512 17.309c17.698 2.723 34.283 10.342 47.876 21.995l84.267 72.228 41.651-48.593zM736.171 394.001c-30.012-19.874-65.911-31.334-104.183-31.334-20.885 0-41.434-5.239-59.772-15.241l-91.678-50.010c-42.411-23.13-95.463-10.052-122.259 30.144-27.922 41.882-17.569 98.364 23.392 127.625l33.487 23.919-136.559 36.414-92.843-344.852h540.902l50.611 215.113-41.097 8.222z" />
<glyph unicode="&#xe942;" glyph-name="happy-face" d="M127.997 426.667c0 212.077 171.923 384 383.998 384 212.079 0 384-171.923 384-384 0-212.079-171.921-384-384-384-212.076 0-383.998 171.921-383.998 384zM511.996 874.667c-247.422 0-447.998-200.576-447.998-448s200.576-448 447.998-448c247.424 0 448 200.576 448 448s-200.576 448-448 448zM678.276 330.667c-16.836-29.158-41.041-53.376-70.191-70.225-29.15-16.853-62.217-25.741-95.885-25.775-33.673-0.034-66.756 8.785-95.942 25.574-29.184 16.785-53.441 40.956-70.336 70.076l-55.359-32.115c22.528-38.831 54.87-71.053 93.782-93.44 38.913-22.383 83.029-34.142 127.919-34.095 44.894 0.047 88.981 11.9 127.851 34.364 38.865 22.468 71.138 54.758 93.585 93.636l-55.424 32zM415.997 586.667v-128h-64v128h64zM671.996 458.667v128h-64v-128h64z" />
<glyph unicode="&#xe943;" glyph-name="hourglass" d="M768 810.667v-158.476c0-43.788-17.946-85.663-49.655-115.862l-115.145-109.661 115.145-109.662c31.71-30.199 49.655-72.073 49.655-115.861v-158.477h64v-64h-640v64h64v158.477c0 43.789 17.946 85.662 49.655 115.861l115.145 109.662-115.145 109.661c-31.709 30.199-49.655 72.074-49.655 115.862v158.476h-64v64h640v-64h-64zM704 810.667h-384v-158.476c0-26.273 10.768-51.398 29.793-69.517l139.474-132.834v-46.345l-139.474-132.834c-19.025-18.121-29.793-43.243-29.793-69.517v-158.477h384v158.477c0 26.274-10.769 51.396-29.794 69.517l-139.473 132.834v46.345l139.473 132.834c19.025 18.119 29.794 43.244 29.794 69.517v158.476zM480 170.667h64v-64h-64v64zM544 298.667h-64v-64h64v64z" />
<glyph unicode="&#xe944;" glyph-name="in-progress" d="M128 426.667c0 212.077 171.923 384 384 384 212.079 0 384-171.923 384-384 0-212.079-171.921-384-384-384-212.077 0-384 171.921-384 384zM512 874.667c-247.424 0-448-200.576-448-448s200.576-448 448-448c247.424 0 448 200.576 448 448s-200.576 448-448 448zM512 234.667c106.039 0 192 85.961 192 192s-85.961 192-192 192c-106.039 0-192-85.961-192-192s85.961-192 192-192z" />
<glyph unicode="&#xe945;" glyph-name="info" d="M512 810.667c-212.077 0-384-171.923-384-384 0-212.079 171.923-384 384-384 212.079 0 384 171.921 384 384 0 212.077-171.921 384-384 384zM64 426.667c0 247.424 200.576 448 448 448s448-200.576 448-448c0-247.424-200.576-448-448-448s-448 200.576-448 448zM544 682.667v-64h-64v64h64zM480 490.667v-320h64v320h-64z" />
<glyph unicode="&#xe946;" glyph-name="instagram" d="M512 741.485c102.515 0 114.662-0.375 155.162-2.247 37.453-1.712 57.788-7.972 71.322-13.216 17.924-6.956 30.711-15.302 44.143-28.732 13.427-13.43 21.777-26.217 28.732-44.141 5.244-13.536 11.503-33.868 13.214-71.321 1.873-40.503 2.249-52.648 2.249-155.161 0-102.515-0.375-114.662-2.249-155.162-1.711-37.453-7.97-57.788-13.214-71.322-6.955-17.924-15.305-30.711-28.732-44.143-13.431-13.427-26.219-21.777-44.143-28.732-13.534-5.244-33.869-11.503-71.322-13.214-40.499-1.873-52.591-2.249-155.162-2.249-102.567 0-114.712 0.375-155.161 2.249-37.453 1.711-57.785 7.97-71.321 13.214-17.924 6.955-30.711 15.305-44.141 28.732-13.429 13.431-21.776 26.219-28.732 44.143-5.243 13.534-11.503 33.869-13.216 71.322-1.873 40.499-2.247 52.646-2.247 155.162 0 102.513 0.375 114.659 2.247 155.161 1.712 37.453 7.972 57.785 13.216 71.321 6.956 17.924 15.302 30.711 28.732 44.141s26.217 21.776 44.141 28.732c13.536 5.243 33.868 11.503 71.321 13.216 40.503 1.873 52.648 2.247 155.161 2.247zM512 810.667c-104.28 0-117.388-0.428-158.319-2.301-40.877-1.873-68.806-8.347-93.204-17.871-25.254-9.791-46.709-22.9-68.058-44.248s-34.457-42.804-44.248-68.058c-9.524-24.398-15.998-52.327-17.871-93.204-1.873-40.931-2.301-54.039-2.301-158.319 0-104.282 0.428-117.389 2.301-158.319 1.873-40.879 8.347-68.809 17.871-93.205 9.791-25.254 22.9-46.707 44.248-68.058 21.348-21.346 42.804-34.458 68.058-44.245 24.398-9.527 52.327-16 93.204-17.873 40.931-1.873 54.039-2.3 158.319-2.3 104.282 0 117.389 0.427 158.319 2.3 40.879 1.873 68.809 8.346 93.205 17.873 25.254 9.788 46.707 22.899 68.058 44.245 21.346 21.35 34.458 42.803 44.245 68.058 9.527 24.397 16 52.326 17.873 93.205 1.873 40.93 2.3 54.037 2.3 158.319 0 104.28-0.427 117.388-2.3 158.319-1.873 40.877-8.346 68.806-17.873 93.204-9.788 25.254-22.899 46.709-44.245 68.058-21.35 21.348-42.803 34.457-68.058 44.248-24.397 9.524-52.326 15.998-93.205 17.871-40.93 1.873-54.037 2.301-158.319 2.301zM512.751 623.24c-108.99 0-197.325-88.335-197.325-197.324s88.335-197.376 197.325-197.376c108.988 0 197.376 88.388 197.376 197.376s-88.388 197.324-197.376 197.324zM512.751 297.826c-70.733 0-128.091 57.357-128.091 128.090s57.358 128.090 128.091 128.090c70.733 0 128.085-57.357 128.085-128.090s-57.353-128.090-128.085-128.090zM761.916 632.39c0-25.254-20.489-45.693-45.743-45.693-25.203 0-45.696 20.439-45.696 45.693s20.493 45.693 45.696 45.693c25.254 0 45.743-20.439 45.743-45.693z" />
<glyph unicode="&#xe947;" glyph-name="light" d="M480 714.667v160h64v-160h-64zM512 554.667c-70.694 0-128-57.306-128-128 0-70.69 57.306-128 128-128s128 57.31 128 128c0 70.694-57.306 128-128 128zM320 426.667c0 106.039 85.961 192 192 192s192-85.961 192-192c0-106.039-85.961-192-192-192s-192 85.961-192 192zM800 458.667h160v-64h-160v64zM224 458.667h-160v-64h160v64zM480 138.667v-160h64v160h-64zM693.018 652.942l113.139 113.137 45.252-45.255-113.135-113.137-45.257 45.255zM285.725 245.649l-113.137-113.139 45.255-45.252 113.137 113.135-45.255 45.257zM285.726 607.686l-113.137 113.137 45.255 45.255 113.137-113.137-45.255-45.255zM693.018 200.393l113.139-113.139 45.257 45.257-113.139 113.139-45.257-45.257z" />
<glyph unicode="&#xe948;" glyph-name="linkedin" d="M187.787 110.375h132.368v461.207h-132.368v-461.207zM250.587 629.285h-0.937c-47.921 0-78.984 35.277-78.984 79.92 0 45.527 31.999 80.128 80.857 80.128 48.806 0 78.828-34.497 79.816-80.024 0-44.643-31.011-80.024-80.753-80.024zM849.677 110.324h-150.059v238.72c0 62.49-23.518 105.105-75.132 105.105-39.441 0-61.397-28.774-71.65-56.508-3.797-9.937-3.226-23.829-3.226-37.722v-249.596h-148.653c0 0 1.925 422.86 0 461.259h148.653v-72.373c8.794 31.633 56.299 76.848 132.109 76.848 94.071 0 167.957-66.391 167.957-209.217v-256.516z" />
<glyph unicode="&#xe949;" glyph-name="location" d="M224 522.667c0 159.058 128.942 288 288 288s288-128.942 288-288c0-59.465-11.034-102.502-30.622-141.679-20.113-40.226-49.749-77.585-89.963-125.837l-0.405-0.495-167.010-208.764-167.417 209.259c-40.579 48.695-70.011 84.284-90.066 123.678-19.401 38.11-30.517 81.011-30.517 143.838zM512 874.667c-194.404 0-352-157.596-352-352 0-71.458 12.883-124.553 37.483-172.873 23.676-46.507 57.737-87.377 96.607-134.020l1.123-1.348 191.798-239.748h49.98l191.799 239.748c39.701 47.65 73.984 90.244 97.835 137.941 24.41 48.832 37.376 101.798 37.376 170.3 0 194.404-157.598 352-352 352zM416 522.667c0 53.019 42.982 96 96 96s96-42.981 96-96c0-53.018-42.982-96-96-96s-96 42.982-96 96zM512 682.667c-88.366 0-160-71.634-160-160 0-88.367 71.634-160 160-160s160 71.633 160 160c0 88.366-71.633 160-160 160z" />
<glyph unicode="&#xe94a;" glyph-name="locked" d="M384 618.667v-64h256v64c0 70.692-57.306 128-128 128-70.69 0-128-57.308-128-128zM320 554.667v64c0 106.039 85.961 192 192 192s192-85.961 192-192v-64h96.004l32-32v-448l-32-32h-576.004l-32 32 0.004 448 32 32h95.997zM704 490.667h-447.997l-0.003-384h512.004v384h-64.004z" />
<glyph unicode="&#xe94b;" glyph-name="log-in" d="M448 810.665v-95.998h-64v127.998l32 32 448 0.002 32-32v-832l-32-32h-448l-32 32v128h64v-96h384v768l-384-0.002zM594.743 394.667h-530.743v64h530.748l-137.374 137.373 45.252 45.255 192-192.001v-45.252l-192-192-45.252 45.252 137.37 137.374z" />
<glyph unicode="&#xe94c;" glyph-name="log-out" d="M576 810.665v-95.998h64v127.998l-32 32-448 0.002-32-32v-832l32-32h448l32 32v128h-64v-96h-384v768l384-0.002zM850.743 394.667h-466.743v64h466.747l-137.374 137.373 45.252 45.255 192-192.001v-45.252l-191.996-192-45.257 45.252 137.37 137.374z" />
<glyph unicode="&#xe94d;" glyph-name="mail-add" d="M96 746.667h832l32-32v-288h-64v223.012l-364.489-280.378h-39.023l-364.489 280.378v-479.012h448v-64h-480l-32 32v576l32 32zM833.916 682.667h-643.832l321.916-247.629 321.916 247.629zM640 170.667h128v-128h64v128h128v64h-128v128h-64v-128h-128v-64z" />
<glyph unicode="&#xe94e;" glyph-name="mail" d="M96 746.667h832l32-32v-576l-32-32h-832l-32 32v576l32 32zM128 649.679v-479.012h768v479.012l-364.489-280.378h-39.023l-364.489 280.378zM833.916 682.667h-643.832l321.916-247.629 321.916 247.629z" />
<glyph unicode="&#xe94f;" glyph-name="mainnet" d="M647.765 743.45v-45.255l135.765-135.764h45.252l135.765 135.764v45.255l-135.765 135.764h-45.252l-135.765-135.764zM806.157 630.312l-90.509 90.51 90.509 90.51 90.509-90.51-90.509-90.51zM353.609 404.037v45.257l135.764 135.764h45.257l45.252-45.255 112.913 112.911 45.252-45.255-112.909-112.909 45.252-45.257v-45.257l-135.761-135.761h-45.257l-135.764 135.761zM421.492 426.667l90.508-90.513 90.513 90.513-90.513 90.508-90.508-90.508zM59.453 109.884v45.252l135.764 135.765h45.255l45.255-45.257 112.911 112.913 45.257-45.257-112.913-112.909 45.254-45.257v-45.252l-135.764-135.765h-45.255l-135.764 135.765zM127.335 132.51l90.51-90.509 90.51 90.509-90.51 90.509-90.51-90.509z" />
<glyph unicode="&#xe950;" glyph-name="maximize" d="M63.999 842.667l32 32h223.995v-64h-146.74l201.373-201.373-45.255-45.255-201.374 201.374-0.001-146.746h-64l0.002 224zM850.743 42.667h-146.743v-64h223.996l32 32 0.004 224h-64l-0.004-146.743-201.37 201.37-45.257-45.252 201.374-201.374zM127.999 87.924l201.372 201.37 45.255-45.252-201.373-201.374h146.744v-64h-223.998l-32 32v224h64v-146.743zM896 765.413l-201.374-201.374-45.257 45.255 201.374 201.372h-146.739v64h223.991l32-32 0.004-224h-64v146.747z" />
<glyph unicode="&#xe951;" glyph-name="medium" d="M326.386 167.723c133.129 0 241.055 109.781 241.055 245.21 0 135.424-107.925 245.208-241.055 245.208s-241.053-109.784-241.053-245.208c0-135.428 107.923-245.21 241.053-245.21zM710.144 179.495c66.569 0 120.529 104.294 120.529 232.947s-53.961 232.948-120.529 232.948c-66.564 0-120.525-104.295-120.525-232.948s53.961-232.947 120.525-232.947zM938.671 411.951c0-114.842-18.995-207.94-42.423-207.94-23.433 0-42.428 93.099-42.428 207.94 0 114.839 18.995 207.936 42.428 207.936 23.428 0 42.423-93.097 42.423-207.936z" />
<glyph unicode="&#xe952;" glyph-name="menu-big" d="M128 682.667h768v64h-768v-64zM896 426.667h-768v64h768v-64zM896 170.667h-768v64h768v-64z" />
<glyph unicode="&#xe953;" glyph-name="moon" d="M374.177 715.557c-107.75-51.499-182.177-161.53-182.177-288.89 0-176.734 143.269-320 320-320 89.506 0 170.449 36.736 228.557 96.021-1.519-0.017-3.038-0.026-4.557-0.026-212.079 0-384 171.925-384 384.001 0 45.188 7.817 88.588 22.177 128.893zM128 426.667c0 183.526 128.718 336.914 300.774 374.948l34.189-47.97c-29.786-48.588-46.963-105.73-46.963-166.982 0-176.73 143.27-320.001 320-320.001 23.868 0 47.091 2.607 69.41 7.543l34.189-47.97c-67.456-110.042-188.928-183.569-327.599-183.569-212.077 0-384 171.921-384 384z" />
<glyph unicode="&#xe954;" glyph-name="notification" d="M768.004 586.667v-70.2c0-50.862 17.31-100.215 49.084-139.933l71.902-89.877 7.014-19.989v-128l-32-32h-195.2c-14.827-73.033-79.394-128-156.8-128-77.41 0-141.976 54.967-156.801 128h-195.201l-32 32v128l7.012 19.989 71.902 89.877c31.775 39.718 49.085 89.071 49.085 139.933v70.2c0 121.134 84.134 222.618 197.156 249.204 9.783 22.815 32.448 38.796 58.846 38.796 26.394 0 49.058-15.981 58.846-38.796 113.020-26.586 197.154-128.070 197.154-249.204zM602.539 106.667h-181.073c13.18-37.286 48.739-64 90.539-64 41.796 0 77.359 26.714 90.534 64zM512.004 778.667c-106.040 0-192.002-85.961-192.002-192v-70.2c0-65.399-22.257-128.844-63.11-179.912l-64.89-81.114v-84.774h640.002v84.774l-64.892 81.114c-40.853 51.068-63.108 114.517-63.108 179.912v70.2c0 106.039-85.965 192-192 192z" />
<glyph unicode="&#xe955;" glyph-name="options-horizontal" d="M320 426.667c0 35.345-28.654 64-64 64s-64-28.655-64-64c0-35.345 28.654-64 64-64s64 28.655 64 64zM576 426.667c0 35.345-28.655 64-64 64s-64-28.655-64-64c0-35.345 28.655-64 64-64s64 28.655 64 64zM768 490.667c35.345 0 64-28.655 64-64s-28.655-64-64-64c-35.345 0-64 28.655-64 64s28.655 64 64 64z" />
<glyph unicode="&#xe956;" glyph-name="options-vertical" d="M512 618.667c35.345 0 64 28.654 64 64s-28.655 64-64 64c-35.345 0-64-28.654-64-64s28.655-64 64-64zM512 362.667c35.345 0 64 28.655 64 64s-28.655 64-64 64c-35.345 0-64-28.655-64-64s28.655-64 64-64zM576 170.667c0-35.345-28.655-64-64-64s-64 28.655-64 64c0 35.345 28.655 64 64 64s64-28.655 64-64z" />
<glyph unicode="&#xe957;" glyph-name="phone" d="M128.005 778.667l32 32h224l29.711-20.116 64.001-160-11.964-38.511-80.701-53.799c6.071-48.752 38.043-105.418 85.574-152.948s104.196-79.501 152.951-85.577l53.798 80.7 38.511 11.964 160.004-64 20.113-29.713-0.004-224-32-32c-230.016 0-415.078 65.826-542.626 193.374-127.546 127.543-193.371 312.608-193.369 542.627zM192.461 746.667c5.822-202.377 67.283-358.485 174.168-465.374 106.886-106.884 262.994-168.346 465.371-174.17l0.004 169.877-115.78 46.31-49.596-74.394-26.628-14.251c-75.934 0-155.605 46.349-214.629 105.374-59.023 59.021-105.372 138.697-105.37 214.627l14.25 26.625 74.399 49.597-46.31 115.776h-169.879z" />
<glyph unicode="&#xe958;" glyph-name="pin" d="M886.899 550.509l32.862-32.861 45.257 45.255-316.783 316.785-45.257-45.255 32.862-32.864-370.781-308.986-47.219 47.22-45.255-45.254 181.017-181.018-294.155-294.157 45.255-45.252 294.155 294.153 181.021-181.022 45.257 45.257-47.219 47.215 308.983 370.784zM841.459 595.95l-308.983-370.781-221.975 221.973 370.784 308.985 160.175-160.177z" />
<glyph unicode="&#xe959;" glyph-name="play" d="M304.687 47.36l-48.687 27.302v704.001l48.687 27.305 576-352v-54.609l-576-352zM320 131.721l482.633 294.942-482.633 294.944v-589.885z" />
<glyph unicode="&#xe95a;" glyph-name="press" d="M256 842.667l32 32h576l32-32v-736c0-70.694-57.306-128-128-128h-512c-70.692 0-128 57.306-128 128v96l32 32h96v608zM320 234.667h352l32-32v-96c0-35.345 28.655-64 64-64s64 28.655 64 64v704h-512v-576zM657.126 42.667c-10.893 18.829-17.126 40.687-17.126 64v64h-448v-64c0-35.345 28.654-64 64-64h401.126zM768 618.667h-384v64h384v-64zM384 426.667h384v64h-384v-64z" />
<glyph unicode="&#xe95b;" glyph-name="qr-code" d="M63.999 10.667v160h64v-128l127.999 0.004 0.002-64-160-0.004-32.001 32zM768.004-21.333h160l32 32-0.004 160h-64v-128h-127.996v-64zM640 106.667h128v128h64v128h-64v-128h-64v128h-128v-64h64v-64h-64v-64h64v-64zM640 170.667v64h64v-64h-64zM768.004 874.667h160l32-32-0.004-160-64 0.002v127.999h-127.996v64zM63.999 842.668v-160h64v128l127.999-0.003 0.002 64-160 0.004-32.001-32zM223.999 746.667h-32v-256h256.001v256h-224.001zM255.999 554.667v128h128v-128h-128zM576 746.667h256v-256h-256v256zM640 682.667v-128h128v128h-128zM223.999 362.667h-32v-256h256.001v256h-224.001zM383.999 170.667h-128v128h128v-128z" />
<glyph unicode="&#xe95c;" glyph-name="quote" d="M128 138.667h294.575l84.164 576h-220.931l-157.808-576zM517.261 138.667h294.575l84.164 576h-220.932l-157.807-576z" />
<glyph unicode="&#xe95d;" glyph-name="recently-viewed" d="M744.708 43.849c-90.991-55.313-198.711-76.407-303.846-59.494-105.135 16.909-200.809 70.711-269.869 151.77-69.060 81.054-106.991 184.060-106.991 290.543h64c0-91.273 32.512-179.563 91.706-249.037 59.194-69.478 141.201-115.597 231.316-130.091s182.447 3.588 260.442 50.995c77.995 47.411 136.55 121.054 165.171 207.727 28.621 86.669 25.429 180.702-8.994 265.233-34.423 84.533-97.835 154.040-178.859 196.060-81.028 42.019-174.37 53.804-263.297 33.24-77.43-17.905-147.102-59.315-199.703-118.127h158.217v-64h-224l-32 32v224h64v-134.464c59.505 60.732 135.404 103.599 219.066 122.946 103.747 23.991 212.65 10.243 307.178-38.78 94.532-49.023 168.512-130.115 208.67-228.736 40.162-98.621 43.883-208.326 10.492-309.442s-101.705-187.029-192.7-242.342zM649.374 244.041l-160 160-9.37 22.626v288.001h64v-274.744l150.626-150.626-45.257-45.257z" />
<glyph unicode="&#xe95e;" glyph-name="reddit" d="M921.6 476.877c0 49.801-40.687 90.283-90.692 90.283-24.405 0-46.524-9.762-62.805-25.463-61.781 40.653-145.374 66.526-237.943 69.837l50.62 159.369 137.079-32.119-0.205-1.98c0-40.721 33.28-73.83 74.206-73.83 40.892 0 74.138 33.109 74.138 73.83s-33.28 73.865-74.138 73.865c-31.403 0-58.163-19.593-68.983-47.070l-147.763 34.645c-6.451 1.57-13.005-2.15-15.019-8.499l-56.457-177.732c-96.87-1.161-184.626-27.238-249.172-69.12-16.179 14.95-37.649 24.303-61.406 24.303-50.005 0-90.658-40.516-90.658-90.317 0-33.109 18.193-61.815 44.954-77.517-1.775-9.626-2.935-19.354-2.935-29.252 0-133.495 164.113-242.108 365.874-242.108s365.909 108.612 365.909 242.108c0 9.353-0.99 18.569-2.56 27.648 28.399 15.258 47.957 44.783 47.957 79.121zM333.688 414.891c0 29.628 24.235 53.76 53.999 53.76s53.964-24.132 53.964-53.76c0-29.628-24.2-53.726-53.964-53.726s-53.999 24.098-53.999 53.726zM642.97 255.522c-27.204-27.068-69.905-40.243-130.526-40.243l-0.444 0.102-0.444-0.102c-60.655 0-103.355 13.175-130.525 40.243-4.949 4.915-4.949 12.937 0 17.852 4.949 4.949 13.005 4.949 17.954 0 22.187-22.084 59.016-32.802 112.571-32.802l0.444-0.102 0.444 0.102c53.555 0 90.385 10.752 112.572 32.836 4.949 4.949 13.005 4.915 17.954 0 4.949-4.949 4.949-12.937 0-17.886zM636.518 361.165c-29.764 0-53.965 24.098-53.965 53.726s24.201 53.76 53.965 53.76c29.764 0 53.965-24.132 53.965-53.76s-24.201-53.726-53.965-53.726z" />
<glyph unicode="&#xe95f;" glyph-name="report" d="M64 650.667c0 88.366 71.634 160 160 160h576c88.367 0 160-71.634 160-160v-320c0-88.367-71.633-160-160-160h-65.907l-166.165-181.602-23.607-10.398h-0.32l-32 32v160h-288c-88.366 0-160 71.633-160 160v320zM224 746.667c-53.019 0-96-42.981-96-96v-320c0-53.018 42.981-96 96-96h320l32-32v-109.973l120.393 131.575 23.607 10.398h80c53.018 0 96 42.982 96 96v320c0 53.019-42.982 96-96 96h-576zM480.004 298.667v64h64v-64h-64zM544 682.667v-256h-64v256h64z" />
<glyph unicode="&#xe960;" glyph-name="roadmap" d="M703.996 682.667c0 35.346 28.655 64 64 64s64-28.654 64-64c0-35.346-28.655-64-64-64s-64 28.654-64 64zM767.996 810.667c-59.644 0-109.76-40.793-123.968-96h-264.066c-14.209 55.207-64.324 96-123.967 96-70.693 0-128-57.308-128-128s57.307-128 128-128c59.643 0 109.758 40.793 123.967 96h264.066c3.021-11.746 7.671-22.839 13.692-33.025l-336.699-336.698c-19.057 11.26-41.286 17.724-65.025 17.724-70.693 0-128-57.306-128-128s57.307-128 128-128c59.643 0 109.758 40.794 123.967 96h260.038v-64l32-32h192l32 32v192l-32 32h-192l-32-32v-64h-260.038c-3.023 11.742-7.67 22.835-13.688 33.020l336.702 336.701c19.055-11.26 41.28-17.721 65.020-17.721 70.69 0 128 57.308 128 128s-57.31 128-128 128zM191.995 170.667c0 35.345 28.654 64 64 64s64-28.655 64-64c0-35.345-28.654-64-64-64s-64 28.655-64 64zM832 106.667h-128v128h128v-128zM191.995 682.667c0 35.346 28.654 64 64 64s64-28.654 64-64c0-35.346-28.654-64-64-64s-64 28.654-64 64z" />
<glyph unicode="&#xe961;" glyph-name="sad-face" d="M127.997 426.667c0 212.077 171.923 384 383.998 384 212.079 0 384-171.923 384-384 0-212.079-171.921-384-384-384-212.076 0-383.998 171.921-383.998 384zM511.996 874.667c-247.422 0-447.998-200.576-447.998-448s200.576-448 447.998-448c247.424 0 448 200.576 448 448s-200.576 448-448 448zM678.276 202.667c-16.836 29.158-41.041 53.376-70.191 70.225-29.15 16.853-62.217 25.741-95.885 25.775-33.673 0.034-66.756-8.785-95.942-25.574-29.184-16.785-53.441-40.956-70.336-70.076l-55.359 32.115c22.528 38.831 54.87 71.053 93.782 93.44 38.913 22.383 83.029 34.142 127.919 34.095 44.894-0.047 88.981-11.9 127.851-34.364 38.865-22.468 71.138-54.758 93.585-93.636l-55.424-32zM415.997 586.667v-128h-64v128h64zM671.996 458.667v128h-64v-128h64z" />
<glyph unicode="&#xe962;" glyph-name="safe" d="M96 810.667l-32-32v-704l32-32h160v-64h128v64h256v-64h128v64h160l32 32v704l-32 32h-832zM128 106.667v640h768v-640h-768zM544 583.467v67.2h-64v-67.2c-20.429-4.147-39.441-12.185-56.236-23.308l-47.528 47.529-45.255-45.255 47.528-47.528c-11.123-16.792-19.162-35.808-23.308-56.237h-67.201v-64h67.2c4.147-20.429 12.186-39.441 23.309-56.239l-47.528-47.526 45.255-45.257 47.528 47.531c16.795-11.123 35.807-19.162 56.236-23.309v-67.2h64v67.2c20.429 4.147 39.441 12.186 56.235 23.309l47.531-47.526 45.252 45.252-47.526 47.531c11.123 16.794 19.162 35.806 23.309 56.235h67.2v64h-67.2c-4.147 20.429-12.186 39.441-23.309 56.236l47.526 47.528-45.252 45.255-47.531-47.528c-16.794 11.123-35.806 19.162-56.235 23.308zM416 426.667c0 53.018 42.982 96 96 96s96-42.982 96-96c0-53.018-42.982-96-96-96s-96 42.982-96 96z" />
<glyph unicode="&#xe963;" glyph-name="salary" d="M95.997 810.667l-32-32v-448l32-32h831.998l32 32v448l-32 32h-831.998zM127.997 362.667v384h767.998v-384h-767.998zM511.996 618.667c-35.345 0-64-28.654-64-64s28.655-64 64-64c35.349 0 64 28.654 64 64s-28.651 64-64 64zM383.997 554.667c0 70.692 57.308 128 127.998 128 70.694 0 128-57.308 128-128 0-70.694-57.306-128-128-128-70.69 0-127.998 57.306-127.998 128zM287.997 586.667v-64h-64v64h64zM959.996 170.667v64h-895.998v-64h895.998zM959.996 42.667v64h-895.998v-64h895.998zM799.996 586.667h-64v-64h64v64z" />
<glyph unicode="&#xe964;" glyph-name="scroll-down" d="M512 874.667c-176.731 0-320-143.269-320-320v-256c0-165.931 126.294-302.366 288-318.421v-1.579h32c176.73 0 320 143.27 320 320v256c0 176.731-143.27 320-320 320zM768 298.667c0-141.385-114.615-256-256-256s-256 114.615-256 256v256c0 141.385 114.615 256 256 256s256-114.615 256-256v-256zM480 682.667v-128h64v128h-64zM480 490.667v-242.748l-73.373 73.374-45.255-45.252 127.998-128h45.257l128 128-45.257 45.252-73.37-73.37v242.743h-64z" />
<glyph unicode="&#xe965;" glyph-name="search" d="M128 554.667c0 141.385 114.615 256 256 256s256-114.615 256-256c0-141.385-114.615-256-256-256s-256 114.615-256 256zM384 874.667c-176.731 0-320-143.269-320-320s143.269-320 320-320c76.843 0 147.358 27.085 202.522 72.226l286.852-286.852 45.257 45.252-286.857 286.857c45.141 55.164 72.226 125.679 72.226 202.517 0 176.731-143.27 320-320 320z" />
<glyph unicode="&#xe966;" glyph-name="security" d="M520.708 873.459l352-99.555 23.292-30.793v-284.444c0-188.467-94.865-309.018-188.433-381.321-46.566-35.985-92.971-60.22-127.693-75.477-17.404-7.646-31.983-13.086-42.334-16.649-5.18-1.783-9.314-3.098-12.22-3.989-1.455-0.444-2.607-0.785-3.43-1.024l-0.986-0.282-0.307-0.085-0.107-0.026-0.038-0.013c-0.017-0.004-0.034-0.009-8.452 30.865l8.418-30.874h-16.836l8.418 30.874c-8.418-30.874-8.435-30.869-8.452-30.865l-0.038 0.013-0.107 0.026-1.293 0.367c-0.823 0.239-1.971 0.58-3.426 1.024-2.91 0.892-7.044 2.206-12.224 3.989-10.351 3.563-24.93 9.003-42.334 16.649-34.72 15.258-81.128 39.492-127.692 75.477-93.568 72.303-188.434 192.853-188.434 381.321v284.444l23.291 30.793 352 99.555h17.417zM480 56.137v744.224l-288-81.455v-260.239c0-163.533 81.135-266.982 163.567-330.679 41.436-32.017 83.030-53.781 114.304-67.524 3.52-1.545 6.899-2.987 10.129-4.326zM554.129 60.463c31.275 13.743 72.87 35.507 114.304 67.524 82.432 63.697 163.567 167.147 163.567 330.679v260.239l-288 81.455v-744.224c3.23 1.34 6.609 2.782 10.129 4.326z" />
<glyph unicode="&#xe967;" glyph-name="settings" d="M800 682.667h160v-64h-160v64zM64 682.667h480v-64h-480v64zM224 170.667h-160v64h160v-64zM960 170.667h-480v64h480v-64zM672 746.667c-53.018 0-96-42.981-96-96s42.982-96 96-96c53.018 0 96 42.981 96 96s-42.982 96-96 96zM512 650.667c0 88.366 71.633 160 160 160s160-71.634 160-160c0-88.366-71.633-160-160-160s-160 71.634-160 160zM352 298.667c-53.019 0-96-42.982-96-96s42.981-96 96-96c53.019 0 96 42.982 96 96s-42.981 96-96 96zM192 202.667c0 88.367 71.634 160 160 160 88.367 0 160-71.633 160-160s-71.633-160-160-160c-88.366 0-160 71.633-160 160z" />
<glyph unicode="&#xe968;" glyph-name="share" d="M768 241.92c-32.427 0-61.44-12.8-83.627-32.853l-304.213 177.067c2.133 9.813 3.84 19.627 3.84 29.867s-1.707 20.053-3.84 29.867l300.8 175.36c23.040-21.333 53.333-34.56 87.040-34.56 70.827 0 128 57.173 128 128s-57.173 128-128 128c-70.827 0-128-57.173-128-128 0-10.24 1.707-20.053 3.84-29.867l-300.8-175.36c-23.040 21.333-53.333 34.56-87.040 34.56-70.827 0-128-57.173-128-128s57.173-128 128-128c33.707 0 64 13.227 87.040 34.56l303.787-177.493c-2.133-8.96-3.413-18.347-3.413-27.733 0-68.693 55.893-124.587 124.587-124.587s124.587 55.893 124.587 124.587c0 68.693-55.893 124.587-124.587 124.587z" />
<glyph unicode="&#xe969;" glyph-name="smart-contract" d="M192 842.667l32 32h576l32-32v-416h-64v384h-512v-704h256v-64h-288l-32 32v768zM704 618.667h-384v64h384v-64zM320 490.667h384v64h-384v-64zM576 362.667h-256v64h256v-64zM665.805 202.667l73.173 157.483h58.044l73.173-157.483h89.805v-64h-60.066l57.088-122.859 2.978-13.483v-23.659h-64v16.585l-128 275.477-128-275.477v-16.585h-64v23.659l2.978 13.483 57.088 122.859h-60.066v64h89.805z" />
<glyph unicode="&#xe96a;" glyph-name="sort-ascending" d="M735.996 151.928v658.739h64v-658.748l137.378 137.374 45.252-45.252-192-192h-45.252l-192 192 45.252 45.252 137.37-137.365zM512 682.667h-192v64h192v-64zM512 490.667h-320v64h320v-64zM64 298.667h448v64h-448v-64z" />
<glyph unicode="&#xe96b;" glyph-name="sort-descending" d="M735.996 151.928v658.739h64v-658.752l137.378 137.378 45.252-45.252-192-192h-45.252l-192 192 45.252 45.252 137.37-137.365zM64 682.667h448v64h-448v-64zM512 490.667h-320v64h320v-64zM512 298.667h-192v64h192v-64z" />
<glyph unicode="&#xe96c;" glyph-name="staking" d="M256 714.667c0 0 0 0 0 0h0.004v-0.428c0.123-7.198 3.381-16.378 13.809-27.335 10.793-11.34 27.922-23.009 51.537-33.504 47.149-20.955 114.529-34.732 190.65-34.732s143.501 13.777 190.652 34.732c23.612 10.496 40.742 22.164 51.537 33.504 10.633 11.176 13.811 20.502 13.811 27.763s-3.179 16.588-13.811 27.763c-10.795 11.34-27.925 23.009-51.537 33.504-47.151 20.955-114.53 34.732-190.652 34.732s-143.502-13.777-190.65-34.732c-23.615-10.496-40.744-22.164-51.537-33.504-10.636-11.176-13.813-20.502-13.813-27.763zM192.004 713.848c-0.003 0.273-0.004 0.546-0.004 0.819 0 28.085 12.94 52.432 31.452 71.884 18.355 19.287 43.402 35.2 71.905 47.868 57.087 25.372 133.708 40.248 216.643 40.248s159.556-14.877 216.644-40.248c28.501-12.668 53.551-28.581 71.902-47.868 18.513-19.452 31.454-43.798 31.454-71.884v-576c0-28.083-12.941-52.433-31.454-71.885-18.351-19.285-43.401-35.2-71.902-47.868-57.088-25.37-133.709-40.247-216.644-40.247s-159.556 14.878-216.643 40.247c-28.503 12.668-53.551 28.582-71.905 47.868-18.511 19.452-31.452 43.802-31.452 71.885l0.001 191.526-0.001 0.474v32h0.001l0.001 159.332-0.003 0.668v31.999h0.003l0.001 159.182zM256.003 616.102v-93.784c0.101-7.21 3.345-16.414 13.81-27.414 10.793-11.341 27.922-23.010 51.537-33.506 47.149-20.954 114.529-34.731 190.65-34.731s143.501 13.777 190.652 34.731c23.612 10.496 40.742 22.165 51.537 33.506 10.633 11.174 13.811 20.502 13.811 27.763v93.437c-12.015-7.867-25.263-14.924-39.356-21.189-57.088-25.372-133.709-40.248-216.644-40.248s-159.556 14.877-216.643 40.248c-14.093 6.264-27.342 13.321-39.354 21.187zM256 330.667l0.001-0.247c0.071-7.223 3.296-16.465 13.812-27.516 10.793-11.341 27.922-23.010 51.537-33.506 47.149-20.954 114.529-34.731 190.65-34.731s143.501 13.777 190.652 34.731c23.612 10.496 40.742 22.165 51.537 33.506 10.633 11.174 13.811 20.501 13.811 27.763v93.436c-12.015-7.863-25.263-14.925-39.356-21.188-57.088-25.37-133.709-40.247-216.644-40.247s-159.556 14.878-216.643 40.247c-14.094 6.263-27.343 13.321-39.355 21.188l-0.002-93.436zM728.644 210.914c-57.088-25.37-133.709-40.247-216.644-40.247s-159.556 14.878-216.643 40.247c-14.095 6.263-27.343 13.321-39.357 21.188v-93.436c0-7.262 3.177-16.589 13.813-27.763 10.793-11.341 27.922-23.010 51.537-33.506 47.149-20.954 114.529-34.731 190.65-34.731s143.501 13.777 190.652 34.731c23.612 10.496 40.742 22.165 51.537 33.506 10.633 11.174 13.811 20.501 13.811 27.763v93.436c-12.015-7.863-25.263-14.925-39.356-21.188z" />
<glyph unicode="&#xe96d;" glyph-name="success" d="M128 426.667c0 212.077 171.923 384 384 384 212.079 0 384-171.923 384-384 0-212.079-171.921-384-384-384-212.077 0-384 171.921-384 384zM512 874.667c-247.424 0-448-200.576-448-448s200.576-448 448-448c247.424 0 448 200.576 448 448s-200.576 448-448 448zM456.252 212.561l366.886 384-46.276 44.212-343.744-359.783-153.981 161.161-46.275-44.211 177.116-185.378h46.273z" />
<glyph unicode="&#xe96e;" glyph-name="sum" d="M448 394.667l-32 32v448h64v-416h434.743l-169.37 169.373 45.252 45.255 224-224.001v-45.252l-224-224-45.252 45.252 169.37 169.374h-466.743z" />
<glyph unicode="&#xe96f;" glyph-name="swap-vertical" d="M264.326 800.197l-160-176 47.356-43.051 104.318 114.75v-589.225h64v589.233l104.326-114.758 47.354 43.051-159.998 176h-47.356zM704.004 157.44v589.231h64v-589.227l104.32 114.752 47.356-43.051-160-176h-47.356l-160 176 47.356 43.051 104.324-114.756z" />
<glyph unicode="&#xe970;" glyph-name="swap" d="M314.475 386.351l-176-160v-47.356l176-160 43.051 47.356-114.749 104.316 557.224 0.004 32 32v160h-64v-128l-525.233-0.004 114.758 104.329-43.051 47.356zM192 650.669l32 32h557.231l-114.756 104.322 43.051 47.356 176-160v-47.356l-176-160-43.051 47.356 114.756 104.322h-525.231v-127.998h-64v159.998z" />
<glyph unicode="&#xe971;" glyph-name="team" d="M256 618.667c0 70.692 57.308 128 128 128 70.694 0 128-57.308 128-128s-57.306-128-128-128c-70.692 0-128 57.307-128 128zM523.264 486.494c32.683 34.423 52.736 80.956 52.736 132.173 0 106.039-85.961 192-192 192s-192-85.961-192-192c0-51.217 20.054-97.749 52.737-132.173-103.009-20.16-180.737-110.916-180.737-219.827v-224h64v224c0 88.367 71.634 160 160 160h192c88.367 0 160-71.633 160-160v-224h64v224c0 50.295-16.576 96.721-44.565 134.106 17.758 16.61 41.19 25.894 65.583 25.894h74.982c53.018 0 96-42.982 96-96v-160h64v160c0 63.872-37.427 119.006-91.55 144.661 17.25 21.811 27.55 49.371 27.55 79.339 0 70.692-57.306 128-128 128s-128-57.308-128-128c0-28.35 9.216-54.545 24.815-75.759-18.65-7.573-35.87-18.667-50.641-32.858-26.398 19.78-57.31 33.869-90.91 40.444zM704 554.667c0 35.346 28.655 64 64 64s64-28.654 64-64c0-35.346-28.655-64-64-64s-64 28.654-64 64z" />
<glyph unicode="&#xe972;" glyph-name="telegram" d="M177.863 448.884c194.705 84.831 324.537 140.756 389.501 167.776 185.481 77.148 224.021 90.549 249.143 90.992 5.525 0.097 17.877-1.272 25.882-7.765 6.754-5.483 8.614-12.889 9.506-18.088 0.887-5.198 1.997-17.040 1.114-26.292-10.048-105.61-53.542-361.896-75.669-480.18-9.361-50.052-27.797-66.833-45.641-68.476-38.788-3.571-68.241 25.63-105.805 50.257-58.786 38.532-91.994 62.519-149.052 100.122-65.943 43.456-23.198 67.337 14.383 106.372 9.835 10.214 180.727 165.652 184.034 179.753 0.414 1.764 0.798 8.337-3.106 11.808s-9.668 2.284-13.828 1.34c-5.897-1.338-99.802-63.408-281.722-186.207-26.655-18.304-50.799-27.221-72.431-26.756-23.847 0.516-69.719 13.483-103.821 24.572-41.827 13.594-75.070 20.783-72.175 43.874 1.508 12.028 18.070 24.329 49.687 36.898z" />
<glyph unicode="&#xe973;" glyph-name="testnet" d="M640 810.667v-281.245c0-18.953 5.611-37.479 16.124-53.253l232.171-348.25c42.53-63.799-3.204-149.252-79.881-149.252h-592.828c-76.675 0-122.409 85.453-79.877 149.252l232.169 348.25c10.513 15.774 16.123 34.3 16.123 53.253v281.245h-64v64h383.999v-64h-64zM576 810.667h-128v-281.245c0-31.587-9.348-62.469-26.871-88.752l-232.169-348.254c-14.177-21.265 1.067-49.749 26.626-49.749h296.418c0 70.694 57.306 128 128 128 70.69 0 128-57.306 128-128h40.41c25.562 0 40.806 28.484 26.628 49.749l-232.171 348.254c-17.519 26.283-26.871 57.165-26.871 88.752v281.245zM704.004 42.667c0 35.345-28.655 64-64 64-35.349 0-64-28.655-64-64h128zM432 298.667c-26.511 0-48.001-21.491-48.001-48s21.49-48 48.001-48c26.509 0 48 21.491 48 48s-21.491 48-48 48zM319.999 250.667c0 61.854 50.144 112 112.001 112 61.854 0 112-50.146 112-112 0-61.858-50.146-112-112-112-61.857 0-112.001 50.142-112.001 112z" />
<glyph unicode="&#xe974;" glyph-name="timer" d="M640 874.667v-64h-256v64h256zM480 554.667h64v-192l-9.374-22.626-159.999-160-45.255 45.252 150.627 150.63v178.743zM759.962 655.886c-66.901 56.633-153.442 90.781-247.962 90.781-212.077 0-384-171.923-384-384 0-212.079 171.923-384 384-384 212.079 0 384 171.921 384 384 0 94.519-34.15 181.062-90.782 247.964l65.408 65.408-45.252 45.255-65.412-65.409zM192 362.667c0 176.731 143.269 320 320 320s320-143.269 320-320c0-176.73-143.27-320-320-320s-320 143.27-320 320z" />
<glyph unicode="&#xe975;" glyph-name="tokenomics" d="M128 426.667c0 212.077 171.923 384 384 384 212.079 0 384-171.923 384-384 0-212.079-171.921-384-384-384-212.077 0-384 171.921-384 384zM512 874.667c-247.424 0-448-200.576-448-448s200.576-448 448-448c247.424 0 448 200.576 448 448s-200.576 448-448 448zM512 558.727l-141.915-305.419v-18.641h-64v25.715l2.98 13.483 63.889 137.498h-69.647v64h99.385l80.287 172.789h58.039l80.286-172.789h99.392v-64h-69.653l63.889-137.498 2.978-13.483v-25.715h-64v18.641l-141.909 305.419z" />
<glyph unicode="&#xe976;" glyph-name="twitter" d="M810.56 633.396c30.758 19.375 54.315 50.184 65.378 86.816-28.745-18.051-60.561-31.074-94.494-38.114-27.102 30.544-65.796 49.601-108.625 49.601-82.155 0-148.749-70.299-148.749-156.956 0-12.281 1.271-24.298 3.81-35.732-123.659 6.564-233.29 68.976-306.713 163.997-12.811-23.292-20.116-50.237-20.116-78.928 0-54.472 26.256-102.485 66.17-130.698-24.404 0.794-47.325 7.94-67.441 19.638v-1.957c0-76.019 51.296-139.49 119.424-153.835-12.493-3.708-25.621-5.559-39.226-5.559-9.581 0-18.951 0.956-28.003 2.807 18.898-62.362 73.899-107.78 139.011-108.996-50.978-42.086-115.136-67.179-184.8-67.179-12.017 0-23.875 0.691-35.52 2.172 65.853-44.518 144.093-70.511 228.102-70.511 273.786 0 423.383 239.168 423.383 446.571 0 6.829-0.107 13.605-0.371 20.275 29.065 22.127 54.366 49.813 74.219 81.257-26.679-12.44-55.373-20.91-85.44-24.668z" />
<glyph unicode="&#xe977;" glyph-name="unlocked" d="M384 682.667c0 70.692 57.309 128 128 128 70.694 0 128-57.308 128-128h64c0 106.039-85.961 192-192 192s-192-85.961-192-192v-192h-95.996l-32-32-0.004-448 32-32h576.004l32 32v448l-32 32h-416.004v192zM256 42.667l0.003 384h512.001v-384h-512.004z" />
<glyph unicode="&#xe978;" glyph-name="upload" d="M128 778.667l32 32h704l32-32v-192l-32-32h-96v64h64v128h-640v-128h64v-64h-96l-32 32v192zM480 557.41l-169.37-169.369-45.255 45.252 224 224.001h45.257l224-224.001-45.257-45.252-169.374 169.373v-514.747h-64v514.743z" />
<glyph unicode="&#xe979;" glyph-name="use-cases" d="M95.997 874.667l-32-32v-320l32-32h320l31.998 32v320l-31.998 32h-320zM127.997 554.667v256h256v-256h-256zM719.996 789.702l123.115-235.035h-246.225l123.11 235.035zM691.652 873.515l-176-336 28.343-46.848h352l28.348 46.848-176 336h-56.691zM255.997 298.667c-70.692 0-128-57.31-128-128 0-70.694 57.308-128 128-128s128 57.306 128 128c0 70.69-57.308 128-128 128zM63.997 170.667c0 106.039 85.961 192 192 192s191.998-85.961 191.998-192c0-106.039-85.96-192-191.998-192s-192 85.961-192 192zM647.061 42.667l-49.732 149.197 138.667 113.459 138.667-113.459-49.732-149.197h-177.869zM715.733 371.435l-176-144-10.095-34.889 64-192 30.357-21.879h224l30.357 21.879 64 192-10.095 34.889-176 144h-40.525z" />
<glyph unicode="&#xe97a;" glyph-name="user-avatar" d="M512 810.667c-212.077 0-384-171.923-384-384 0-113.728 49.44-215.91 128-286.221v83.554c0 88.926 57.273 164.476 136.945 191.774-25.457 28.335-40.945 65.805-40.945 106.893 0 88.366 71.634 160 160 160s160-71.634 160-160c0-41.088-15.488-78.558-40.943-106.893 79.671-27.298 136.943-102.848 136.943-191.774v-83.554c78.558 70.31 128 172.493 128 286.221 0 212.077-171.921 384-384 384zM512 426.667c53.018 0 96 42.982 96 96s-42.982 96-96 96-96-42.981-96-96c0-53.018 42.982-96 96-96zM512 362.667h-53.333c-76.584 0-138.667-62.084-138.667-138.667v-129.963c56.481-32.67 122.057-51.371 192-51.371s135.518 18.701 192 51.371v129.963c0 76.582-62.084 138.667-138.667 138.667h-53.333zM64 426.667c0 247.424 200.576 448 448 448s448-200.576 448-448c0-247.424-200.576-448-448-448s-448 200.576-448 448z" />
<glyph unicode="&#xe97b;" glyph-name="user" d="M384 618.667c0 70.692 57.306 128 128 128s128-57.308 128-128c0-70.692-57.306-128-128-128s-128 57.308-128 128zM651.264 486.494c32.683 34.423 52.736 80.956 52.736 132.173 0 106.039-85.961 192-192 192s-192-85.961-192-192c0-51.217 20.054-97.749 52.737-132.173-103.009-20.16-180.737-110.916-180.737-219.827v-224h64v224c0 88.367 71.634 160 160 160h192c88.367 0 160-71.633 160-160v-224h64v224c0 108.911-77.726 199.667-180.736 219.827z" />
<glyph unicode="&#xe97c;" glyph-name="wait" d="M224 800.011h576v-64h-42.658v-80.992c0-57.888-24.764-113.024-68.028-151.488l-86.464-76.864 86.464-76.864c43.264-38.464 68.028-93.602 68.028-151.488v-80.994h42.658v-64h-576v64h42.656v80.994c0 57.886 24.768 113.024 68.032 151.488l86.464 76.864-86.464 76.864c-43.264 38.464-68.032 93.6-68.032 151.488v80.992h-42.656v64zM330.656 117.321h362.656v80.994c0 39.616-16.93 77.312-46.528 103.646l-113.374 100.77c-6.818 6.080-10.752 14.784-10.752 23.902 0 9.122 3.904 17.856 10.752 23.906l113.374 100.8c29.598 26.304 46.528 64.032 46.528 103.648v80.992h-362.656v-80.992c0-39.616 16.928-77.312 46.528-103.648l113.376-100.8c6.814-6.080 10.752-14.784 10.752-23.906 0-9.118-3.904-17.856-10.752-23.902l-113.376-100.77c-29.6-26.304-46.528-64.030-46.528-103.646v-80.994z" />
<glyph unicode="&#xe97d;" glyph-name="wallet" d="M64 778.667l32 32h704v-64h-672v-64h800l32-32v-576l-32-32h-832l-32 32v704zM128 618.667v-512h768v512h-768zM576 458.667l32 32h320v-64h-288v-128h288v-64h-320l-32 32v192zM768 330.667h-64v64h64v-64z" />
<glyph unicode="&#xe97e;" glyph-name="warning" d="M80.64 42.667l-27.901 47.671 431.361 767.998h55.799l431.36-767.998-27.9-47.671h-862.72zM135.315 106.667h753.367l-376.683 670.654-376.685-670.654zM480 170.667v64h64v-64h-64zM480 586.667v-288h64v288h-64z" />
<glyph unicode="&#xe97f;" glyph-name="weight" d="M447.996 746.667c0-35.346 28.655-64 64-64 35.349 0 64 28.654 64 64s-28.651 64-64 64c-35.345 0-64-28.654-64-64zM622.874 682.667h177.126l31.454-26.103 107.998-576.001-31.45-37.897h-792.001l-31.452 37.897 108 576.001 31.452 26.103h177.12c-10.891 18.827-17.124 40.686-17.124 64 0 70.692 57.308 128 127.998 128 70.694 0 128-57.308 128-128 0-23.314-6.234-45.173-17.122-64zM511.996 618.667h-261.437l-96-512h714.885l-96 512h-261.449z" />
<glyph unicode="&#xe980;" glyph-name="workspace" d="M160 810.667l-32-32v-224l32-32h224l32 32v224l-32 32h-224zM192 586.667v160h160v-160h-160zM512 810.667l-32-32v-224l32-32h384l32 32v224l-32 32h-384zM544 586.667v160h320v-160h-320zM128 426.667l32 32h384l32-32v-320l-32-32h-384l-32 32v320zM192 394.667v-256h320v256h-320zM672 458.667l-32-32v-320l32-32h224l32 32v320l-32 32h-224zM704 138.667v256h160v-256h-160z" />
<glyph unicode="&#xe981;" glyph-name="youtube" d="M920.836 610.726c-4.864 18.082-14.396 34.569-27.635 47.81s-29.726 22.769-47.808 27.634c-66.547 17.831-333.393 17.831-333.393 17.831s-266.845 0-333.392-17.831c-18.082-4.864-34.569-14.394-47.81-27.634s-22.77-29.728-27.634-47.81c-17.831-66.547-17.831-205.392-17.831-205.392s0-138.846 17.831-205.393c4.864-18.082 14.394-34.569 27.634-47.808s29.728-22.771 47.81-27.635c66.547-17.83 333.392-17.83 333.392-17.83s266.846 0 333.393 17.83c18.082 4.864 34.569 14.396 47.808 27.635s22.771 29.726 27.635 47.808c17.83 66.547 17.83 205.393 17.83 205.393s0 138.845-17.83 205.392zM426.667 277.334v256l221.692-128.004-221.692-127.996z" />
<glyph unicode="&#xe982;" glyph-name="arrow-left-down" d="M287.999 170.667h352.001v64h-274.746l457.377 457.371-45.257 45.255-457.375-457.374v274.746h-64v-351.998l32-32z" />
<glyph unicode="&#xe983;" glyph-name="arrow-right-long" d="M998.63 449.293l-240.004 239.999-45.252-45.255 185.374-185.374h-856.081v-64h856.077l-185.37-185.37 45.252-45.257 240.004 240v45.257z" />
<glyph unicode="&#xe984;" glyph-name="chevron-sort-down" d="M759.689 229.142l-23.676 53.525h-448.001l-23.678-53.525 224-246.4h47.356l224 246.4zM360.349 218.667h303.327l-151.663-166.831-151.664 166.831zM488.337 870.592l-224-246.4 47.356-43.051 200.323 220.354 200.32-220.354 47.356 43.051-224 246.4h-47.356z" />
<glyph unicode="&#xe985;" glyph-name="chevron-sort-up" d="M535.689-17.258l224 246.4-47.356 43.051-200.32-220.356-200.323 220.356-47.356-43.051 224-246.4h47.356zM264.335 624.192l23.678-53.526h448l23.68 53.526-224 246.4h-47.36l-223.998-246.4zM663.676 634.666h-303.325l151.662 166.829 151.663-166.829z" />
<glyph unicode="&#xe986;" glyph-name="completed" d="M512-21.333c-247.424 0-448 200.576-448 448s200.576 448 448 448c247.424 0 448-200.576 448-448s-200.576-448-448-448zM456.252 212.561l366.886 384-46.276 44.212-343.744-359.783-153.981 161.161-46.275-44.211 177.116-185.378h46.273z" />
<glyph unicode="&#xe987;" glyph-name="cookie" d="M736 810.667c-17.673 0-32-14.327-32-32s14.327-32 32-32c17.673 0 32 14.327 32 32s-14.327 32-32 32zM640 778.667c0 53.019 42.982 96 96 96s96-42.981 96-96c0-53.019-42.982-96-96-96s-96 42.981-96 96zM320 522.667c0 17.673 14.327 32 32 32s32-14.327 32-32c0-17.673-14.327-32-32-32s-32 14.327-32 32zM352 618.667c-53.019 0-96-42.981-96-96s42.981-96 96-96 96 42.982 96 96c0 53.019-42.981 96-96 96zM640 330.667c0 17.673 14.327 32 32 32s32-14.327 32-32c0-17.673-14.327-32-32-32s-32 14.327-32 32zM672 426.667c-53.018 0-96-42.982-96-96s42.982-96 96-96c53.018 0 96 42.982 96 96s-42.982 96-96 96zM896 682.667c-35.345 0-64-28.654-64-64s28.655-64 64-64c35.345 0 64 28.654 64 64s-28.655 64-64 64zM320 234.667c0 35.345 28.654 64 64 64s64-28.655 64-64c0-35.345-28.654-64-64-64s-64 28.655-64 64zM128 426.671c0 188.995 136.553 346.123 316.361 378.067-4.787-101.472 29.060-185.074 89.839-241.645 59.814-55.68 142.652-82.308 232.175-76.501 2.94-39.569 20.497-71.962 46.733-94.289 21.961-18.692 49.293-29.679 77.158-32.137-31.484-180.365-188.873-317.495-378.266-317.495-212.077 0-384 171.925-384 384zM477.572 873.368c-231.353-17.6-413.572-210.852-413.572-446.697 0-247.424 200.576-448 448-448 235.844 0 429.094 182.221 446.694 413.572l-39.812 33.438c-21.269-5.423-46.302 0.043-64.294 15.356-16.815 14.315-29.278 38.848-23.023 76.369l-36.826 36.826c-87.829-14.639-165.333 7.674-216.939 55.707-51.166 47.628-80.875 124.283-66.125 226.971l-34.103 36.457z" />
<glyph unicode="&#xe988;" glyph-name="danger" d="M277.589 797.249c5.735 9.831 16.259 15.876 27.641 15.876h413.537c11.383 0 21.909-6.045 27.644-15.876l206.767-354.463c5.811-9.963 5.811-22.285 0-32.247l-206.767-354.462c-5.734-9.83-16.26-15.876-27.644-15.876h-413.537c-11.381 0-21.906 6.046-27.641 15.876l-206.769 354.462c-5.812 9.963-5.812 22.285 0 32.247l206.769 354.463zM323.61 749.125l-188.102-322.463 188.102-322.462h376.78l188.1 322.462-188.1 322.463h-376.78zM480 234.663v64h64v-64h-64zM479.996 618.664v-256.002h64v256.002h-64z" />
<glyph unicode="&#xe989;" glyph-name="dao" d="M512 490.667c-35.345 0-64-28.655-64-64s28.655-64 64-64c35.345 0 64 28.655 64 64s-28.655 64-64 64zM384 426.667c0 70.694 57.306 128 128 128s128-57.306 128-128c0-70.694-57.306-128-128-128s-128 57.306-128 128zM160 615.616v-377.881l352-190.665 352 190.665v377.881l-352 190.667-352-190.667zM112.759 662.813l384 208h30.481l384-208 16.759-28.137v-416l-16.759-28.139-384-208h-30.481l-384 208-16.759 28.139v416l16.759 28.137zM480 842.667h64v-312h-64v312zM480 322.667h64v-312h-64v312zM880.759 190.537l-288 156.002 30.481 56.273 288-155.998-30.481-56.277zM400.757 450.539l-288 155.999 30.482 56.275 288.001-156.001-30.483-56.273zM434.615 343.885l-290.755-154.94-30.098 56.478 290.754 154.944 30.1-56.482zM910.242 607.927l-290.752-154.943-30.101 56.482 290.756 154.942 30.097-56.481z" />
<glyph unicode="&#xe98a;" glyph-name="defi" d="M469.751 712.044l-180-119.999-35.5 53.252 180.002 119.998 35.499-53.251zM566.251 704.044l35.499 53.251 144-95.998-35.499-53.251-144 95.998zM280.46 334.644l144 80 31.079-55.945-143.999-80-31.081 55.945zM266.249 200.047l35.501 53.248 179.999-120-35.503-53.252-179.997 120.004zM599.539 414.644l144-80-31.083-55.945-143.996 80 31.078 55.945zM768 506.671h64v-160h-64v160zM224 618.667c-17.673 0-32-14.327-32-32s14.327-32 32-32c17.673 0 32 14.327 32 32s-14.327 32-32 32zM128 586.667c0 53.019 42.981 96 96 96s96-42.981 96-96c0-53.019-42.981-96-96-96s-96 42.981-96 96zM512 810.667c-17.673 0-32-14.327-32-32s14.327-32 32-32c17.673 0 32 14.327 32 32s-14.327 32-32 32zM416 778.667c0 53.019 42.982 96 96 96s96-42.981 96-96c0-53.019-42.982-96-96-96s-96 42.981-96 96zM800 618.667c-17.673 0-32-14.327-32-32s14.327-32 32-32c17.673 0 32 14.327 32 32s-14.327 32-32 32zM704 586.667c0 53.019 42.982 96 96 96s96-42.981 96-96c0-53.019-42.982-96-96-96s-96 42.981-96 96zM800 298.667c-17.673 0-32-14.327-32-32s14.327-32 32-32c17.673 0 32 14.327 32 32s-14.327 32-32 32zM704 266.667c0 53.018 42.982 96 96 96s96-42.982 96-96c0-53.018-42.982-96-96-96s-96 42.982-96 96zM512 458.667c-17.673 0-32-14.327-32-32s14.327-32 32-32c17.673 0 32 14.327 32 32s-14.327 32-32 32zM416 426.667c0 53.018 42.982 96 96 96s96-42.982 96-96c0-53.018-42.982-96-96-96s-96 42.982-96 96zM224 298.667c-17.673 0-32-14.327-32-32s14.327-32 32-32c17.673 0 32 14.327 32 32s-14.327 32-32 32zM128 266.667c0 53.018 42.981 96 96 96s96-42.982 96-96c0-53.018-42.981-96-96-96s-96 42.982-96 96zM512 106.667c-17.673 0-32-14.327-32-32s14.327-32 32-32c17.673 0 32 14.327 32 32s-14.327 32-32 32zM416 74.667c0 53.018 42.982 96 96 96s96-42.982 96-96c0-53.018-42.982-96-96-96s-96 42.982-96 96z" />
<glyph unicode="&#xe98b;" glyph-name="dot" d="M640 426.667c0-70.694-57.306-128-128-128s-128 57.306-128 128c0 70.694 57.306 128 128 128s128-57.306 128-128z" />
<glyph unicode="&#xe98c;" glyph-name="dot-big" d="M832 426.667c0-176.73-143.27-320-320-320s-320 143.27-320 320c0 176.731 143.269 320 320 320s320-143.269 320-320z" />
<glyph unicode="&#xe98d;" glyph-name="dot-wide" d="M320 554.667h384c70.692 0 128-57.308 128-128s-57.308-128-128-128h-384c-70.692 0-128 57.308-128 128s57.308 128 128 128z" />
<glyph unicode="&#xe98e;" glyph-name="education" d="M800 874.667h-512c-53.019 0-96-42.981-96-96v-704c0-53.018 42.98-96 96-96h544v64h-64v64h32l32 32v704l-32 32zM704 106.667v-64h-416c-17.673 0-32 14.327-32 32s14.327 32 32 32h416zM288 170.667c-11.22 0-21.991-1.924-32-5.461v613.461c0 17.673 14.327 32 32 32h480v-640h-480zM384 618.667h272v-64h-272v64zM592 490.667h-208v-64h208v64z" />
<glyph unicode="&#xe98f;" glyph-name="export" d="M479.996 701.406l-169.368-169.369-45.255 45.255 224.001 224h45.252l224-224-45.252-45.255-169.378 169.376v-530.751h-64v530.743zM896 74.667l-32-32h-704l-32 32v192l32 32h96v-64h-64v-128h640v128h-64v64h96l32-32v-192z" />
<glyph unicode="&#xe990;" glyph-name="eye-off" d="M802.778 672.188c57.207-45.502 100.911-97.908 131.345-140.909 18.074-25.533 31.654-48.023 40.772-64.232 4.561-8.111 8.017-14.669 10.364-19.273 1.173-2.304 2.074-4.122 2.697-5.397l0.73-1.515 0.209-0.439 0.068-0.141 0.021-0.051 0.009-0.021c0.004-0.009 0.009-0.013-28.988-13.547l28.996 13.534v-27.063l-28.996 13.53c28.996-13.53 28.992-13.542 28.983-13.555l-0.013-0.034-0.043-0.085-0.124-0.265-0.414-0.866c-0.35-0.725-0.849-1.749-1.493-3.046-1.293-2.598-3.183-6.302-5.662-10.957-4.962-9.301-12.318-22.426-22.067-38.097-19.465-31.279-48.687-73.045-87.778-114.927-77.875-83.439-197.743-170.167-359.39-170.167-92.975 0-172.307 28.766-237.662 69.086l-155.713-155.712-45.255 45.257 832 831.999 45.252-45.255-147.849-147.849zM757.193 626.603l-88.678-88.679c53.44-74.982 46.524-179.754-20.749-247.026-67.273-67.268-172.041-74.185-247.025-20.749l-79.705-79.706c54.321-30.997 117.889-51.78 190.969-51.78 137.015 0 241.148 73.276 312.606 149.837 35.575 38.118 62.353 76.352 80.222 105.071 8.452 13.585 14.865 24.964 19.234 33.097-1.429 2.662-3.081 5.679-4.954 9.007-8.218 14.609-20.634 35.187-37.227 58.633-29.252 41.329-70.903 90.752-124.693 132.297zM446.972 316.378c49.084-28.988 113.365-22.396 155.537 19.776 42.176 42.176 48.768 106.458 19.776 155.541l-175.313-175.317zM99.936 426.663c4.369 8.132 10.782 19.511 19.234 33.097 17.87 28.719 44.646 66.951 80.224 105.071 71.456 76.559 175.589 149.834 312.606 149.834 53.879 0 102.438-11.28 145.877-29.507l24.764 59.016c-50.615 21.236-107.563 34.491-170.641 34.491-161.649 0-281.516-86.725-359.393-170.166-39.089-41.88-68.312-83.647-87.776-114.93-9.751-15.671-17.104-28.791-22.065-38.097-2.482-4.651-4.369-8.358-5.662-10.953-0.646-1.301-1.145-2.321-1.495-3.051l-0.414-0.866-0.124-0.26-0.041-0.085-0.015-0.034c-0.006-0.013-0.012-0.026 28.986-13.559l-28.998 13.534v-27.063l28.998 13.53c-28.998-13.53-28.995-13.538-28.992-13.542l0.007-0.017 0.017-0.034 0.045-0.098 0.138-0.29 0.465-0.973c0.394-0.815 0.958-1.967 1.69-3.435 1.464-2.927 3.604-7.1 6.421-12.335 5.632-10.458 13.987-25.169 25.076-42.594 22.126-34.769 55.4-80.751 99.961-125.308l45.252 45.257c-40.408 40.405-70.861 82.419-91.22 114.411-10.154 15.957-17.73 29.312-22.72 38.579l-0.205 0.38zM384 426.663c0 70.694 57.309 128.001 128 128.001v64c-106.038 0-192-85.961-192-192.001h64z" />
<glyph unicode="&#xe991;" glyph-name="favorite" d="M841.523 699.070c-68.732 64.716-176.879 63.258-243.814-3.271l-63.151-62.765h-45.116l-63.15 62.765c-66.935 66.529-175.085 67.986-243.814 3.271-71.293-67.13-72.813-179.401-3.38-248.411l332.902-330.876 332.902 330.876c69.431 69.011 67.913 181.281-3.379 248.411zM552.593 741.192c91.426 90.871 238.946 92.847 332.804 4.473 97.621-91.924 99.721-245.88 4.621-340.399l-355.46-353.293h-45.116l-355.46 353.293c-95.099 94.519-93.001 248.476 4.623 340.399 93.855 88.374 241.377 86.398 332.802-4.473l40.593-40.344 40.593 40.344z" />
<glyph unicode="&#xe992;" glyph-name="feedback" d="M224 810.667c-88.366 0-160-71.634-160-160v-320c0-88.367 71.634-160 160-160h288v-160l32-32h0.32l23.607 10.398 166.165 181.602h65.907c88.367 0 160 71.633 160 160v320c0 88.366-71.633 160-160 160h-576zM128 650.667c0 53.019 42.981 96 96 96h576c53.018 0 96-42.981 96-96v-320c0-53.018-42.982-96-96-96h-80l-23.607-10.398-120.393-131.575v109.973l-32 32h-320c-53.019 0-96 42.982-96 96v320zM768 554.667h-512v64h512v-64zM576 362.667h-320v64h320v-64z" />
<glyph unicode="&#xe993;" glyph-name="filter" d="M128 778.667l32 32h704l32-32v-159.996l-10.931-24.082-245.069-214.437v-305.481l-42.121-30.357-192.001 64-21.881 30.357v241.481l-245.070 214.437-10.928 24.082v159.996zM192 746.667v-113.475l245.069-214.439 10.931-24.081v-232.934l128-42.667v275.601l10.927 24.081 245.073 214.439v113.475h-640z" />
<glyph unicode="&#xe994;" glyph-name="fundamentals" d="M367.951 854.908l39.192 22.627 309.098-82.822 22.626-39.192-82.825-309.095-39.189-22.63-309.097 82.825-22.627 39.191 82.822 309.096zM421.488 807.434l-66.257-247.277 247.278-66.256 66.257 247.275-247.278 66.257zM64 330.667l32 32h320l32-32v-320l-32-32h-320l-32 32v320zM128 298.667v-256h256v256h-256zM608 362.667l-32-32v-320l32-32h320l32 32v320l-32 32h-320zM640 42.667v256h256v-256h-256z" />
<glyph unicode="&#xe995;" glyph-name="funding-program" d="M799.061 810.657c-110.332 0-216.141-43.828-294.157-121.841l-134.157-134.156h-210.745l-22.627-9.373-64-63.998 6.163-50.069 160-96.004 32.929 54.878-124.857 74.918 25.647 25.647h210.745l22.627 9.374 143.532 143.528c66.014 66.011 155.546 103.096 248.9 103.096h32.943v-32.943c0-93.359-37.090-182.895-103.104-248.907l-143.526-143.518-9.37-22.63v-210.743l-25.647-25.647-74.914 124.855-54.881-32.93 95.999-160 50.069-6.161 64 64 9.374 22.626v210.743l134.148 134.148c78.020 78.016 121.852 183.831 121.852 294.164v64.943l-32 32h-64.943zM441.374 401.293l-208.002-208 45.255-45.252 207.999 208-45.252 45.252z" />
<glyph unicode="&#xe996;" glyph-name="glasses" d="M132.806 651.231l-67.678-248.146-1.128-8.422v-128c0-88.363 71.634-160 160-160h73.058c55.167 0 106.442 28.42 135.68 75.2l42.398 67.84 4.864 16.96v32h64v-32l4.864-16.96 42.402-67.84c29.239-46.78 80.512-75.2 135.68-75.2h73.058c88.367 0 160 71.637 160 160v128l-1.126 8.422-67.678 248.146c-20.122 73.779-100.023 113.567-171.029 85.165l-60.053-24.021 23.77-59.422 60.053 24.021c35.503 14.201 75.452-5.693 85.513-42.583l56.653-207.729h-246.106c-41.796 0-77.355-26.714-90.534-64h-74.927c-13.18 37.286-48.738 64-90.537 64h-246.106l56.654 207.729c10.061 36.889 50.012 56.783 85.514 42.583l60.053-24.021 23.769 59.422-60.053 24.021c-71.004 28.401-150.906-11.386-171.028-85.165zM128 362.663h256.002c17.673 0 32-14.327 32-32v-54.822l-37.536-60.058c-17.543-28.066-48.308-45.12-81.408-45.12h-73.058c-53.019 0-96 42.982-96 96v96zM640 362.663h256.004v-96c0-53.018-42.982-96-96-96h-73.058c-33.101 0-63.863 17.054-81.408 45.12l-37.538 60.058v54.822c0 17.673 14.327 32 32 32z" />
<glyph unicode="&#xe997;" glyph-name="handshake" d="M128 682.667v-320h-64v-64h96l25.375 25.374 193.135-193.135c36.007-36.006 84.842-56.235 135.764-56.235h35.925c65.395 0 128.845 22.255 179.913 63.108l89.877 71.902 2.637 47.616-25.374 25.374 41.374 41.37 25.374-25.374h96v64h-64v320h64v64h-96l-32-32v-32h-60.062l-118.046 29.512c-42.304 10.576-85.726 11.259-127.185 2.834l-32.695 3.633c-74.999 8.333-150.904-1.133-221.558-27.63l-22.257-8.347h-58.196v31.999l-32 32h-96v-64h64zM832 407.928l-80-80-217.374 217.37-39.586 4.509-84.826-53.017c-12.636-7.898-29.051-6.029-39.587 4.51l-20.448 20.448 81.932 75.628c55.475 51.209 133.018 71.025 206.259 52.714l121.869-30.467 7.761-0.956h64v-210.739zM192 407.928v210.74h63.999l11.237 2.038 27.691 10.385c34.474 12.928 70.391 21.179 106.797 24.632-4.437-3.629-8.78-7.403-13.024-11.319l-106.405-98.218-0.922-46.14 43.999-44.002c31.61-31.607 80.854-37.218 118.762-13.525l63.241 39.526 244.719-244.719-38.609-30.886-146.859 146.859-45.252-45.252 139.895-139.9c-15.428-8.811-31.825-15.735-48.832-20.655l-141.811 141.807-45.254-45.252 105.375-105.374h-16.474c-33.946 0-66.505 13.487-90.51 37.491l-231.764 231.765z" />
<glyph unicode="&#xe998;" glyph-name="information" d="M800 874.667h-512c-53.019 0-96-42.981-96-96v-704c0-53.018 42.98-96 96-96h544v64h-64v64h32l32 32v704l-32 32zM704 106.667v-64h-416c-17.673 0-32 14.327-32 32s14.327 32 32 32h416zM288 170.667c-11.22 0-21.991-1.924-32-5.461v613.461c0 17.673 14.327 32 32 32h480v-640h-480zM544 682.667v-64h-64v64h64zM448 522.667h32v-160h-32v-64h128v64h-32v192l-32 32h-64v-64z" />
<glyph unicode="&#xe999;" glyph-name="key" d="M448 554.667c0 106.039 85.961 192 192 192s192-85.961 192-192c0-106.039-85.961-192-192-192-24.521 0-47.893 4.582-69.367 12.902l-34.193-7.206-79.066-79.070-41.374 41.374-45.255-45.257 41.373-41.37-50.745-50.748-41.373 41.374-45.255-45.257 41.373-41.37-41.373-41.374h-82.745v82.743l261.696 261.696 7.206 34.193c-8.32 21.474-12.902 44.847-12.902 69.367zM640 810.667c-141.385 0-256-114.615-256-256 0-25.095 3.62-49.391 10.38-72.367l-257.007-257.007-9.373-22.626v-128l32-32h128l22.627 9.374 257.006 257.007c22.976-6.763 47.27-10.381 72.367-10.381 141.385 0 256 114.615 256 256s-114.615 256-256 256zM640 586.667c0 17.673 14.327 32 32 32s32-14.327 32-32c0-17.673-14.327-32-32-32s-32 14.327-32 32zM672 682.667c-53.018 0-96-42.981-96-96s42.982-96 96-96c53.018 0 96 42.981 96 96s-42.982 96-96 96z" />
<glyph unicode="&#xe99a;" glyph-name="metaverse" d="M256 202.667c0 123.712 100.288 224 224 224h64c123.712 0 224-100.288 224-224v-160h-64v160c0 88.367-71.633 160-160 160h-64c-88.366 0-160-71.633-160-160v-160h-64v160zM512 618.667c-53.018 0-96-42.981-96-96s42.982-96 96-96 96 42.982 96 96c0 53.019-42.982 96-96 96zM352 522.667c0 88.366 71.634 160 160 160s160-71.634 160-160c0-88.367-71.633-160-160-160s-160 71.633-160 160zM147.516 674.613c-17.763-12.922-19.516-21.417-19.516-23.946 0-2.613 1.909-11.52 20.881-24.925 18.137-12.815 46.434-25.605 84.18-36.751l22.938-30.69v-131.635h-64v108.241c-31.488 10.79-58.899 23.621-80.049 38.565-25.305 17.879-47.951 43.508-47.951 77.195 0 32.817 21.527 57.995 45.867 75.7 25.040 18.216 59.215 33.286 98.566 45.394 79.094 24.337 186.415 38.906 303.567 38.906 117.154 0 224.474-14.569 303.569-38.906 39.347-12.108 73.523-27.178 98.564-45.394 24.337-17.706 45.867-42.883 45.867-75.7 0-33.687-22.647-59.315-47.949-77.195-21.154-14.944-48.563-27.775-80.051-38.565v-108.241h-64v131.635l22.938 30.69c37.747 11.146 66.044 23.936 84.181 36.751 18.974 13.405 20.881 22.312 20.881 24.925 0 2.529-1.754 11.025-19.516 23.946-17.062 12.412-43.81 24.923-79.74 35.979-71.467 21.99-172.147 36.075-284.745 36.075s-213.277-14.085-284.746-36.075c-35.93-11.055-62.676-23.567-79.738-35.979zM896 426.667v224h64v-224c0-33.685-22.647-59.315-47.949-77.193-26.142-18.47-61.845-33.711-102.989-45.862l-41.062 30.69v92.365h64v-47.471c17.882 7.279 32.307 14.908 43.119 22.545 18.974 13.406 20.881 22.315 20.881 24.926zM128 650.666v-223.999c0-2.611 1.909-11.52 20.881-24.926 10.812-7.637 25.235-15.266 43.119-22.545v47.471h64v-92.365l-41.062-30.69c-41.144 12.151-76.847 27.392-102.988 45.862-25.305 17.877-47.951 43.507-47.951 77.193v224h64zM387.165 516.651c-59.067-5.871-111.549-15.744-154.103-28.31l-18.124 61.382c47.208 13.94 103.765 24.439 165.897 30.614l6.33-63.686zM790.938 488.342c-42.556 12.565-95.036 22.438-154.103 28.31l6.332 63.686c62.131-6.176 118.69-16.675 165.897-30.614l-18.125-61.382z" />
<glyph unicode="&#xe99b;" glyph-name="no-edit" d="M397.256 106.68h-205.257l0.001 205.257 201.373 201.37 45.253-45.257-182.626-182.626v-114.743h114.746l182.628 182.626 45.257-45.257-201.375-201.37zM720 749.422l-201.374-201.366-45.252 45.256 224 223.992h45.257l160-160.002v-45.255l-224-224.002-45.257 45.257 201.374 201.373-114.748 114.748zM697.374 484.049l-128 127.998 45.252 45.255 128-128-45.252-45.253zM809.374 84.049l-640.001 639.998 45.255 45.255 639.999-640.001-45.252-45.252z" />
<glyph unicode="&#xe99c;" glyph-name="nominate" d="M512 810.667c-70.694 0-128-57.308-128-128s57.306-128 128-128c70.694 0 128 57.308 128 128s-57.306 128-128 128zM704 682.667c0-51.217-20.053-97.749-52.736-132.175 103.010-20.156 180.736-110.915 180.736-219.825h-64c0 88.367-71.633 160-160 160h-192c-88.366 0-160-71.633-160-160v-224h-64v224c0 108.911 77.728 199.669 180.737 219.825-32.684 34.426-52.737 80.958-52.737 132.175 0 106.039 85.961 192 192 192s192-85.961 192-192zM710.626 44.041l232 232-45.252 45.252-209.374-209.37-89.374 89.37-45.252-45.252 112-112h45.252z" />
<glyph unicode="&#xe99d;" glyph-name="payout" d="M384 746.667c0 35.346 28.654 64 64 64s64-28.654 64-64-28.655-64-64-64c-35.346 0-64 28.654-64 64zM448 874.667c-70.692 0-128-57.308-128-128s57.308-128 128-128c70.694 0 128 57.308 128 128s-57.306 128-128 128zM704 618.667c-35.345 0-64-28.654-64-64s28.655-64 64-64c35.345 0 64 28.654 64 64s-28.655 64-64 64zM576 554.667c0 70.692 57.306 128 128 128s128-57.308 128-128c0-70.694-57.306-128-128-128s-128 57.306-128 128zM654.357 336.546l-22.212 41.067-174.174 45.837c-91.465 24.068-188.916 1.698-260.724-59.853l-1.085-0.93h-68.163v-64h80l20.825 7.706 10.073 8.631c55.851 47.872 131.646 65.271 202.783 46.554l141.167-37.15-5.406-16.218c-4.642-13.931-18.172-22.912-32.811-21.786l-158.177 12.169-4.908-63.812 158.179-12.169c32.525-2.5 63.219 11.627 82.615 36.096l226.658 71.578c15.667 4.949 32.474-2.773 38.98-17.745l-296.998-171.345c-53.069-30.618-116.361-38.157-175.141-20.873l-166.81 49.062-9.029 1.301h-112v-64h107.392l162.389-47.761c75.572-22.229 156.95-12.531 225.183 26.837l321.028 185.207 13.722 39.599-9.946 24.858c-18.658 46.647-70.131 71.019-118.042 55.889l-175.603-55.454 0.235 0.704z" />
</font>
</defs>
</svg>
