<svg width="173" height="60" viewBox="0 0 173 60" fill="none" xmlns="http://www.w3.org/2000/svg">
<g clip-path="url(#clip0_615_1261)">
<path d="M17.1347 29.6922C17.1347 25.2958 19.8777 21.4255 24.8002 21.4255C28.1069 21.4255 30.3239 22.8534 31.639 25.8219L28.9711 26.9492C28.1069 25.0328 26.7917 24.1685 24.8002 24.1685C21.9444 24.1685 20.2535 26.4607 20.2535 29.6922C20.2535 32.9237 21.9444 35.2159 24.8002 35.2159C26.7541 35.2159 28.1069 34.3516 28.9711 32.4353L31.639 33.5625C30.2863 36.4935 28.0693 37.9214 24.8002 37.9214C19.8777 37.9214 17.1347 34.051 17.1347 29.6922Z" fill="white"/>
<path d="M34.5699 29.6922C34.5699 25.2958 37.313 21.4255 42.1979 21.4255C45.5046 21.4255 47.7215 22.8534 49.0367 25.8219L46.3688 26.9492C45.5046 25.0328 44.1894 24.1685 42.1979 24.1685C39.3421 24.1685 37.6512 26.4607 37.6512 29.6922C37.6512 32.9237 39.3421 35.2159 42.1979 35.2159C44.1518 35.2159 45.5046 34.3516 46.3688 32.4353L49.0367 33.5625C47.7215 36.531 45.5046 37.9589 42.1979 37.9589C37.3506 37.9213 34.5699 34.051 34.5699 29.6922Z" fill="white"/>
<path d="M51.667 29.6922C51.667 25.4461 54.2973 21.4255 59.3325 21.4255C64.4053 21.4255 66.8853 25.2207 66.8853 29.2037V30.4813H54.7858C54.8986 33.2243 56.7022 35.2159 59.3701 35.2159C61.5871 35.2159 63.1277 34.0886 64.1047 32.3225L66.5847 33.6377C65.0065 36.5686 62.6016 37.9214 59.3325 37.9214C54.3725 37.9214 51.667 34.051 51.667 29.6922ZM63.7289 27.8886C63.278 25.634 61.8126 24.1309 59.3325 24.1309C56.8901 24.1309 55.3871 25.7091 54.9361 27.8886H63.7289Z" fill="white"/>
<path d="M72.4466 31.6462V18.1939H68.1253V15.4885H75.5278V31.3831C75.5278 34.051 76.6927 35.0656 78.5715 35.0656C80.3751 35.0656 81.54 33.9383 81.9533 31.6086L84.6963 32.1346C84.1327 36.005 81.8406 37.9214 78.5715 37.9214C74.889 37.9214 72.4466 35.6668 72.4466 31.6462Z" fill="white"/>
<path d="M87.6649 21.6885H90.7461V23.6425C91.46 22.5152 93.1885 21.4255 95.2928 21.4255C100.065 21.4255 102.62 24.8073 102.62 29.6922C102.62 34.5771 100.065 37.9213 95.2928 37.9213C93.3013 37.9213 91.5728 36.9444 90.7461 35.8171V44.1214H87.6649V21.6885ZM99.3886 29.6922C99.3886 26.3479 97.6601 24.1685 94.917 24.1685C92.2116 24.1685 90.4831 26.3479 90.4831 29.6922C90.4831 33.0365 92.2116 35.2159 94.917 35.2159C97.6601 35.2159 99.3886 33.0365 99.3886 29.6922Z" fill="white"/>
<path d="M106.04 29.6922C106.04 25.2582 109.008 21.4255 113.893 21.4255C118.778 21.4255 121.746 25.2207 121.746 29.6922C121.746 34.1262 118.778 37.9214 113.893 37.9214C109.008 37.9214 106.04 34.1262 106.04 29.6922ZM118.703 29.6922C118.703 26.7988 116.974 24.1685 113.893 24.1685C110.812 24.1685 109.121 26.7988 109.121 29.6922C109.121 32.5856 110.849 35.2159 113.893 35.2159C116.974 35.2159 118.703 32.5856 118.703 29.6922Z" fill="white"/>
<path d="M124.414 34.9904H129.75V24.394H125.128V21.6885H132.869V34.9904H138.468V37.6959H124.452V34.9904H124.414ZM128.773 17.3297C128.773 16.0146 129.788 15 131.103 15C132.418 15 133.432 16.0146 133.432 17.3297C133.432 18.6449 132.418 19.6219 131.103 19.6219C129.788 19.5843 128.773 18.6073 128.773 17.3297Z" fill="white"/>
<path d="M142.3 21.6885H145.382V24.5067C146.546 22.7406 148.538 21.4255 150.793 21.4255C153.949 21.4255 155.677 23.3419 155.677 26.4231V37.6583H152.596V27.2122C152.596 25.1079 151.507 24.1685 149.853 24.1685C147.448 24.1685 145.382 26.7988 145.382 31.2704V37.6959H142.3V21.6885Z" fill="white"/>
<path d="M170.257 31.571C169.881 33.9007 168.716 35.028 166.875 35.028C164.996 35.028 163.831 34.0135 163.831 31.3456V24.4316H169.844V21.6885H163.831V17.1418H160.75V31.6462C160.75 35.6668 163.193 37.9214 166.875 37.9214C170.144 37.9214 172.436 36.005 173 32.1347L170.257 31.571Z" fill="white"/>
<path d="M5.37337 39.8002H2.63032V44.1214H5.37337V39.8002Z" fill="white"/>
<path d="M11.5734 39.8002H8.86794V44.1214H11.5734V39.8002Z" fill="white"/>
<path d="M0 37.0947L5.6364 21.6885H8.94309L14.5419 37.0947V37.6583H0V37.0947ZM4.17094 34.9529H10.4086L7.28975 25.7843L4.17094 34.9529Z" fill="white"/>
</g>
<defs>
<clipPath id="clip0_615_1261">
<rect width="173" height="60" fill="white"/>
</clipPath>
</defs>
</svg>
