<svg width="114" height="36" viewBox="0 0 114 36" fill="none" xmlns="http://www.w3.org/2000/svg">
<g clip-path="url(#clip0_3431_5205)">
<mask id="mask0_3431_5205" style="mask-type:luminance" maskUnits="userSpaceOnUse" x="0" y="8" width="114" height="21">
<path d="M114 8.40002H0V28.1023H114V8.40002Z" fill="white"/>
</mask>
<g mask="url(#mask0_3431_5205)">
<path d="M34.6261 21.6223H29.5005L28.5524 24.4302H25.8838L30.3784 12.071H33.7483L38.2428 24.4293H35.5742L34.6261 21.6223ZM33.9765 19.656L32.5544 15.4251C32.383 14.8551 32.2885 14.2647 32.2736 13.6696C32.2736 13.5643 32.2384 13.4238 32.0628 13.4238C31.8872 13.4238 31.8522 13.5643 31.8522 13.6696C31.8374 14.2646 31.7433 14.855 31.5722 15.4251L30.1501 19.656H33.9765Z" fill="#CFDAE3"/>
<path d="M47.3547 18.9541V24.4305H45.1113V19.7266C45.1113 17.6374 44.567 17.0581 43.3907 17.0581C42.0916 17.0581 40.8977 18.5152 40.8977 20.657V24.4305H38.6543V15.165H40.8977V15.7444C40.9111 16.1838 40.8144 16.6196 40.6168 17.0123C40.5465 17.1703 40.4413 17.416 40.6695 17.4687C40.8099 17.5038 40.8645 17.3985 40.9328 17.258C41.3542 16.3276 42.4075 15.0285 44.0228 15.0285C46.0204 15.0216 47.3547 16.3208 47.3547 18.9541Z" fill="#CFDAE3"/>
<path d="M52.0741 15.0214C53.5138 15.0214 54.4092 15.7411 55.0061 16.7067C55.0237 16.7418 55.129 16.97 55.287 16.9018C55.4625 16.8315 55.3397 16.6033 55.2519 16.4278C55.1135 16.1691 55.0461 15.8783 55.0569 15.5851V15.1638H57.3002V23.4491C57.3002 26.416 55.562 27.9433 52.7159 27.9433C49.8015 27.9433 48.4672 26.3828 48.3092 24.6429H50.5213C50.6267 25.4864 51.1885 26.1175 52.6808 26.1175C54.261 26.1175 55.051 25.2397 55.051 23.5378C55.0422 23.2504 55.1096 22.9657 55.246 22.7127C55.3338 22.5371 55.4568 22.3615 55.2812 22.2737C55.1232 22.2035 55.0354 22.3615 55.0002 22.4317C54.4033 23.4491 53.4728 24.1522 52.0682 24.1522C49.663 24.1522 48.0303 22.0807 48.0303 19.5878C48.0303 17.0949 49.6719 15.0214 52.0741 15.0214ZM55.0588 19.5858C55.0588 18.2204 54.0756 17.0578 52.6009 17.0578C51.0208 17.0578 50.2833 18.2165 50.2833 19.5858C50.2833 20.9552 51.0208 22.1139 52.6009 22.1139C54.0786 22.1168 55.0617 20.9552 55.0617 19.5858H55.0588Z" fill="#CFDAE3"/>
<path d="M66.9305 20.3608H60.1888C60.3468 21.7653 61.2617 22.6041 62.6642 22.6041C63.7372 22.6041 64.2795 22.0247 64.5429 21.1996H66.8253C66.4215 23.1131 65.1222 24.5693 62.6468 24.5693C59.6446 24.5693 57.9941 22.5513 57.9941 19.7951C57.9941 16.8985 59.785 15.0161 62.6116 15.0161C64.7575 15.0161 66.9833 16.2977 66.9833 19.6684C66.9829 19.9002 66.9653 20.1316 66.9305 20.3608ZM64.736 18.8159C64.6482 17.6924 63.9811 16.8497 62.6818 16.8497C61.1545 16.8497 60.5048 17.7099 60.2766 18.8159H64.736Z" fill="#CFDAE3"/>
<path d="M69.9152 11.7914V24.4305H67.6719V11.7914H69.9152Z" fill="#CFDAE3"/>
<path d="M79.0971 17.9531C79.0936 17.9821 79.0959 18.0115 79.1039 18.0396C79.1118 18.0677 79.1252 18.0939 79.1433 18.1168C79.1614 18.1397 79.184 18.1587 79.2095 18.1728C79.2351 18.1869 79.2632 18.1958 79.2922 18.1989C81.1532 18.5891 81.838 19.8492 81.838 21.0273C81.838 23.0638 80.4724 24.4321 77.9364 24.4321H71.4404V12.071H76.9182C79.6219 12.071 81.2722 13.0542 81.2722 15.2662C81.2722 16.3722 80.4822 17.3202 79.2707 17.7044C79.2176 17.7196 79.1714 17.7526 79.1397 17.7979C79.108 17.8432 79.093 17.898 79.0971 17.9531ZM73.8301 17.128H76.8675C78.1842 17.128 78.7636 16.4082 78.7636 15.5305C78.7636 14.6527 78.1842 14.1085 76.8675 14.1085H73.8301V17.128ZM79.4483 20.7445C79.4483 19.8316 78.6934 19.0943 77.3239 19.0943H73.8301V22.3947H77.3239C78.7812 22.3947 79.4483 21.6925 79.4483 20.7445Z" fill="#CFDAE3"/>
<path d="M85.1897 11.7914V24.4305H82.9463V11.7914H85.1897Z" fill="#CFDAE3"/>
<path d="M95.144 19.7965C95.144 22.4299 93.4058 24.5707 90.5089 24.5707C87.6121 24.5707 85.874 22.4299 85.874 19.7965C85.874 17.1631 87.6121 15.0175 90.5089 15.0175C93.4058 15.0175 95.144 17.1631 95.144 19.7965ZM92.9006 19.7965C92.9006 18.2867 92.0403 17.0578 90.5128 17.0578C88.9854 17.0578 88.1252 18.2867 88.1252 19.7965C88.1252 21.3063 88.9854 22.5351 90.5128 22.5351C92.0403 22.5351 92.8967 21.3063 92.8967 19.7965H92.9006Z" fill="#CFDAE3"/>
<path d="M100.306 15.0214C102.904 15.0214 104.448 16.7769 104.607 18.6729H102.395C102.255 17.7951 101.57 17.0578 100.306 17.0578C98.7608 17.0578 97.8673 18.1814 97.8673 19.7965C97.8673 21.4116 98.7627 22.5352 100.306 22.5352C101.574 22.5352 102.257 21.7978 102.395 20.92H104.607C104.448 22.816 102.922 24.5706 100.306 24.5706C97.4772 24.5706 95.6182 22.5527 95.6182 19.7965C95.6182 17.0403 97.4294 15.0214 100.306 15.0214Z" fill="#CFDAE3"/>
<path d="M111.191 24.4305L108.347 20.5565L107.539 21.3641V24.4353H105.296V11.7914H107.539V17.3214C107.539 18.0587 107.364 18.3572 107.083 18.7083C107.013 18.7961 106.977 18.919 107.083 19.0067C107.223 19.1121 107.329 19.0067 107.381 18.9541L110.91 15.1621H113.718L109.856 19.0419L113.999 24.4305H111.191Z" fill="#CFDAE3"/>
<path fill-rule="evenodd" clip-rule="evenodd" d="M14.8298 27.8877C16.2929 27.7062 17.4458 27.3833 18.2086 26.6032C18.9918 25.8443 19.3225 24.675 19.4942 23.2256C19.6657 21.7763 19.7097 20.0071 19.7048 18.2515C19.6999 16.496 19.6755 14.7404 19.4942 13.2774C19.3127 11.8145 18.9898 10.6616 18.2095 9.89992C17.4468 9.11578 16.2803 8.78807 14.8308 8.61544C13.3814 8.44281 11.6121 8.39892 9.85642 8.4038C8.10075 8.40868 6.34507 8.43403 4.882 8.61544C3.41894 8.79685 2.26605 9.11968 1.50331 9.89992C0.720078 10.6616 0.390396 11.8281 0.218729 13.2774C0.0470631 14.7268 0.00414923 16.496 0.00805073 18.2515C0.0119522 20.0071 0.0373094 21.7636 0.218729 23.2256C0.400149 24.6876 0.723003 25.8404 1.50331 26.6032C2.26605 27.3863 3.43163 27.715 4.88103 27.8877C6.33044 28.0603 8.09978 28.1022 9.85544 28.0983C11.6111 28.0944 13.3668 28.069 14.8298 27.8877ZM9.85151 24.4579C8.62425 24.4577 7.42461 24.0936 6.40428 23.4117C5.38395 22.7298 4.58875 21.7606 4.11923 20.6268C3.64971 19.493 3.52695 18.2454 3.76649 17.0418C4.00604 15.8382 4.59712 14.7327 5.465 13.865C6.33287 12.9973 7.43856 12.4065 8.64224 12.1671C9.84594 11.9278 11.0936 12.0507 12.2274 12.5204C13.3612 12.9901 14.3303 13.7854 15.0121 14.8057C15.6939 15.8261 16.0578 17.0257 16.0578 18.2529C16.0561 19.8982 15.4016 21.4755 14.238 22.6389C13.0744 23.8021 11.4969 24.4563 9.85151 24.4579ZM9.85151 13.0906C8.83048 13.0908 7.83243 13.3937 6.98356 13.9611C6.13469 14.5284 5.47313 15.3348 5.08253 16.2781C4.69193 17.2214 4.58983 18.2593 4.78915 19.2606C4.98846 20.262 5.48022 21.1817 6.20228 21.9035C6.92432 22.6255 7.84423 23.117 8.84566 23.3161C9.84709 23.5152 10.8851 23.4129 11.8284 23.0221C12.7717 22.6315 13.578 21.9697 14.1451 21.1209C14.7124 20.2719 15.0151 19.2739 15.0151 18.2529C15.0136 16.884 14.4691 15.5716 13.501 14.6036C12.533 13.6357 11.2205 13.0912 9.85151 13.0896V13.0906ZM8.78238 16.9671C8.78238 17.4874 8.36055 17.9092 7.84018 17.9092C7.31981 17.9092 6.89796 17.4874 6.89796 16.9671C6.89796 16.4468 7.31981 16.0249 7.84018 16.0249C8.36055 16.0249 8.78238 16.4468 8.78238 16.9671ZM12.842 16.9671C12.842 17.4874 12.4202 17.9092 11.8998 17.9092C11.3794 17.9092 10.9576 17.4874 10.9576 16.9671C10.9576 16.4468 11.3794 16.0249 11.8998 16.0249C12.4202 16.0249 12.842 16.4468 12.842 16.9671Z" fill="#CFDAE3"/>
</g>
</g>
<defs>
<clipPath id="clip0_3431_5205">
<rect width="114" height="36" fill="white"/>
</clipPath>
</defs>
</svg>
