<svg width="96" height="96" viewBox="0 0 96 96" fill="none" xmlns="http://www.w3.org/2000/svg">
<circle cx="48" cy="48" r="32.5" stroke="#415566" stroke-dasharray="2 2"/>
<circle cx="48" cy="48" r="23.5" stroke="#1B2B38"/>
<rect x="56" y="56" width="6" height="6" fill="#111B24"/>
<rect x="56" y="56" width="6" height="6" fill="#00EAC7" fill-opacity="0.06"/>
<rect x="50" y="66" width="6" height="8" fill="#111B24"/>
<rect x="50" y="66" width="6" height="8" fill="#00EAC7" fill-opacity="0.06"/>
<rect x="64" y="44" width="6" height="8" fill="#111B24"/>
<rect x="64" y="44" width="6" height="8" fill="#00EAC7" fill-opacity="0.06"/>
<path d="M62 15H31L21 25V72H40V64H46V58H52V50H56V42H62V15Z" fill="#111B24"/>
<path d="M62 15H31L21 25V72H40V64H46V58H52V50H56V42H62V15Z" fill="#00EAC7" fill-opacity="0.06"/>
<path d="M61 42V15H31L21 25V71H40" stroke="#00EAC7" stroke-width="2" stroke-linejoin="bevel"/>
<path d="M31 15V25H21" stroke="#00EAC7" stroke-width="2" stroke-linejoin="bevel"/>
<path d="M28 37.5H52" stroke="#00EAC7" stroke-linejoin="bevel"/>
<path d="M28 42.5H44" stroke="#00EAC7" stroke-linejoin="bevel"/>
<path d="M28 47.5H46" stroke="#00EAC7" stroke-linejoin="bevel"/>
<path d="M28 52.5H43" stroke="#00EAC7" stroke-linejoin="bevel"/>
<path d="M28 32.5H54" stroke="#00EAC7" stroke-linejoin="bevel"/>
<path d="M66.5 46.5H61.5V55.5M66.5 46.5V55.5H61.5M66.5 46.5L61.5 55.5" stroke="white" stroke-linejoin="bevel"/>
<path d="M59.5 58.5H54.5V67.5M59.5 58.5V67.5H54.5M59.5 58.5L54.5 67.5" stroke="white" stroke-linejoin="bevel"/>
<path d="M60.5 70.5H55.5V79.5M60.5 70.5V79.5H55.5M60.5 70.5L55.5 79.5" stroke="white" stroke-linejoin="bevel"/>
<path d="M51.5 70.5H46.5V79.5M51.5 70.5V79.5H46.5M51.5 70.5L46.5 79.5" stroke="white" stroke-linejoin="bevel"/>
<path d="M74.5 46.5H69.5V55.5M74.5 46.5V55.5H69.5M74.5 46.5L69.5 55.5" stroke="white" stroke-linejoin="bevel"/>
<path d="M56.5 55.5V46.5H54M54 55.5H59" stroke="white" stroke-linejoin="bevel"/>
<path d="M65.5 67.5V58.5H63M63 67.5H68" stroke="white" stroke-linejoin="bevel"/>
<path d="M65.5 79.5V70.5H63M63 79.5H68" stroke="white" stroke-linejoin="bevel"/>
<path d="M49.5 67.5V58.5H47M47 67.5H52" stroke="white" stroke-linejoin="bevel"/>
<path d="M72.5 67.5V58.5H70M70 67.5H75" stroke="white" stroke-linejoin="bevel"/>
<path d="M82.5 13.5L78 17L73.5 13.5" stroke="#1B2B38" stroke-linecap="square"/>
<path d="M82.5 16.5L78 20L73.5 16.5" stroke="#1B2B38" stroke-linecap="square"/>
<path d="M18 81C18 81.7956 17.6839 82.5587 17.1213 83.1213C16.5587 83.6839 15.7956 84 15 84C14.2044 84 13.4413 83.6839 12.8787 83.1213C12.3161 82.5587 12 81.7956 12 81L15 81H18Z" fill="#1B2B38"/>
<path d="M12 78C12 77.2043 12.3161 76.4413 12.8787 75.8787C13.4413 75.3161 14.2044 75 15 75C15.7956 75 16.5587 75.3161 17.1213 75.8787C17.6839 76.4413 18 77.2044 18 78L15 78L12 78Z" fill="#1B2B38"/>
</svg>
