<svg width="164" height="60" viewBox="0 0 164 60" fill="none" xmlns="http://www.w3.org/2000/svg">
<path d="M23.6437 14.7219H18.9663V39.9957H23.6437V14.7219Z" fill="white"/>
<path d="M112.508 21.9187C110.777 21.9187 109.21 22.3015 107.806 23.0672C106.402 23.8329 105.318 24.9428 104.552 26.3963C103.786 27.8502 103.403 29.3538 103.403 30.9073C103.403 32.938 103.786 34.6608 104.552 36.0758C105.318 37.4905 106.435 38.5642 107.906 39.2966C109.376 40.029 110.921 40.3952 112.542 40.3952C115.161 40.3952 117.333 39.5159 119.058 37.7568C120.784 35.9982 121.647 33.7815 121.647 31.107C121.647 28.455 120.792 26.2606 119.083 24.5238C117.374 22.7871 115.183 21.9187 112.508 21.9187H112.508ZM115.596 34.8221C114.769 35.7542 113.746 36.2203 112.525 36.2203C111.304 36.2203 110.278 35.7542 109.446 34.8221C108.613 33.8899 108.197 32.9104 108.197 31.157C108.197 29.4038 108.613 28.424 109.446 27.4919C110.278 26.5597 111.304 26.0936 112.525 26.0936C113.746 26.0936 114.769 26.5597 115.596 27.4919C116.423 28.424 116.836 29.3925 116.836 31.1237C116.836 32.8993 116.423 33.8899 115.596 34.8221V34.8221Z" fill="white"/>
<path d="M33.611 21.9187C31.8798 21.9187 30.3123 22.3015 28.9086 23.0672C27.5046 23.8329 26.4201 24.9428 25.6544 26.3963C24.8887 27.8502 24.5059 29.3538 24.5059 30.9073C24.5059 32.938 24.8887 34.6608 25.6544 36.0758C26.4201 37.4905 27.5379 38.5642 29.0085 39.2966C30.4788 40.029 32.0239 40.3952 33.6442 40.3952C36.2631 40.3952 38.4353 39.5159 40.161 37.7568C41.8864 35.9982 42.7493 33.7815 42.7493 31.107C42.7493 28.455 41.8947 26.2606 40.1859 24.5238C38.4769 22.7871 36.2852 21.9187 33.611 21.9187V21.9187ZM36.6987 34.8221C35.8719 35.7542 34.8482 36.2203 33.6276 36.2203C32.4067 36.2203 31.3805 35.7542 30.5482 34.8221C29.7159 33.8899 29.2998 32.9104 29.2998 31.157C29.2998 29.4038 29.7159 28.424 30.5482 27.4919C31.3805 26.5597 32.4067 26.0936 33.6276 26.0936C34.8482 26.0936 35.8719 26.5597 36.6987 27.4919C37.5252 28.424 37.9388 29.3925 37.9388 31.1237C37.9388 32.8993 37.5252 33.8899 36.6987 34.8221V34.8221Z" fill="white"/>
<path d="M52.443 26.2174C54.7279 26.2174 55.9778 27.8111 56.4367 29.1152L60.7115 27.8354C60.0353 25.6861 58.2483 21.9187 52.2266 21.9187C46.5839 21.9187 43.2754 26.3306 43.2754 31.157C43.2754 35.9833 46.5839 40.3952 52.2266 40.3952C58.2483 40.3952 60.0353 36.6279 60.7115 34.4785L56.5819 33.1261C56.1231 34.4302 54.7279 36.0966 52.443 36.0966C50.1581 36.0966 48.0329 34.2592 48.0329 31.157C48.0329 28.0547 50.1581 26.2174 52.443 26.2174V26.2174Z" fill="white"/>
<path d="M151.134 22.3182H145.011L138.881 28.9793V14.7219H134.131V39.9957H138.881V35.2803L140.858 33.1376L145.579 39.9957H151.494L144.164 29.7676L151.134 22.3182Z" fill="white"/>
<path d="M99.4321 22.3182L96.3335 33.6856L92.5808 22.3182H90.0067H87.5779L83.8252 33.6856L80.5813 22.3182H75.5604V22.3182H72.1808L66.0508 28.9793V14.7219H61.3008V39.9957H66.0508V35.2803L68.0271 33.1376L72.7483 39.9957H78.6634L71.3338 29.7676L76.2525 24.5101L81.1422 39.9957H86.0179L90.0067 27.9006L93.9955 39.9957H98.8712L104.453 22.3182H99.4321Z" fill="white"/>
<path d="M127.169 24.8317V22.3182H122.607V39.9957H127.357V34.536C127.357 31.5289 126.665 26.2193 133.282 27.0646V22.2715C129.538 21.9187 127.913 23.6444 127.169 24.8317V24.8317Z" fill="white"/>
<path d="M157.721 29.0448C156.287 28.7554 154.726 28.6746 154.726 27.1451C154.726 25.8088 156.272 25.4385 157.254 25.4385C158.236 25.4385 159.653 26.1469 159.894 27.7891L163.828 26.96C163.597 25.036 161.907 21.7838 157.125 21.7838C153.905 21.7838 150.29 23.748 150.29 27.3452C150.29 31.1861 153.374 32.4741 156.658 33.1664C159.943 33.8587 159.508 34.8561 159.508 35.2111C159.508 35.7328 158.928 36.7715 157.194 36.7715C155.46 36.7715 154.292 35.7102 153.889 34.1324L149.832 35.0179C150.54 38.093 152.714 40.3952 157.141 40.3952C159.793 40.3952 164 39.5098 164 34.8408C164 30.1718 159.155 29.3343 157.721 29.0448V29.0448Z" fill="white"/>
<path d="M6.20952 14.7219H0V20.9314H6.20952V14.7219Z" fill="white"/>
<path d="M6.20952 21.1493H0V27.3099H6.20952V21.1493Z" fill="white"/>
<path d="M6.20952 27.5278H0V33.5684H6.20952V27.5278Z" fill="white"/>
<path d="M6.20952 33.7863H0V39.9958H6.20952V33.7863Z" fill="white"/>
<path d="M12.5278 33.7863H6.42725V39.9958H11.5666C11.8912 39.9958 12.2122 39.9637 12.5278 39.9058V33.7863Z" fill="white"/>
<path d="M12.5278 27.5278H6.42725V33.5684H12.5278V27.5278Z" fill="white"/>
<path d="M6.42725 21.1493V27.3099H12.1758L12.5278 27.1741V21.1493H6.42725Z" fill="white"/>
<path d="M6.42725 20.9314H12.5278V14.8738C12.1745 14.7733 11.8397 14.7219 11.5424 14.7219H6.42725V20.9314Z" fill="white"/>
<path d="M12.7458 20.9314H16.9755C16.9757 20.9089 16.9763 20.8867 16.9763 20.8641C16.9763 17.6029 14.6516 15.5798 12.7458 14.9417V20.9314Z" fill="white"/>
<path d="M12.7458 21.1493V27.0858C14.575 26.3027 16.8459 24.4842 16.9694 21.1493H12.7458V21.1493Z" fill="white"/>
<path d="M12.7458 33.5684H17.681C17.681 33.5658 17.6811 33.5634 17.6811 33.5608C17.6811 30.0444 15.1034 28.0864 13.1108 27.5278H12.7458V33.5684Z" fill="white"/>
<path d="M12.7458 33.7863V39.8613C15.3884 39.2652 17.5685 36.7353 17.6751 33.7863H12.7458Z" fill="white"/>
</svg>
