<svg width="160" height="60" viewBox="0 0 160 60" fill="none" xmlns="http://www.w3.org/2000/svg">
<path d="M44.7552 36.2259C41.8045 36.2259 39.976 33.5776 39.976 29.9135C39.976 26.2857 41.5148 23.5829 44.7371 23.5829C46.855 23.5829 48.249 24.9434 48.5027 26.7391H53.4268C53.173 24.508 52.1775 22.549 50.4397 21.243C49.0276 20.1546 47.0724 19.4835 44.7552 19.4835C38.8174 19.4835 34.9614 23.982 34.9614 29.9135C34.9614 35.8812 38.9441 40.2527 44.7916 40.2527C47.5973 40.2527 49.6429 39.4728 51.1637 37.9853C52.5213 36.6794 53.4268 34.8654 53.5532 32.8883H48.6292C48.4122 34.8292 46.9637 36.2259 44.7552 36.2259Z" fill="white"/>
<path d="M62.641 25.161C58.0789 25.161 55.0195 28.4261 55.0195 32.725C55.0195 37.024 58.0789 40.289 62.641 40.289C67.2389 40.289 70.2442 37.024 70.2442 32.725C70.2442 28.4261 67.2389 25.161 62.641 25.161ZM62.6228 37.0421C60.6494 37.0421 59.6175 35.3189 59.6175 32.725C59.6175 30.1311 60.6494 28.3716 62.6228 28.3716C64.5961 28.3716 65.664 30.1311 65.664 32.725C65.6462 35.3189 64.5961 37.0421 62.6228 37.0421Z" fill="white"/>
<path d="M76.6857 23.6428C77.6542 22.6724 77.6542 21.0989 76.6857 20.1285C75.7169 19.158 74.1468 19.158 73.1783 20.1285C72.2098 21.0989 72.2098 22.6724 73.1783 23.6428C74.1468 24.6133 75.7169 24.6133 76.6857 23.6428Z" fill="white"/>
<path d="M70.9866 28.7526H72.8872V39.8356H77.4132V25.542H70.9866V28.7526Z" fill="white"/>
<path d="M88.5467 25.1246C86.5738 25.1246 85.1976 25.959 84.1479 27.5008H84.0574V25.5418H79.6946V39.8173H84.2384V31.9268C84.2384 30.1673 85.234 28.9157 86.7366 28.9157C88.221 28.9157 88.9633 29.9496 88.9633 31.4552V39.8173H93.5071V30.5301C93.5071 27.3557 91.6606 25.1246 88.5467 25.1246Z" fill="white"/>
<path d="M104.152 19.8824H95.6619V39.8173H103.845C106.343 39.8173 108.352 39.1825 109.909 38.0034C112.136 36.2983 113.367 33.4868 113.367 29.9678C113.367 23.873 109.655 19.8824 104.152 19.8824ZM103.482 35.6816H100.586V24.0182H103.537C106.632 24.0182 108.388 26.3581 108.388 29.9859C108.37 33.6319 106.705 35.6816 103.482 35.6816Z" fill="white"/>
<path d="M126.816 27.0111C125.586 25.9047 123.974 25.2335 121.947 25.2335C117.602 25.2335 114.633 28.4985 114.633 32.7612C114.633 37.0783 117.53 40.3434 122.237 40.3434C124.047 40.3434 125.495 39.8717 126.69 39.0374C127.939 38.1667 128.772 36.9513 129.08 35.6635H124.662C124.264 36.5523 123.486 37.0783 122.291 37.0783C120.426 37.0783 119.376 35.8812 119.086 33.9584H129.333C129.351 31.038 128.518 28.5711 126.816 27.0111ZM119.105 31.2376C119.412 29.5325 120.299 28.4441 122.019 28.4441C123.486 28.4441 124.554 29.5325 124.717 31.2376H119.105Z" fill="white"/>
<path d="M138.276 30.893C136.465 30.5665 134.854 30.4214 134.854 29.4237C134.854 28.5349 135.723 28.1177 136.827 28.1177C138.077 28.1177 138.946 28.5167 139.109 29.7865H143.29C143.073 26.9749 140.901 25.2155 136.864 25.2155C133.496 25.2155 130.709 26.7754 130.709 29.7865C130.709 33.1422 133.352 33.7952 135.832 34.2124C137.733 34.5389 139.452 34.6841 139.452 35.9719C139.452 36.897 138.584 37.3868 137.226 37.3868C135.723 37.3868 134.782 36.6975 134.601 35.2645H130.311C130.455 38.4207 133.062 40.3434 137.244 40.3434C140.973 40.3434 143.725 38.7291 143.725 35.6092C143.743 31.9632 140.792 31.3102 138.276 30.893Z" fill="white"/>
<path d="M154.406 30.911L159.421 25.5418H154.189L149.953 30.3669V19.8824H145.481V39.8354H149.953V35.4458L151.329 33.9947L154.75 39.8354H160L154.406 30.911Z" fill="white"/>
<path d="M15.0118 31.2377C15.7717 31.2377 16.3877 30.6205 16.3877 29.8591C16.3877 29.0978 15.7717 28.4806 15.0118 28.4806C14.252 28.4806 13.636 29.0978 13.636 29.8591C13.636 30.6205 14.252 31.2377 15.0118 31.2377Z" fill="white"/>
<path d="M25.9825 31.2377C26.7424 31.2377 27.3584 30.6205 27.3584 29.8591C27.3584 29.0978 26.7424 28.4806 25.9825 28.4806C25.2226 28.4806 24.6067 29.0978 24.6067 29.8591C24.6067 30.6205 25.2226 31.2377 25.9825 31.2377Z" fill="white"/>
<path d="M25.9825 42.248C26.7424 42.248 27.3584 41.6308 27.3584 40.8694C27.3584 40.1081 26.7424 39.4908 25.9825 39.4908C25.2226 39.4908 24.6067 40.1081 24.6067 40.8694C24.6067 41.6308 25.2226 42.248 25.9825 42.248Z" fill="white"/>
<path d="M30.0193 18.5947C29.8745 16.5812 28.2633 14.9487 26.2539 14.8036C24.9685 14.7129 23.8099 15.2026 22.9953 16.037C22.3798 16.6719 21.547 17.0528 20.66 17.0528H20.3341C19.429 17.0528 18.5781 16.6719 17.9445 16.0189C17.2023 15.2571 16.1704 14.8036 15.0299 14.8036C13.8894 14.8036 12.8575 15.2752 12.1153 16.0189C11.4817 16.6719 10.6308 17.0528 9.72566 17.0528H9.4179C8.53087 17.0528 7.68 16.7082 7.06449 16.0733C6.93778 15.9464 6.81103 15.8194 6.68432 15.7105C5.14558 14.4589 2.88266 14.4952 1.39821 15.8194C-0.394008 17.3975 -0.46642 20.1546 1.19907 21.8234C1.21718 21.8415 1.23528 21.8597 1.25338 21.8778C1.9051 22.4945 2.24906 23.3653 2.24906 24.2541V24.5624C2.24906 25.4694 1.86889 26.3219 1.21717 26.9568C0.456841 27.7005 0.0042624 28.7344 0.0042624 29.8772C0.0042624 31.0199 0.474946 32.0539 1.21717 32.7976C1.86889 33.4324 2.24906 34.285 2.24906 35.1919V35.6091C2.24906 36.4979 1.86889 37.3323 1.23528 37.9491C0.43874 38.7291 -0.0500469 39.8355 0.0042624 41.0508C0.0947782 43.1912 1.83268 44.9145 3.95075 44.987C5.18178 45.0233 6.28606 44.5335 7.06449 43.7173C7.68 43.0824 8.51273 42.6834 9.3998 42.6834H9.74376C10.6308 42.6834 11.4636 43.0643 12.0791 43.7173C12.8937 44.5698 14.0704 45.0596 15.3558 44.9689C17.3652 44.8238 18.9945 43.1912 19.1393 41.1597C19.3022 38.7472 17.4195 36.7519 15.048 36.7519C13.9256 36.7519 12.8937 37.2053 12.1515 37.9491C11.5179 38.5839 10.667 38.9649 9.77996 38.9649H9.3998C8.51273 38.9649 7.6438 38.6202 7.01018 37.9672C6.99208 37.9491 6.99208 37.9491 6.97398 37.9309C6.32226 37.296 5.9421 36.4435 5.9421 35.5366V35.1738C5.9421 34.2668 6.32226 33.4143 6.97398 32.7794C7.7343 32.0357 8.18691 31.0018 8.18691 29.859C8.18691 28.7163 7.7162 27.6823 6.97398 26.9386C6.32226 26.3038 5.9421 25.4512 5.9421 24.5443V24.2178C5.9421 23.3108 6.32226 22.4583 6.95588 21.8234C6.97398 21.8053 6.97398 21.8053 6.99208 21.7872C7.01018 21.769 7.01018 21.769 7.02828 21.7509C7.6619 21.116 8.51273 20.7351 9.4179 20.7351H9.74376C10.6489 20.7351 11.4998 21.116 12.1334 21.769C12.8756 22.5308 13.9075 22.9843 15.048 22.9843C16.1885 22.9843 17.2204 22.5127 17.9626 21.769C18.5962 21.116 19.4471 20.7351 20.3522 20.7351H20.6419C21.547 20.7351 22.3979 21.116 23.0315 21.769C23.7737 22.5308 24.8056 22.9843 25.9461 22.9843C28.2995 23.0025 30.1822 21.0072 30.0193 18.5947Z" fill="white"/>
</svg>
