<svg width="114" height="36" viewBox="0 0 114 36" fill="none" xmlns="http://www.w3.org/2000/svg">
<path d="M107.967 25.9624C107.967 24.29 109.35 22.9893 110.984 22.9893C112.68 22.9893 114 24.352 114 25.9624C114 27.5729 112.618 28.9356 110.984 28.9356C109.35 28.9356 107.967 27.6348 107.967 25.9624Z" fill="#CFDAE3"/>
<path d="M17.3451 17.9721C17.3451 21.4408 16.4653 24.0423 14.5799 25.9005C12.6946 27.7587 10.0551 28.6878 6.66152 28.6878H0V8.06152H7.03859C10.3693 8.06152 12.8831 8.86676 14.6428 10.6011C16.4653 12.2735 17.3451 14.7511 17.3451 17.9721ZM11.5634 18.1579C11.5634 16.2377 11.1863 14.875 10.4322 13.9459C9.7409 13.0787 8.54686 12.5832 7.03859 12.5832H5.53032V24.1042H6.78721C8.48401 24.1042 9.67806 23.6087 10.495 22.6176C11.1863 21.6266 11.5634 20.14 11.5634 18.1579Z" fill="#CFDAE3"/>
<path d="M40.8489 8H35.6328V28.6883H40.8489V8Z" fill="#CFDAE3"/>
<path d="M58.0683 20.9455C58.0683 23.4232 57.4399 25.4053 56.0573 26.8299C54.6747 28.2546 52.7894 28.9359 50.4013 28.9359C48.0761 28.9359 46.2536 28.2546 44.871 26.768C43.4884 25.2814 42.7971 23.3612 42.7971 20.9455C42.7971 18.4679 43.4256 16.4858 44.8081 15.1231C46.1907 13.6984 48.0761 13.0171 50.4642 13.0171C51.9724 13.0171 53.2922 13.3268 54.4234 13.9462C55.6174 14.5656 56.4344 15.4947 57.0628 16.6716C57.817 17.9724 58.0683 19.3351 58.0683 20.9455ZM48.2017 20.9455C48.2017 22.3082 48.3903 23.2373 48.7045 23.9187C49.0187 24.6 49.5843 24.9097 50.4642 24.9097C51.344 24.9097 51.8467 24.6 52.2238 23.9187C52.538 23.2373 52.7266 22.1843 52.7266 20.9455C52.7266 19.5828 52.538 18.6537 52.2238 17.9724C51.9096 17.353 51.344 16.9813 50.4642 16.9813C49.71 16.9813 49.0816 17.291 48.7045 17.9724C48.3903 18.6537 48.2017 19.5828 48.2017 20.9455Z" fill="#CFDAE3"/>
<path d="M65.4212 13.2646H60.2051V28.626H65.4212V13.2646Z" fill="#CFDAE3"/>
<path d="M65.4212 8H60.2051V11.4687H65.4212V8Z" fill="#CFDAE3"/>
<path d="M76.0418 24.7237C76.7331 24.7237 77.6129 24.5379 78.5556 24.2282V28.1305C77.8643 28.4402 77.173 28.626 76.5446 28.7499C75.9161 28.8737 75.162 28.9357 74.2822 28.9357C72.5225 28.9357 71.2656 28.5021 70.4487 27.573C69.6945 26.7058 69.2546 25.3431 69.2546 23.5468V17.2289H67.4321V13.2646H69.2546V9.4243L74.5336 8.55713V13.3885H77.9272V17.2908H74.5336V23.2371C74.6592 24.2901 75.0992 24.7237 76.0418 24.7237Z" fill="#CFDAE3"/>
<path d="M88.2337 24.7237C88.925 24.7237 89.8048 24.5379 90.7475 24.2282V28.1305C90.0562 28.4402 89.3649 28.626 88.7365 28.7499C88.108 28.8737 87.3539 28.9357 86.4741 28.9357C84.7144 28.9357 83.4575 28.5021 82.6406 27.573C81.8864 26.7058 81.4465 25.3431 81.4465 23.5468V17.2289H79.624V13.2646H81.4465V9.36236L86.7255 8.55713V13.3885H90.1191V17.2908H86.7255V23.2371C86.7883 24.2901 87.2911 24.7237 88.2337 24.7237Z" fill="#CFDAE3"/>
<path d="M104.825 14.8134C103.568 13.5746 101.808 13.0171 99.5457 13.0171C97.1576 13.0171 95.2723 13.6984 93.9526 15.1231C92.6328 16.5477 92.0044 18.5298 92.0044 21.1313C92.0044 23.609 92.6957 25.5911 94.0783 26.9538C95.5237 28.3165 97.4719 28.9978 99.9857 28.9978C101.243 28.9978 102.248 28.9359 103.128 28.7501C103.945 28.5643 104.888 28.3165 105.642 27.8829L104.888 24.4142C104.322 24.662 103.693 24.8478 103.191 24.9717C102.437 25.1575 101.557 25.2194 100.677 25.2194C99.6714 25.2194 98.8544 24.9717 98.2888 24.5381C97.7232 24.0426 97.409 23.3612 97.409 22.494H106.773V20.0784C106.71 17.7865 106.019 16.0522 104.825 14.8134ZM97.409 19.0873C97.4719 18.2821 97.7233 17.6007 98.1003 17.2291C98.4774 16.8574 98.9801 16.6716 99.6714 16.6716C100.3 16.6716 100.928 16.8574 101.305 17.291C101.682 17.7246 101.871 18.2821 101.934 19.0873H97.409Z" fill="#CFDAE3"/>
<path d="M31.7365 14.8134C30.4168 13.5746 28.72 13.0171 26.4576 13.0171C24.0695 13.0171 22.1842 13.6984 20.8644 15.1231C19.5447 16.5477 18.9163 18.5298 18.9163 21.1313C18.9163 23.609 19.6076 25.5911 20.9901 26.9538C22.4356 28.3165 24.3837 28.9978 26.8975 28.9978C28.1544 28.9978 29.1599 28.9359 30.0397 28.7501C30.8567 28.5643 31.7994 28.3165 32.5535 27.8829L31.7994 24.3523C31.2338 24.6 30.6053 24.7859 30.1026 24.9097C29.3485 25.0956 28.4686 25.1575 27.5888 25.1575C26.5833 25.1575 25.7663 24.9097 25.2007 24.4762C24.6351 23.9806 24.3209 23.2993 24.3209 22.4321H33.6847V20.0784C33.6219 17.7865 32.9306 16.0522 31.7365 14.8134ZM24.258 19.0873C24.3209 18.2821 24.5723 17.6007 24.9493 17.2291C25.3264 16.8574 25.8292 16.6716 26.5204 16.6716C27.2117 16.6716 27.7773 16.8574 28.1544 17.291C28.5315 17.7246 28.72 18.2821 28.7829 19.0873H24.258Z" fill="#CFDAE3"/>
</svg>
