<svg width="274" height="60" viewBox="0 0 274 60" fill="none" xmlns="http://www.w3.org/2000/svg">
<path d="M27.234 1.70911C12.2005 1.70911 0 14.0342 0 29.0968C0 44.1452 12.2005 56.3579 27.234 56.3579C42.2813 56.3579 54.5942 44.1452 54.5942 29.0968C54.5942 14.0342 42.2813 1.70911 27.234 1.70911ZM25.0318 19.7197H23.1387V37.9405H25.0318V38.881H18.7212V37.9405H20.8247V20.6602L15.664 39.204H14.9348L9.56373 20.0284H9.46561V37.9406H11.6673V38.881H6.94128V37.9406H8.62414V19.7197H6.94128V18.7649H11.5691L15.9866 34.782L20.5022 18.7649H25.0318V19.7197H25.0318ZM43.7536 39.2038C42.3935 39.2038 40.0798 38.7827 38.8178 37.9407V38.8809H32.3949V37.9405H34.4985L33.1383 31.9323H28.3982L26.8134 37.9405H29.0292V38.8809H25.0324V37.9405H25.8738L31.0346 18.456H32.6053L37.1349 37.9405H38.8173V32.7745H39.4484C39.7569 36.3542 41.2294 38.4598 43.8658 38.4598C45.6468 38.4598 47.2315 37.0982 47.1193 34.459C46.9089 28.9843 38.9154 30.9917 38.7051 24.0289C38.4946 20.1406 41.1312 18.456 43.5432 18.456C44.8054 18.456 46.8109 18.8771 47.9608 19.6072V24.0289H47.2315C46.9089 20.8705 45.3383 19.0877 43.3329 19.0877C41.8603 19.0877 40.2898 20.66 40.388 22.8781C40.5001 27.9315 48.5919 25.8259 48.8021 33.4062C49.0125 37.6175 46.6985 39.2038 43.7536 39.2038L43.7536 39.2038Z" fill="white"/>
<path d="M28.6086 30.9917H32.9278L30.9223 22.3445L28.6086 30.9917Z" fill="white"/>
<path fill-rule="evenodd" clip-rule="evenodd" d="M67.4347 36.3881H66.1726V36.9076H69.5382V36.3881H67.9676V25.4387L71.8521 37.0198H72.1746L75.961 25.4387H76.0592V36.3881H74.3764V36.9076H79.0043V36.3881H77.644V25.2282H79.0043V24.807H75.7508L73.1142 32.4857L72.5955 34.3807L72.0625 32.5979L69.4401 24.807H66.1726V25.2282H67.4347V36.3881V36.3881Z" fill="white"/>
<path fill-rule="evenodd" clip-rule="evenodd" d="M79.6353 32.6962C79.6353 34.3807 80.4768 37.0198 83.001 37.0198C85.6374 37.0198 86.3667 34.3807 86.3667 32.6962C86.3667 31.0118 85.6374 28.3866 83.001 28.3866C80.4768 28.3866 79.6353 31.0118 79.6353 32.6962V32.6962ZM81.3182 32.6962C81.3182 30.9134 81.3182 28.8078 83.001 28.8078C84.6839 28.8078 84.796 30.9134 84.796 32.6962C84.796 34.4931 84.6839 36.5987 83.001 36.5987C81.3182 36.5987 81.3182 34.4931 81.3182 32.6962Z" fill="white"/>
<path fill-rule="evenodd" clip-rule="evenodd" d="M86.9973 36.3881V36.9076H90.7837V36.3881H89.6337V32.0646C89.6337 30.4923 90.363 29.0184 91.6251 29.0184C92.677 29.0184 92.789 29.8606 92.789 30.8011V36.3881H91.7374V36.9076H95.4256V36.3881H94.2616V30.7029C94.2616 29.0184 93.6306 28.3866 92.1581 28.3866C90.994 28.3866 90.1526 29.0184 89.7319 30.1695H89.6337V28.5971H86.9973V29.0184H88.1614V36.3881H86.9973H86.9973Z" fill="white"/>
<path fill-rule="evenodd" clip-rule="evenodd" d="M102.465 32.1768C102.465 29.9588 101.316 28.3866 99.3102 28.3866C97.3187 28.3866 96.0566 30.3801 96.0566 32.6962C96.0566 35.1248 96.898 37.0198 99.0999 37.0198C100.783 37.0198 101.624 36.4865 102.255 34.4931L101.834 34.3807C101.414 35.5457 100.783 36.4865 99.6328 36.4865C97.7394 36.4865 97.6273 34.9141 97.6273 32.4857V32.1768H102.465H102.465ZM97.6274 31.7557C97.6274 30.7029 97.9499 28.8078 99.212 28.8078C100.684 28.8078 100.783 30.4923 100.783 31.7557H97.6274V31.7557Z" fill="white"/>
<path fill-rule="evenodd" clip-rule="evenodd" d="M102.886 29.0184H104.05V34.9142C104.05 35.967 104.148 36.9076 105.621 36.9076C106.785 36.9076 107.304 36.3882 107.626 35.4336L107.205 35.3354C106.995 35.8548 106.785 36.3882 106.252 36.3882C105.621 36.3882 105.522 35.8548 105.522 34.9142V29.0184H107.093V28.5973H105.522V26.2811H104.05V28.5973H102.886V29.0184Z" fill="white"/>
<path fill-rule="evenodd" clip-rule="evenodd" d="M111.932 35.7564C112.254 36.8092 112.773 36.9076 113.516 36.9076H114.666V36.3881C113.825 36.3881 113.516 36.5987 113.516 35.3353V30.8011C113.516 29.4395 112.983 28.3866 110.782 28.3866C109.618 28.3866 108.047 28.6955 108.047 30.3801C108.047 30.9134 108.356 31.0118 108.678 31.0118C109.099 31.0118 109.407 30.7029 109.407 30.0712C109.407 29.0184 110.038 28.8078 110.782 28.8078C111.721 28.8078 112.044 29.5378 112.044 30.7029V31.4327C110.249 32.0646 107.626 32.0646 107.626 34.5913C107.626 36.1776 108.145 37.0198 109.618 37.0198C110.571 37.0198 111.413 36.8092 111.932 35.7564H111.932ZM112.044 31.8539V33.8613C112.044 35.0124 111.511 36.4865 110.249 36.4865C109.519 36.4865 109.309 35.6441 109.309 34.5913C109.309 32.9068 109.94 32.5979 110.782 32.2751L112.044 31.8539H112.044Z" fill="white"/>
<path fill-rule="evenodd" clip-rule="evenodd" d="M116.041 36.3881H114.779V36.9076H118.663V36.3881H117.513V32.5979C117.513 30.8011 118.242 29.0184 119.084 29.0184C119.294 29.0184 119.406 29.2288 119.406 29.4395V30.2817C119.406 30.8011 119.715 30.9134 120.136 30.9134C120.669 30.9134 120.879 30.4923 120.879 29.8606C120.879 28.906 120.346 28.3866 119.504 28.3866C118.355 28.3866 117.822 29.4395 117.513 30.3801V28.5971H114.779V29.0184H116.041V36.3881H116.041Z" fill="white"/>
<path fill-rule="evenodd" clip-rule="evenodd" d="M124.034 37.8622C123.613 39.4344 123.081 40.0661 122.66 40.0661C122.239 40.0661 122.141 39.645 122.141 39.2237C122.141 38.8027 122.029 38.3815 121.51 38.3815C121.089 38.3815 120.879 38.7044 120.879 39.3361C120.879 39.9678 121.398 40.6978 122.239 40.6978C124.132 40.6978 124.343 38.0727 124.763 36.9076L127.4 28.9062H128.451V28.5973H125.507V28.9062H126.867L125.394 33.5385C125.184 34.1703 125.086 34.802 125.086 34.802H124.974C124.974 34.802 124.974 34.1703 124.763 33.5385L123.291 28.9062H124.665V28.5973H120.556V28.9062H121.608L124.343 36.9076L124.034 37.8622H124.034Z" fill="white"/>
<path fill-rule="evenodd" clip-rule="evenodd" d="M131.396 36.3881H130.246V36.9074H133.5V36.3881H131.929L133.079 32.5978H135.814L136.865 36.3881H135.393V36.9074H140.021V36.3881H138.66L135.183 24.5963H134.762L131.396 36.3881ZM135.603 32.0644H133.079L134.033 29.0182L134.341 27.5443H134.453L134.762 29.0182L135.603 32.0644V32.0644Z" fill="white"/>
<path fill-rule="evenodd" clip-rule="evenodd" d="M144.76 36.9074H147.496V36.3881H146.233V28.5971H143.499V29.0182H144.76V33.4401C144.76 35.0122 144.129 36.4863 142.756 36.4863C141.816 36.4863 141.605 35.5457 141.605 34.5913V28.5971H139.081V29.0182H140.231V34.7035C140.231 36.3881 140.862 37.0196 142.335 37.0196C143.499 37.0196 144.339 36.3881 144.76 35.2229V36.9074H144.76Z" fill="white"/>
<path fill-rule="evenodd" clip-rule="evenodd" d="M147.706 29.0183H148.856V34.9141C148.856 35.9669 148.968 36.9075 150.538 36.9075C151.59 36.9075 152.123 36.3881 152.432 35.4335L152.123 35.3353C151.801 35.8547 151.59 36.3881 151.071 36.3881C150.44 36.3881 150.328 35.8547 150.328 34.9141V29.0183H151.913V28.5972H150.328V26.2809H148.856V28.5972H147.706V29.0183H147.706Z" fill="white"/>
<path fill-rule="evenodd" clip-rule="evenodd" d="M152.334 36.3881V36.9076H156.218V36.3881H155.068V32.0645C155.068 30.4923 155.699 29.0184 157.06 29.0184C158.112 29.0184 158.224 29.8606 158.224 30.801V36.3881H157.06V36.9076H160.846V36.3881H159.696V30.7029C159.696 29.0184 158.952 28.3866 157.593 28.3866C156.429 28.3866 155.489 29.0184 155.068 30.1695V24.807H152.334V25.2282H153.596V36.3881H152.334H152.334Z" fill="white"/>
<path fill-rule="evenodd" clip-rule="evenodd" d="M161.379 32.6962C161.379 34.3807 162.221 37.0198 164.744 37.0198C167.269 37.0198 168.111 34.3807 168.111 32.6962C168.111 31.0118 167.269 28.3866 164.744 28.3866C162.221 28.3866 161.379 31.0118 161.379 32.6962ZM163.062 32.6962C163.062 30.9134 163.062 28.8078 164.744 28.8078C166.428 28.8078 166.428 30.9134 166.428 32.6962C166.428 34.4931 166.428 36.5987 164.744 36.5987C163.062 36.5987 163.062 34.4931 163.062 32.6962Z" fill="white"/>
<path fill-rule="evenodd" clip-rule="evenodd" d="M169.905 36.3881H168.643V36.9076H172.639V36.3881H171.378V32.5979C171.378 30.8011 172.219 29.0184 172.948 29.0184C173.158 29.0184 173.369 29.2288 173.369 29.4395V30.2817C173.369 30.8011 173.691 30.9134 174 30.9134C174.533 30.9134 174.744 30.4923 174.744 29.8606C174.744 28.906 174.211 28.3866 173.369 28.3866C172.317 28.3866 171.687 29.4395 171.378 30.3801V28.5971H168.643V29.0184H169.905V36.3881V36.3881Z" fill="white"/>
<path fill-rule="evenodd" clip-rule="evenodd" d="M176.104 36.3881H174.842V36.9076H178.838V36.3881H177.576V28.5972H174.842V29.0184H176.104V36.3881ZM176.006 25.9582C176.006 26.4916 176.427 26.9127 176.848 26.9127C177.365 26.9127 177.786 26.4916 177.786 25.9582C177.786 25.3265 177.365 24.9053 176.848 24.9053C176.315 24.9053 176.006 25.3265 176.006 25.9582Z" fill="white"/>
<path fill-rule="evenodd" clip-rule="evenodd" d="M179.049 29.0183H180.213V34.9141C180.213 35.9669 180.311 36.9075 181.895 36.9075C182.947 36.9075 183.466 36.3881 183.789 35.4335L183.368 35.3353C183.157 35.8547 182.947 36.3881 182.414 36.3881C181.783 36.3881 181.684 35.8547 181.684 34.9141V29.0183H183.256V28.5972H181.684V26.2809H180.213V28.5972H179.049V29.0183H179.049Z" fill="white"/>
<path fill-rule="evenodd" clip-rule="evenodd" d="M186.201 37.862C185.892 39.4343 185.262 40.066 184.841 40.066C184.42 40.066 184.42 39.6448 184.42 39.2236C184.42 38.8025 184.308 38.3813 183.789 38.3813C183.368 38.3813 183.046 38.7043 183.046 39.3359C183.046 39.9676 183.579 40.6976 184.42 40.6976C186.313 40.6976 186.523 38.0726 186.944 36.9074L189.567 28.906H190.618V28.5971H187.786V28.906H189.146L187.673 33.5383C187.463 34.17 187.253 34.8018 187.253 34.8018C187.253 34.8018 187.154 34.17 186.944 33.5383L185.471 28.906H186.832V28.5971H182.737V28.906H183.887L186.523 36.9074L186.201 37.862H186.201Z" fill="white"/>
<path fill-rule="evenodd" clip-rule="evenodd" d="M193.827 32.7103C193.827 34.3949 194.669 37.0338 197.192 37.0338C199.717 37.0338 200.573 34.3949 200.573 32.7103C200.573 31.0258 199.717 28.4006 197.192 28.4006C194.669 28.4006 193.827 31.0258 193.827 32.7103ZM195.511 32.7103C195.511 30.9276 195.51 28.8219 197.192 28.8219C198.876 28.8219 198.876 30.9276 198.876 32.7103C198.876 34.5071 198.876 36.6129 197.192 36.6129C195.51 36.6129 195.511 34.5071 195.511 32.7103Z" fill="white"/>
<path fill-rule="evenodd" clip-rule="evenodd" d="M202.354 29.0323V36.4021H201.093V36.9215H204.991V36.4021H203.827V29.0323H205.201V28.6111H203.827V26.7161C203.827 25.6633 203.939 25.0176 204.668 25.0176C205.3 25.0176 205.51 25.3404 205.51 26.0844C205.51 26.7161 205.72 26.9267 206.14 26.9267C206.561 26.9267 206.771 26.7161 206.771 26.1826C206.771 24.9193 205.51 24.5963 204.668 24.5963C203.518 24.5963 202.354 25.0176 202.354 26.9267V28.6111H201.093V29.0323H202.354H202.354Z" fill="white"/>
<path fill-rule="evenodd" clip-rule="evenodd" d="M209.829 36.2898C210.768 36.8231 212.24 37.0338 213.194 37.0338C215.185 37.0338 216.77 36.1916 216.77 33.5525C216.77 29.0323 211.188 30.2958 211.188 27.2356C211.188 25.8739 212.353 25.0176 213.293 25.0176C214.666 25.0176 215.718 25.9721 215.928 27.9795H216.349L216.237 25.2282C215.508 24.8069 214.345 24.5963 213.503 24.5963C211.82 24.5963 210.038 25.5509 210.038 27.8671C210.038 32.0784 215.606 30.9274 215.606 34.184C215.606 35.8687 214.457 36.6127 213.293 36.6127C211.399 36.6127 210.347 35.3493 210.136 33.2436H209.717L209.829 36.2898V36.2898Z" fill="white"/>
<path fill-rule="evenodd" clip-rule="evenodd" d="M218.762 36.4021H217.499V36.9216H221.398V36.4021H220.233V28.6113H217.499V29.0324H218.762V36.4021ZM218.551 25.9722C218.551 26.5057 218.972 26.9267 219.504 26.9267C219.925 26.9267 220.346 26.5057 220.346 25.9722C220.346 25.3404 219.925 24.9194 219.504 24.9194C218.972 24.9194 218.551 25.2283 218.551 25.9722Z" fill="white"/>
<path fill-rule="evenodd" clip-rule="evenodd" d="M221.608 36.4022V36.9216H225.394V36.4022H224.342V32.0786C224.342 30.5063 224.973 29.0324 226.334 29.0324C227.288 29.0324 227.499 29.8747 227.499 30.8152V36.4022H226.334V36.9216H230.12V36.4022H228.97V30.7169C228.97 29.0324 228.228 28.4006 226.867 28.4006C225.605 28.4006 224.763 29.0324 224.342 30.1836V28.6113H221.608V29.0324H222.871V36.4022H221.608V36.4022Z" fill="white"/>
<path fill-rule="evenodd" clip-rule="evenodd" d="M233.598 28.4006C232.435 28.4006 231.285 29.3413 231.285 30.9276C231.285 31.6575 231.383 32.0786 231.706 32.7103C231.074 33.0332 230.443 33.6649 230.443 34.6055C230.443 35.5599 231.074 36.4022 231.916 36.6129C231.173 36.711 230.541 37.2445 230.541 38.185C230.541 40.1924 232.644 40.6135 233.907 40.6135C235.394 40.6135 237.286 39.8696 237.286 37.5533C237.286 35.6583 236.235 34.9282 234.861 34.9282H232.337C231.495 34.9282 231.074 34.8159 231.074 34.1842C231.074 33.6649 231.706 33.1314 232.126 33.1314C232.546 33.4543 233.177 33.6649 233.808 33.6649C235.071 33.6649 236.235 32.6119 236.235 30.9276C236.235 30.3941 236.123 29.9729 235.814 29.4535C235.814 29.243 236.123 29.0324 236.235 29.0324C236.754 29.0324 236.333 30.0852 237.077 30.0852C237.384 30.0852 237.595 29.7623 237.595 29.3413C237.595 28.7096 237.077 28.4006 236.656 28.4006C236.123 28.4006 235.814 28.7096 235.604 29.0324C235.071 28.4989 234.327 28.4006 233.598 28.4006H233.598ZM232.644 30.8152C232.644 29.7623 232.756 28.8219 233.808 28.8219C234.861 28.8219 234.861 30.0852 234.861 31.138C234.861 31.9804 234.748 33.2436 233.696 33.2436C232.644 33.2436 232.644 31.7698 232.644 30.8152ZM234.65 36.6129C236.025 36.6129 236.754 36.8233 236.754 37.9744C236.754 39.2378 235.604 40.1924 234.019 40.1924C232.546 40.1924 231.593 39.6589 231.593 38.2973C231.593 36.711 232.644 36.6129 234.65 36.6129Z" fill="white"/>
<path fill-rule="evenodd" clip-rule="evenodd" d="M242.334 35.7705C242.643 36.8233 243.176 36.9216 243.905 36.9216H245.07V36.4022C244.228 36.4022 243.905 36.6129 243.905 35.3494V30.8152C243.905 29.4535 243.386 28.4006 241.171 28.4006C240.021 28.4006 238.436 28.7096 238.436 30.3941C238.436 30.9276 238.759 31.0258 239.067 31.0258C239.488 31.0258 239.811 30.7169 239.811 30.0852C239.811 29.0324 240.442 28.8219 241.171 28.8219C242.124 28.8219 242.433 29.5519 242.433 30.7169V31.4469C240.652 32.0786 238.015 32.0786 238.015 34.6055C238.015 36.1916 238.548 37.0338 240.021 37.0338C240.961 37.0338 241.803 36.8233 242.334 35.7705V35.7705ZM242.433 31.868V33.8754C242.433 35.0266 241.915 36.5005 240.652 36.5005C239.811 36.5005 239.698 35.6583 239.698 34.6055C239.698 32.9208 240.33 32.6119 241.171 32.2892L242.433 31.868V31.868Z" fill="white"/>
<path fill-rule="evenodd" clip-rule="evenodd" d="M245.168 40.6135H249.165V40.1924H247.902V35.8688C248.225 36.7111 248.954 37.0338 249.796 37.0338C252.011 37.0338 252.951 35.0266 252.951 32.7103C252.951 29.6641 251.59 28.4006 250.006 28.4006C249.067 28.4006 248.435 28.7096 247.902 29.7623V28.6113H245.28V29.0324H246.431V40.1924H245.168V40.6135V40.6135ZM247.902 31.9804C247.902 29.4535 248.954 28.9201 249.586 28.9201C250.96 28.9201 251.38 30.6045 251.38 32.7103C251.38 35.1388 250.75 36.5005 249.586 36.5005C248.113 36.5005 247.902 34.8159 247.902 33.342V31.9804V31.9804Z" fill="white"/>
<path fill-rule="evenodd" clip-rule="evenodd" d="M254.003 32.7103C254.003 34.3949 254.746 37.0338 257.368 37.0338C259.893 37.0338 260.733 34.3949 260.733 32.7103C260.733 31.0258 259.893 28.4006 257.368 28.4006C254.746 28.4006 254.003 31.0258 254.003 32.7103ZM255.685 32.7103C255.685 30.9276 255.685 28.8219 257.368 28.8219C259.051 28.8219 259.051 30.9276 259.051 32.7103C259.051 34.5071 259.051 36.6129 257.368 36.6129C255.685 36.6129 255.685 34.5071 255.685 32.7103Z" fill="white"/>
<path fill-rule="evenodd" clip-rule="evenodd" d="M262.529 36.4022H261.267V36.9216H265.151V36.4022H264.002V32.6119C264.002 30.8152 264.844 29.0324 265.572 29.0324C265.782 29.0324 265.894 29.243 265.894 29.4535V30.2959C265.894 30.8152 266.203 30.9276 266.624 30.9276C267.157 30.9276 267.367 30.5063 267.367 29.8747C267.367 28.9201 266.834 28.4006 265.993 28.4006C264.942 28.4006 264.311 29.4535 264.002 30.3941V28.6113H261.267V29.0324H262.529V36.4022V36.4022Z" fill="white"/>
<path fill-rule="evenodd" clip-rule="evenodd" d="M274 32.1908C274 29.9729 272.949 28.4006 270.943 28.4006C268.841 28.4006 267.578 30.3941 267.578 32.7103C267.578 35.1388 268.42 37.0338 270.733 37.0338C272.318 37.0338 273.16 36.5005 273.79 34.5071L273.37 34.3949C273.048 35.5599 272.416 36.5005 271.154 36.5005C269.26 36.5005 269.26 34.9282 269.26 32.4997V32.1908H274V32.1908ZM269.26 31.7698C269.26 30.7169 269.569 28.8219 270.733 28.8219C272.206 28.8219 272.318 30.5063 272.318 31.7698H269.26Z" fill="white"/>
</svg>
