<svg width="140" height="60" viewBox="0 0 140 60" fill="none" xmlns="http://www.w3.org/2000/svg">
<path fill-rule="evenodd" clip-rule="evenodd" d="M25.0747 38.5307L35.4316 10.0038H46.6061L36.3401 38.5307C36.0675 39.2575 35.2499 39.8026 34.4322 39.8026H23.4394C24.1662 39.7117 24.8021 39.2575 25.0747 38.5307ZM103.842 40.2568C99.0265 40.2568 96.0285 37.4405 96.0285 32.9888C96.0285 28.3555 98.754 25.4483 103.206 25.4483H103.569C104.114 25.4483 104.932 25.4483 105.931 25.63V19.9973H109.111V39.8026C109.111 39.8026 106.113 40.2568 103.842 40.2568ZM103.842 27.9012C100.844 27.9012 99.2991 29.5365 99.2991 32.898C99.2991 35.896 101.116 37.8039 103.932 37.8039C104.478 37.8039 105.113 37.8039 105.931 37.713V28.0829C105.876 28.0769 105.822 28.0708 105.768 28.0647L105.626 28.0488L105.624 28.0485C104.932 27.9705 104.317 27.9012 103.842 27.9012ZM60.8695 39.8026L52.4205 24.994V39.8026H49.5133V21.0875H53.6015L62.0506 35.7143V21.0875H65.0486V39.8026H60.8695ZM87.852 40.0751C86.3984 40.0751 84.9448 39.8934 83.1278 39.53H82.9461V36.8954L83.2186 36.9862C84.7631 37.3496 86.1258 37.6222 87.4886 37.6222C88.5788 37.6222 91.1226 37.4405 91.1226 35.8052C91.1226 34.4424 89.3964 34.079 87.9428 33.8973H87.852C87.727 33.8557 87.602 33.8331 87.4858 33.8121C87.3485 33.7874 87.2236 33.7648 87.1252 33.7156C85.0356 33.1705 82.8552 32.3529 82.8552 29.6274C82.8552 26.9019 85.0356 25.3574 88.7605 25.3574C90.5775 25.3574 91.8494 25.5391 92.8487 25.7208L93.3938 25.8117V28.3555L93.1213 28.2646C92.9048 28.2313 92.6822 28.195 92.4546 28.1578C91.4407 27.9922 90.3277 27.8104 89.2147 27.8104C87.7611 27.8104 85.9441 28.0829 85.9441 29.4457C85.9441 30.4894 87.2764 30.7837 88.825 31.1258L89.033 31.1718L89.2524 31.2223C91.5659 31.753 94.2115 32.3599 94.2115 35.4418C94.3023 38.4398 91.9402 40.0751 87.852 40.0751ZM117.923 40.0751C114.653 40.0751 111.655 39.53 111.655 35.3509C111.655 30.8084 116.288 30.8084 119.104 30.8084C119.223 30.8084 119.533 30.8257 119.881 30.8453C120.332 30.8704 120.847 30.8993 121.103 30.8993C121.103 28.3555 121.103 27.8104 117.378 27.8104C115.925 27.8104 114.289 28.0829 112.927 28.3555L112.654 28.4463V25.9025H112.836C114.471 25.5391 116.106 25.4483 117.742 25.4483C121.285 25.4483 124.283 25.8117 124.283 30.1725V39.8026H124.101C121.557 40.0751 119.559 40.0751 117.923 40.0751ZM119.014 33.0797C116.379 33.0797 114.653 33.4431 114.653 35.4418C114.653 37.713 116.742 37.8947 118.741 37.8947C119.167 37.8947 119.81 37.8636 120.344 37.8378L120.344 37.8378L120.344 37.8377L120.344 37.8377C120.721 37.8195 121.043 37.8039 121.194 37.8039V33.1705C120.916 33.1705 120.229 33.1365 119.696 33.11L119.696 33.11L119.695 33.11C119.359 33.0933 119.084 33.0797 119.014 33.0797ZM73.9519 40.0751C70.6813 40.0751 67.6833 39.53 67.6833 35.3509C67.6833 30.8084 72.3166 30.8084 75.133 30.8084C75.2519 30.8084 75.5613 30.8257 75.91 30.8453C76.3601 30.8704 76.8757 30.8993 77.1317 30.8993C77.1317 28.3555 77.1317 27.8104 73.4068 27.8104C71.9532 27.8104 70.3179 28.0829 68.9552 28.3555L68.6826 28.4463V25.9025H68.8643C70.4996 25.5391 72.1349 25.4483 73.7702 25.4483C77.3134 25.4483 80.3114 25.8117 80.3114 30.1725V39.8026H80.1297C77.5859 40.0751 75.5872 40.0751 73.9519 40.0751ZM75.0421 33.0797C72.4075 33.0797 70.6813 33.4431 70.6813 35.4418C70.6813 37.713 72.7709 37.8947 74.7696 37.8947C75.1952 37.8947 75.8389 37.8636 76.3722 37.8378L76.3725 37.8378L76.3727 37.8377L76.3728 37.8377C76.75 37.8195 77.072 37.8039 77.2225 37.8039V33.1705C76.877 33.1705 76.1662 33.134 75.6459 33.1073L75.6455 33.1073L75.6451 33.1073L75.6444 33.1072C75.3447 33.0918 75.1085 33.0797 75.0421 33.0797ZM136.729 46.1621V39.9843C135.548 40.166 134.822 40.166 134.367 40.166C133.095 40.166 131.733 39.8934 130.642 39.4392C128.28 38.5307 126.827 35.9869 126.827 32.7163C126.827 31.081 127.19 28.1738 129.825 26.5385C131.188 25.8117 132.732 25.4483 135.094 25.4483C135.474 25.4483 135.931 25.4679 136.422 25.4888C136.988 25.513 137.599 25.5391 138.183 25.5391L140 25.63V44.7085C139.909 44.7993 136.729 46.1621 136.729 46.1621ZM134.822 27.9012C131.642 27.9012 130.007 29.5365 130.007 32.7163C130.007 36.8045 132.459 37.713 134.458 37.713C134.912 37.713 135.548 37.713 136.729 37.5313V27.9921C135.821 27.9012 135.367 27.9012 134.822 27.9012ZM22.5307 39.4392C23.1667 39.4392 23.7118 39.1667 24.0752 38.6216C24.0752 38.5829 24.1081 38.5443 24.1528 38.4916C24.2133 38.4205 24.2955 38.3239 24.3477 38.1673L28.1634 27.7195L25.8922 21.6326C25.5288 20.6332 24.3477 20.179 23.4392 20.6332C23.0758 20.7241 22.8033 20.9966 22.6216 21.2692C22.6216 21.3202 22.5643 21.3999 22.4979 21.4921L22.4979 21.4921C22.4461 21.5641 22.3889 21.6438 22.349 21.7234L18.5333 32.1712L20.8046 38.349C21.0771 38.985 21.7131 39.4392 22.5307 39.4392ZM12.2648 19.9973H23.3485C22.5308 19.9973 21.804 20.5424 21.5315 21.2692L11.1746 49.7961H0L10.3569 21.2692C10.6295 20.5424 11.4471 19.9973 12.2648 19.9973Z" fill="white"/>
</svg>
