<svg width="157" height="24" viewBox="0 0 157 24" fill="none" xmlns="http://www.w3.org/2000/svg">
<path fill-rule="evenodd" clip-rule="evenodd" d="M144.574 11.3113C144.535 11.3444 144.486 11.3625 144.434 11.3625H142.679C142.648 11.3625 142.618 11.356 142.59 11.3432C142.562 11.3305 142.536 11.3119 142.516 11.2886C142.496 11.2653 142.48 11.238 142.472 11.2083C142.463 11.1787 142.46 11.1475 142.464 11.1169C142.605 10.0618 142.965 9.0477 143.52 8.13942C144.236 6.97137 145.3 6.05695 146.562 5.52459C147.407 5.17379 148.313 4.99502 149.227 4.99873C150.598 4.98828 151.94 5.39707 153.072 6.17035C154.216 6.97079 155.086 8.10349 155.565 9.41506C155.77 9.96463 155.916 10.5347 155.999 11.1154C156.003 11.1462 156 11.1774 155.991 11.207C155.982 11.2366 155.966 11.264 155.946 11.2872C155.925 11.3104 155.9 11.329 155.872 11.3418C155.844 11.3545 155.813 11.3611 155.782 11.361H154.026C153.974 11.3608 153.925 11.3425 153.886 11.3095C153.847 11.2765 153.821 11.2308 153.812 11.1804C153.697 10.5083 153.456 9.86387 153.103 9.2807C152.621 8.49593 151.905 7.88205 151.056 7.52544C150.476 7.28534 149.854 7.16353 149.227 7.16717C148.295 7.15726 147.382 7.43248 146.611 7.95595C145.834 8.50328 145.244 9.27646 144.921 10.1706C144.8 10.4989 144.709 10.8374 144.648 11.1819C144.64 11.2324 144.614 11.2783 144.574 11.3113ZM14.9501 13.5349H12.5466L15.148 19.3771C15.1627 19.4101 15.1689 19.4463 15.1661 19.4823C15.1632 19.5183 15.1515 19.553 15.1318 19.5833C15.1121 19.6135 15.0852 19.6384 15.0535 19.6557C15.0218 19.6729 14.9862 19.6819 14.9501 19.682H13.016C12.96 19.682 12.9053 19.6658 12.8583 19.6352C12.8114 19.6047 12.7743 19.5612 12.7517 19.51L7.58345 7.90075L2.41523 19.51C2.39256 19.5612 2.35551 19.6047 2.30858 19.6352C2.26166 19.6658 2.20687 19.682 2.1509 19.682H0.216786C0.181727 19.6812 0.14737 19.672 0.116666 19.655C0.0859616 19.6381 0.0598273 19.614 0.0405072 19.5847C0.0211871 19.5554 0.00925916 19.5219 0.00574662 19.487C0.00223409 19.4521 0.0072421 19.4169 0.0203413 19.3844L2.62034 13.5421H0.216786C0.159322 13.5421 0.104212 13.5193 0.0635792 13.4787C0.0229463 13.438 0.000119137 13.3829 0.000119137 13.3254V11.5919C-0.000849905 11.5628 0.00403791 11.5338 0.0144917 11.5067C0.0249456 11.4796 0.0407518 11.4548 0.0609685 11.4339C0.0811852 11.413 0.105399 11.3964 0.132168 11.3851C0.158937 11.3738 0.187715 11.3679 0.216786 11.3679H3.58523L6.23723 5.40727C6.2598 5.3563 6.29663 5.31296 6.34327 5.28245C6.38992 5.25195 6.44439 5.23559 6.50012 5.23535H8.66679C8.72227 5.23587 8.77643 5.25236 8.82279 5.28284C8.86916 5.31333 8.90576 5.35653 8.92823 5.40727L11.5817 11.3752H14.9501C15.0076 11.3752 15.0627 11.398 15.1033 11.4386C15.144 11.4793 15.1668 11.5344 15.1668 11.5919V13.3254C15.1649 13.3817 15.1413 13.4349 15.1008 13.474C15.0604 13.5131 15.0064 13.535 14.9501 13.5349ZM22.6779 5.45205V17.515H29.6835C29.7409 17.515 29.796 17.5378 29.8367 17.5784C29.8773 17.6191 29.9001 17.6742 29.9001 17.7317V19.4653C29.9001 19.5227 29.8773 19.5778 29.8367 19.6185C29.796 19.6591 29.7409 19.682 29.6835 19.682H20.7279C20.6704 19.682 20.6153 19.6591 20.5747 19.6185C20.5341 19.5778 20.5112 19.5227 20.5112 19.4653V5.45205C20.5112 5.39458 20.5341 5.33946 20.5747 5.29882C20.6153 5.25818 20.6704 5.23535 20.7279 5.23535H22.4612C22.5187 5.23535 22.5738 5.25818 22.6144 5.29882C22.6551 5.33946 22.6779 5.39458 22.6779 5.45205ZM34.6667 5.23535H45.0667C45.1864 5.23535 45.2834 5.33237 45.2834 5.45205V7.18564C45.2834 7.30532 45.1864 7.40234 45.0667 7.40234H34.6667C34.5471 7.40234 34.4501 7.30532 34.4501 7.18564V5.45205C34.4501 5.33237 34.5471 5.23535 34.6667 5.23535ZM45.0667 17.5151H34.6667C34.5471 17.5151 34.4501 17.6122 34.4501 17.7318V19.4654C34.4501 19.5851 34.5471 19.6821 34.6667 19.6821H45.0667C45.1864 19.6821 45.2834 19.5851 45.2834 19.4654V17.7318C45.2834 17.6122 45.1864 17.5151 45.0667 17.5151ZM34.6667 11.3667H45.0667C45.1864 11.3667 45.2834 11.4637 45.2834 11.5834V13.317C45.2834 13.4367 45.1864 13.5337 45.0667 13.5337H34.6667C34.5471 13.5337 34.4501 13.4367 34.4501 13.317V11.5834C34.4501 11.4637 34.5471 11.3667 34.6667 11.3667ZM121.32 5.23535H110.92C110.801 5.23535 110.704 5.33237 110.704 5.45205V7.18564C110.704 7.30532 110.801 7.40234 110.92 7.40234H121.32C121.44 7.40234 121.537 7.30532 121.537 7.18564V5.45205C121.537 5.33237 121.44 5.23535 121.32 5.23535ZM110.92 17.5151H121.32C121.44 17.5151 121.537 17.6122 121.537 17.7318V19.4654C121.537 19.5851 121.44 19.6821 121.32 19.6821H110.92C110.801 19.6821 110.704 19.5851 110.704 19.4654V17.7318C110.704 17.6122 110.801 17.5151 110.92 17.5151ZM121.32 11.3667H110.92C110.801 11.3667 110.704 11.4637 110.704 11.5834V13.317C110.704 13.4367 110.801 13.5337 110.92 13.5337H121.32C121.44 13.5337 121.537 13.4367 121.537 13.317V11.5834C121.537 11.4637 121.44 11.3667 121.32 11.3667ZM77.7834 5.23535H79.5168C79.6364 5.23535 79.7334 5.33237 79.7334 5.45205V19.4653C79.7334 19.5849 79.6364 19.682 79.5168 19.682H77.7834C77.6638 19.682 77.5668 19.5849 77.5668 19.4653V5.45205C77.5668 5.33237 77.6638 5.23535 77.7834 5.23535ZM75.1835 11.3781H69.6224V5.45498C69.6224 5.39751 69.5996 5.34239 69.5589 5.30175C69.5183 5.26111 69.4632 5.23828 69.4057 5.23828H67.6724C67.6149 5.23828 67.5598 5.26111 67.5192 5.30175C67.4786 5.34239 67.4557 5.39751 67.4557 5.45498V11.3781H65.5057C65.4488 11.3781 65.3941 11.4005 65.3535 11.4405C65.313 11.4805 65.2898 11.5349 65.2891 11.5919V13.3255C65.2891 13.383 65.3119 13.4381 65.3525 13.4787C65.3932 13.5194 65.4483 13.5422 65.5057 13.5422H67.4557V19.4653C67.4557 19.5228 67.4786 19.5779 67.5192 19.6185C67.5598 19.6592 67.6149 19.682 67.6724 19.682H69.4057C69.4632 19.682 69.5183 19.6592 69.5589 19.6185C69.5996 19.5779 69.6224 19.5228 69.6224 19.4653V13.5422H75.1835C75.241 13.5422 75.2961 13.5194 75.3367 13.4787C75.3773 13.4381 75.4002 13.383 75.4002 13.3255V11.5919C75.3994 11.5349 75.3763 11.4805 75.3357 11.4405C75.2952 11.4005 75.2405 11.3781 75.1835 11.3781ZM61.7183 8.43383C61.317 7.48584 60.6455 6.67701 59.7875 6.10822C58.9296 5.53943 57.9232 5.23585 56.8939 5.23535H50.7911C50.7337 5.23535 50.6786 5.25818 50.6379 5.29882C50.5973 5.33946 50.5745 5.39458 50.5745 5.45205V7.18564C50.5745 7.24311 50.5973 7.29823 50.6379 7.33887C50.6786 7.37951 50.7337 7.40234 50.7911 7.40234H56.8939C57.3043 7.40111 57.7107 7.48319 58.0885 7.6436C58.6367 7.87601 59.1058 8.2624 59.439 8.75599C59.7828 9.2621 59.9656 9.86036 59.9634 10.4722C59.9639 10.8826 59.8819 11.289 59.7221 11.667C59.4888 12.2155 59.1021 12.6851 58.6085 13.0192C58.1024 13.3617 57.505 13.5439 56.8939 13.5421H50.7911C50.7337 13.5421 50.6786 13.565 50.6379 13.6056C50.5973 13.6463 50.5745 13.7014 50.5745 13.7588V19.4653C50.5745 19.5227 50.5973 19.5778 50.6379 19.6185C50.6786 19.6591 50.7337 19.682 50.7911 19.682H52.5245C52.5819 19.682 52.637 19.6591 52.6777 19.6185C52.7183 19.5778 52.7411 19.5227 52.7411 19.4653V15.7091H56.8939C58.2825 15.7088 59.6141 15.1569 60.596 14.1749C61.5779 13.1928 62.1296 11.861 62.13 10.4722C62.1301 9.77211 61.9902 9.07903 61.7183 8.43383ZM138.389 10.4722C138.391 11.5158 138.079 12.5359 137.495 13.4006C137.163 13.89 136.751 14.3203 136.276 14.6733L138.371 19.3771C138.385 19.4101 138.392 19.4463 138.389 19.4823C138.386 19.5183 138.374 19.553 138.354 19.5833C138.335 19.6135 138.308 19.6384 138.276 19.6557C138.244 19.6729 138.209 19.6819 138.173 19.682H136.192C136.15 19.6821 136.109 19.6701 136.074 19.6472C136.039 19.6244 136.011 19.5918 135.995 19.5534L134.232 15.5965C133.878 15.6715 133.516 15.7092 133.153 15.7091H129.001V19.4653C129.001 19.5227 128.978 19.5778 128.937 19.6185C128.896 19.6591 128.841 19.682 128.784 19.682H127.051C126.993 19.682 126.938 19.6591 126.897 19.6185C126.857 19.5778 126.834 19.5227 126.834 19.4653V13.7588C126.834 13.7014 126.857 13.6463 126.897 13.6056C126.938 13.565 126.993 13.5421 127.051 13.5421H133.156C133.768 13.5439 134.366 13.3617 134.872 13.0192C135.365 12.6847 135.752 12.2152 135.986 11.667C136.145 11.2889 136.227 10.8825 136.226 10.4722C136.226 9.86817 136.048 9.27742 135.714 8.77417C135.38 8.27092 134.905 7.8776 134.348 7.6436C133.97 7.48319 133.564 7.40111 133.153 7.40234H127.051C126.993 7.40234 126.938 7.37951 126.897 7.33887C126.857 7.29823 126.834 7.24312 126.834 7.18564V5.45205C126.834 5.39458 126.857 5.33946 126.897 5.29882C126.938 5.25818 126.993 5.23535 127.051 5.23535H133.153C133.841 5.23516 134.522 5.37049 135.157 5.6336C135.793 5.89671 136.37 6.28245 136.856 6.76878C137.342 7.25511 137.728 7.83249 137.991 8.46795C138.254 9.1034 138.39 9.78447 138.389 10.4722ZM105.943 5.23547H95.543C95.4855 5.23547 95.4304 5.2583 95.3898 5.29894C95.3491 5.33958 95.3263 5.3947 95.3263 5.45217V7.18576C95.3263 7.24324 95.3491 7.29835 95.3898 7.33899C95.4304 7.37963 95.4855 7.40246 95.543 7.40246H102.939L100.063 11.0748C100.041 11.1023 100.028 11.1352 100.024 11.1699C100.02 11.2046 100.026 11.2396 100.041 11.2711C100.056 11.3026 100.08 11.3293 100.109 11.3482C100.138 11.3671 100.172 11.3775 100.207 11.3782H102.397C102.463 11.3781 102.527 11.3632 102.586 11.3344C102.645 11.3056 102.697 11.2638 102.738 11.212L106.06 6.96184C106.125 6.88753 106.163 6.79324 106.167 6.69458V5.45217C106.167 5.4231 106.161 5.39431 106.15 5.36754C106.138 5.34077 106.122 5.31655 106.101 5.29633C106.08 5.27611 106.055 5.2603 106.028 5.24985C106.001 5.23939 105.972 5.2345 105.943 5.23547ZM97.7991 17.5148H105.943C105.971 17.5148 106 17.5205 106.026 17.5313C106.052 17.5422 106.076 17.5582 106.096 17.5783C106.116 17.5984 106.132 17.6223 106.143 17.6486C106.154 17.6749 106.16 17.7031 106.16 17.7315V19.4651C106.16 19.5226 106.137 19.5777 106.096 19.6184C106.055 19.659 106 19.6818 105.943 19.6818H94.8207C94.7632 19.6818 94.7081 19.659 94.6675 19.6184C94.6268 19.5777 94.604 19.5226 94.604 19.4651V18.1895C94.6041 18.0926 94.6366 17.9985 94.6964 17.9222L97.9956 13.7111C98.0362 13.6591 98.0882 13.6172 98.1475 13.5884C98.2068 13.5596 98.2719 13.5447 98.3379 13.5449H100.533C100.568 13.5456 100.602 13.5559 100.632 13.5748C100.661 13.5938 100.684 13.6205 100.699 13.652C100.714 13.6835 100.72 13.7185 100.717 13.7532C100.713 13.7879 100.699 13.8208 100.678 13.8483L97.7991 17.5148ZM154.026 13.5293C153.974 13.5295 153.925 13.5478 153.886 13.5808C153.847 13.6138 153.821 13.6595 153.812 13.7099C153.751 14.0481 153.66 14.3802 153.54 14.7024C153.218 15.6001 152.626 16.3762 151.846 16.9242C151.076 17.4485 150.163 17.7239 149.231 17.713C148.604 17.7167 147.981 17.5949 147.401 17.3548C146.554 16.9973 145.84 16.3829 145.36 15.5981C145.008 15.0187 144.768 14.3782 144.653 13.7099C144.644 13.6595 144.618 13.6138 144.578 13.5808C144.539 13.5478 144.49 13.5295 144.439 13.5293H142.681C142.65 13.5292 142.619 13.5358 142.591 13.5485C142.563 13.5613 142.538 13.5799 142.517 13.6032C142.497 13.6264 142.482 13.6538 142.473 13.6834C142.464 13.713 142.462 13.7442 142.466 13.7749C142.549 14.3517 142.695 14.9178 142.899 15.4637C143.363 16.7687 144.224 17.8959 145.361 18.6877C146.497 19.4795 147.852 19.8964 149.237 19.88C150.153 19.8832 151.06 19.7039 151.905 19.3527C153.167 18.8201 154.231 17.907 154.949 16.7408C155.501 15.8356 155.86 14.8258 156.003 13.7749C156.007 13.7442 156.005 13.713 155.996 13.6834C155.987 13.6538 155.972 13.6264 155.951 13.6032C155.931 13.5799 155.906 13.5613 155.878 13.5485C155.849 13.5358 155.819 13.5292 155.788 13.5293H154.026Z" fill="white"/>
</svg>
