<svg width="117" height="24" viewBox="0 0 117 24" fill="none" xmlns="http://www.w3.org/2000/svg">
<path fill-rule="evenodd" clip-rule="evenodd" d="M110.727 6.14055V16.3135C110.727 16.9434 111.239 17.4541 111.872 17.4541H115.353C115.673 17.4541 115.979 17.5876 116.195 17.8222C116.871 18.5531 116.35 19.7352 115.353 19.7352H109.282C108.65 19.7352 108.138 19.2245 108.138 18.5946V6.14055C108.138 5.51064 108.65 5 109.282 5H109.582C110.214 5 110.727 5.51064 110.727 6.14055ZM2.58933 6.19035V16.3138C2.58933 16.9437 3.10191 17.4544 3.73421 17.4544H7.21554C7.53563 17.4544 7.84111 17.5879 8.05789 17.8225C8.73332 18.5535 8.21284 19.7355 7.21554 19.7355H1.14488C0.512582 19.7355 0 19.2248 0 18.5949V6.19035C0 5.56044 0.512582 5.0498 1.14488 5.0498H1.44444C2.07674 5.0498 2.58933 5.56044 2.58933 6.19035ZM17.8821 6.31769V18.4454C17.8821 19.1578 18.4618 19.7353 19.1768 19.7353C19.8919 19.7353 20.4716 19.1578 20.4716 18.4454V6.31769C20.4716 5.60532 19.8919 5.02783 19.1768 5.02783C18.4618 5.02783 17.8821 5.60532 17.8821 6.31769ZM52.6815 18.4453V6.28985C52.6815 5.57749 53.2612 5 53.9763 5C54.6914 5 55.271 5.57749 55.271 6.28985V18.4453C55.271 19.1577 54.6914 19.7352 53.9763 19.7352C53.2612 19.7352 52.6815 19.1577 52.6815 18.4453ZM66.3244 18.5177V12.4306C66.3244 11.3152 67.7048 10.787 68.4543 11.6156L75.4491 19.305C75.6808 19.5612 76.0108 19.7075 76.3569 19.7075H76.4315C77.4951 19.7075 78.0511 18.4478 77.3322 17.667L66.0029 5.39699C65.2496 4.57883 63.8801 5.10975 63.8801 6.21994V18.5177C63.8801 19.1901 64.4273 19.7352 65.1022 19.7352C65.7772 19.7352 66.3244 19.1901 66.3244 18.5177ZM28.4675 10.3472C28.4587 9.30714 29.7415 8.80364 30.4472 9.57014L33.8612 13.238C34.3129 13.7287 35.0894 13.7287 35.5411 13.238L42.785 5.37025C43.4875 4.6072 44.7648 5.10236 44.7648 6.13777V18.5997C44.7648 19.2268 44.2545 19.7352 43.625 19.7352H43.4603C42.8308 19.7352 42.3205 19.2268 42.3205 18.5997V12.3456C42.3205 11.3053 41.0331 10.8127 40.334 11.5854L36.3719 15.965L35.5478 16.876C35.0951 17.3764 34.3072 17.3764 33.8545 16.876L33.0302 15.965L28.7557 11.0925C28.5722 10.887 28.4698 10.6222 28.4675 10.3472ZM93.8501 10.7719L97.4791 17.2831L98.6141 19.3195C98.7571 19.5759 99.0297 19.7352 99.3257 19.7352H100C100.755 19.7352 101.234 18.9371 100.874 18.2817L93.8528 5.51359C93.4763 4.8288 92.4824 4.8288 92.1058 5.51359L85.0848 18.2817C84.7244 18.9371 85.204 19.7352 85.9583 19.7352H86.5255C86.8878 19.7352 87.2214 19.5403 87.3963 19.2265L92.1085 10.7719C92.4865 10.0936 93.4721 10.0936 93.8501 10.7719Z" fill="white"/>
</svg>
