<svg width="97" height="96" viewBox="0 0 97 96" fill="none" xmlns="http://www.w3.org/2000/svg">
<circle cx="48.5" cy="48" r="32.5" stroke="#415566" stroke-dasharray="2 2"/>
<circle cx="48.5" cy="48" r="23.5" stroke="#1B2B38"/>
<path d="M85 59C85 63.3394 83.0856 67.5669 79.5325 71.0738C75.9794 74.5807 70.9708 77.1862 65.2279 78.5151L56.5 59V52H85V59Z" fill="#111B24"/>
<path d="M85 59C85 63.3394 83.0856 67.5669 79.5325 71.0738C75.9794 74.5807 70.9708 77.1862 65.2279 78.5151L56.5 59V52H85V59Z" fill="#00EAC7" fill-opacity="0.06"/>
<path d="M85 59C85 63.3394 83.0856 67.5669 79.5325 71.0738C75.9794 74.5807 70.9708 77.1862 65.2279 78.5151L56.5 59V52H85V59Z" stroke="#00EAC7" stroke-width="2" stroke-linejoin="bevel"/>
<path d="M57.307 72.4967C51.583 73.8345 45.4171 73.8345 39.693 72.4967C33.969 71.1589 28.9807 68.552 25.443 65.0496C21.9054 61.5472 20 57.3292 20 53C20 48.6709 20 44.9504 20 44.9504C25.5592 39.4467 48.5 46 48.5 46L30.5 30.5V26C35.5 27.5 74.4057 38.9315 77 41.5C77 41.5 77 44.1708 77 48.5H49.5L57.307 65.5V72.4967Z" fill="#111B24" stroke="white" stroke-linejoin="bevel"/>
<path d="M30.3493 26.195C34.5141 23.7204 39.571 22.1481 44.9305 21.6614C50.29 21.1748 55.7314 21.7938 60.6206 23.4463C65.5098 25.0988 69.6453 27.7168 72.5453 30.9951C75.4452 34.2734 76.9901 38.0771 77 41.9628L48.5 42L30.3493 26.195Z" fill="#111B24" stroke="white" stroke-linejoin="bevel"/>
<path d="M65.5 70.9999L65.5 77.9999" stroke="#00EAC7" stroke-linejoin="bevel"/>
<path d="M84.5 52C84.5 56.2249 82.6192 60.3408 79.1284 63.7551C75.6377 67.1695 71.1422 69.7062 65.5 71L56.5 52" stroke="#00EAC7" stroke-linejoin="bevel"/>
<path d="M57.5 52H56.5V59" stroke="#00EAC7" stroke-width="2" stroke-linejoin="bevel"/>
<path d="M57.307 65.4967C51.0186 66.9663 44.2155 66.8176 38.0629 65.0759C31.9103 63.3342 26.791 60.1079 23.5819 55.9497C20.3728 51.7915 19.2735 46.96 20.4724 42.2829C21.6713 37.6058 25.0937 33.374 30.1535 30.3124L48.5 46L57.307 65.4967Z" fill="#111B24" stroke="white" stroke-linejoin="bevel"/>
<path d="M30 68.5L30 61.5L48.5 46L48.5 42" stroke="white" stroke-linejoin="bevel"/>
<path d="M74.5 20.5H78.5V16.5" stroke="#1B2B38" stroke-linecap="square"/>
<path d="M84.5 22.5H80.5V26.5" stroke="#1B2B38" stroke-linecap="square"/>
<path d="M16 78L13.1468 80.0729L14.2366 83.4271H17.7634L18.8532 80.0729L16 78Z" fill="#1B2B38"/>
</svg>
