<svg width="96" height="96" viewBox="0 0 96 96" fill="none" xmlns="http://www.w3.org/2000/svg">
<circle cx="48" cy="48" r="23.5" stroke="#1B2B38"/>
<path d="M21.1532 32.5C23.2697 28.8341 26.1145 25.6405 29.5124 23.1161C32.9102 20.5916 36.7891 18.7898 40.9099 17.8217C45.0307 16.8535 49.3061 16.7396 53.4726 17.4869C57.6391 18.2342 61.6084 19.8268 65.1359 22.1667C68.6634 24.5066 71.6743 27.5441 73.9831 31.092L70.6196 33.2808C68.6097 30.1921 65.9885 27.5478 62.9177 25.5108C59.8468 23.4738 56.3913 22.0873 52.7642 21.4368C49.137 20.7863 45.4151 20.8854 41.8277 21.7283C38.2403 22.5711 34.8636 24.1396 31.9056 26.3373C28.9476 28.535 26.471 31.3151 24.6285 34.5065L21.1532 32.5Z" fill="#111B24" stroke="white" stroke-linejoin="bevel"/>
<path fill-rule="evenodd" clip-rule="evenodd" d="M48.5 25.5L57 19L48.5 12.5V17.004C45.3991 16.954 42.3017 17.3695 39.3125 18.2422C35.2492 19.4284 31.4718 21.4343 28.2132 24.1361C24.9547 26.838 22.284 30.1786 20.3657 33.952L23.943 35.7705C25.6129 32.4855 27.9379 29.5774 30.7746 27.2253C33.6114 24.8732 36.8998 23.127 40.4371 22.0943C43.0602 21.3286 45.7789 20.9671 48.5 21.0176V25.5Z" fill="#111B24"/>
<path d="M57 19L57.3037 19.3972V18.6028L57 19ZM48.5 25.5H48L48.8037 25.8972L48.5 25.5ZM48.5 12.5L48.8037 12.1028L48 12.5H48.5ZM48.5 17.004L48.4919 17.504L49 17.004H48.5ZM39.3125 18.2422L39.1724 17.7622L39.3125 18.2422ZM28.2132 24.1361L27.8941 23.7512L28.2132 24.1361ZM20.3657 33.952L19.92 33.7254L20.1391 34.3977L20.3657 33.952ZM23.943 35.7705L23.7164 36.2162L24.3887 35.9971L23.943 35.7705ZM30.7746 27.2253L30.4555 26.8404L30.7746 27.2253ZM40.4371 22.0943L40.5772 22.5743L40.4371 22.0943ZM48.5 21.0176H49L48.5093 20.5177L48.5 21.0176ZM56.6963 18.6028L48.1963 25.1028L48.8037 25.8972L57.3037 19.3972L56.6963 18.6028ZM48.1963 12.8972L56.6963 19.3972L57.3037 18.6028L48.8037 12.1028L48.1963 12.8972ZM49 17.004V12.5H48V17.004H49ZM39.4527 18.7221C42.3936 17.8636 45.441 17.4548 48.4919 17.504L48.5081 16.5041C45.3571 16.4533 42.2098 16.8755 39.1724 17.7622L39.4527 18.7221ZM28.5324 24.521C31.7384 21.8628 35.4548 19.8893 39.4527 18.7221L39.1724 17.7622C35.0435 18.9676 31.2052 21.0058 27.8941 23.7512L28.5324 24.521ZM20.8114 34.1786C22.6987 30.466 25.3264 27.1793 28.5324 24.521L27.8941 23.7512C24.583 26.4967 21.8692 29.8911 19.92 33.7254L20.8114 34.1786ZM24.1695 35.3248L20.5923 33.5063L20.1391 34.3977L23.7164 36.2162L24.1695 35.3248ZM30.4555 26.8404C27.5662 29.2361 25.1981 32.1981 23.4973 35.5439L24.3887 35.9971C26.0277 32.773 28.3096 29.9187 31.0938 27.6102L30.4555 26.8404ZM40.297 21.6143C36.6941 22.6662 33.3448 24.4447 30.4555 26.8404L31.0938 27.6102C33.8779 25.3017 37.1054 23.5878 40.5772 22.5743L40.297 21.6143ZM48.5093 20.5177C45.7377 20.4663 42.9686 20.8344 40.297 21.6143L40.5772 22.5743C43.1517 21.8227 45.82 21.468 48.4907 21.5175L48.5093 20.5177ZM49 25.5V21.0176H48V25.5H49Z" fill="white"/>
<path d="M74.8468 32.5001C76.9633 36.166 78.3066 40.2265 78.7939 44.4313C79.2812 48.6362 78.9022 52.8963 77.6803 56.9491C76.4583 61.0019 74.4193 64.7614 71.6888 67.9961C68.9584 71.2308 65.5945 73.872 61.8043 75.7569C58.0142 77.6419 53.8782 78.7307 49.6512 78.9561L49.4375 74.9489C53.1173 74.7526 56.7179 73.8048 60.0174 72.1638C63.3169 70.5229 66.2454 68.2236 68.6223 65.4076C70.9993 62.5917 72.7744 59.3188 73.8382 55.7906C74.9019 52.2625 75.2319 48.5539 74.8077 44.8933C74.3834 41.2328 73.214 37.6979 71.3715 34.5066L74.8468 32.5001Z" fill="#111B24" stroke="white" stroke-linejoin="bevel"/>
<path fill-rule="evenodd" clip-rule="evenodd" d="M67.2356 59.6831L68.6147 70.2943L78.4939 66.1831L74.5933 63.9311C76.1871 61.2706 77.3759 58.3805 78.1148 55.3555C79.1191 51.2433 79.2707 46.9691 78.5601 42.7962C77.8495 38.6233 76.2918 34.6401 73.9831 31.0921L70.6196 33.2809C72.6295 36.3695 73.9855 39.8371 74.6041 43.4698C75.2227 47.1026 75.0908 50.8235 74.2164 54.4033C73.5681 57.0578 72.5217 59.593 71.1175 61.9243L67.2356 59.6831Z" fill="#111B24"/>
<path d="M68.6147 70.2943L68.1189 70.3588L68.8068 70.756L68.6147 70.2943ZM67.2356 59.6831L67.4856 59.2501L66.7397 59.7476L67.2356 59.6831ZM78.4939 66.1831L78.686 66.6447L78.7439 65.7501L78.4939 66.1831ZM74.5933 63.9311L74.1644 63.6741L74.3433 64.3641L74.5933 63.9311ZM78.1148 55.3555L78.6005 55.4741L78.1148 55.3555ZM78.5601 42.7962L79.053 42.7122L78.5601 42.7962ZM73.9831 31.0921L74.4022 30.8194L73.7104 30.673L73.9831 31.0921ZM70.6196 33.2809L70.3469 32.8618L70.2005 33.5536L70.6196 33.2809ZM74.6041 43.4698L75.097 43.3859L74.6041 43.4698ZM74.2164 54.4033L73.7307 54.2847L74.2164 54.4033ZM71.1175 61.9243L70.8675 62.3573L71.5458 62.1823L71.1175 61.9243ZM69.1106 70.2299L67.7314 59.6187L66.7397 59.7476L68.1189 70.3588L69.1106 70.2299ZM78.3018 65.7215L68.4226 69.8327L68.8068 70.756L78.686 66.6447L78.3018 65.7215ZM74.3433 64.3641L78.2439 66.6161L78.7439 65.7501L74.8433 63.4981L74.3433 64.3641ZM77.629 55.2368C76.9021 58.2131 75.7324 61.0566 74.1644 63.6741L75.0222 64.188C76.6417 61.4847 77.8497 58.5479 78.6005 55.4741L77.629 55.2368ZM78.0672 42.8801C78.7663 46.9857 78.6172 51.191 77.629 55.2368L78.6005 55.4741C79.621 51.2956 79.775 46.9525 79.053 42.7122L78.0672 42.8801ZM73.564 31.3648C75.8355 34.8556 77.3681 38.7745 78.0672 42.8801L79.053 42.7122C78.3309 38.472 76.7482 34.4246 74.4022 30.8194L73.564 31.3648ZM70.8923 33.6999L74.2558 31.5112L73.7104 30.673L70.3469 32.8618L70.8923 33.6999ZM75.097 43.3859C74.4669 39.6858 73.0858 36.154 71.0387 33.0081L70.2005 33.5536C72.1731 36.585 73.5041 39.9883 74.1112 43.5538L75.097 43.3859ZM74.7021 54.5219C75.5927 50.8758 75.7271 47.0859 75.097 43.3859L74.1112 43.5538C74.7183 47.1192 74.5888 50.7712 73.7307 54.2847L74.7021 54.5219ZM71.5458 62.1823C72.976 59.8078 74.0418 57.2256 74.7021 54.5219L73.7307 54.2847C73.0944 56.89 72.0674 59.3782 70.6892 61.6663L71.5458 62.1823ZM66.9856 60.1161L70.8675 62.3573L71.3675 61.4913L67.4856 59.2501L66.9856 60.1161Z" fill="white"/>
<path d="M48 79.0002C43.767 79.0002 39.5789 78.1333 35.6937 76.4529C31.8086 74.7725 28.3087 72.3142 25.4099 69.2295C22.5111 66.1449 20.2747 62.4993 18.8386 58.5173C17.4025 54.5354 16.7971 50.3015 17.0598 46.0767C17.3224 41.8518 18.4475 37.7256 20.3658 33.9521L23.943 35.7707C22.2731 39.0556 21.2936 42.6477 21.065 46.3257C20.8363 50.0036 21.3633 53.6894 22.6135 57.1559C23.8637 60.6224 25.8106 63.7961 28.3342 66.4814C30.8577 69.1667 33.9045 71.3068 37.2868 72.7697C40.669 74.2326 44.315 74.9872 48 74.9872L48 79.0002Z" fill="#111B24" stroke="white" stroke-linejoin="bevel"/>
<path fill-rule="evenodd" clip-rule="evenodd" d="M28.2645 58.8171L18.3853 54.7059L17.0061 65.3171L20.9067 63.0651C22.4139 65.7756 24.3224 68.2502 26.5727 70.4026C29.6318 73.3285 33.2576 75.5968 37.2267 77.0679C41.1959 78.539 45.4242 79.1816 49.6512 78.9561L49.4375 74.9489C45.7577 75.1452 42.0767 74.5858 38.6213 73.3051C35.166 72.0245 32.0095 70.0497 29.3465 67.5026C27.3718 65.6139 25.6995 63.4401 24.3826 61.0583L28.2645 58.8171Z" fill="#111B24"/>
<path d="M18.3853 54.7059L18.5774 54.2443L17.8895 54.6415L18.3853 54.7059ZM28.2645 58.8171L28.5145 59.2501L28.4566 58.3555L28.2645 58.8171ZM17.0061 65.3171L16.5103 65.2527L17.2561 65.7501L17.0061 65.3171ZM20.9067 63.0651L21.3437 62.8221L20.6567 62.6321L20.9067 63.0651ZM26.5727 70.4026L26.2271 70.7639L26.5727 70.4026ZM37.2267 77.0679L37.053 77.5368L37.2267 77.0679ZM49.6512 78.9561L49.6779 79.4554L50.1505 78.9295L49.6512 78.9561ZM49.4375 74.9489L49.9368 74.9223L49.4109 74.4496L49.4375 74.9489ZM38.6213 73.3051L38.4476 73.7739L38.6213 73.3051ZM29.3465 67.5026L29.6921 67.1413L29.3465 67.5026ZM24.3826 61.0583L24.1326 60.6253L23.945 61.3003L24.3826 61.0583ZM18.1932 55.1675L28.0724 59.2788L28.4566 58.3555L18.5774 54.2443L18.1932 55.1675ZM17.502 65.3816L18.8811 54.7704L17.8895 54.6415L16.5103 65.2527L17.502 65.3816ZM20.6567 62.6321L16.7561 64.8841L17.2561 65.7501L21.1567 63.4981L20.6567 62.6321ZM26.9183 70.0413C24.7043 67.9236 22.8266 65.4889 21.3437 62.8221L20.4698 63.3081C22.0012 66.0623 23.9405 68.5769 26.2271 70.7639L26.9183 70.0413ZM37.4005 76.5991C33.4954 75.1517 29.928 72.92 26.9183 70.0413L26.2271 70.7639C29.3355 73.737 33.0198 76.042 37.053 77.5368L37.4005 76.5991ZM49.6246 78.4569C45.4658 78.6787 41.3056 78.0464 37.4005 76.5991L37.053 77.5368C41.0861 79.0316 45.3827 79.6845 49.6779 79.4554L49.6246 78.4569ZM48.9382 74.9755L49.1519 78.9828L50.1505 78.9295L49.9368 74.9223L48.9382 74.9755ZM38.4476 73.7739C41.9669 75.0783 45.7161 75.6481 49.4641 75.4482L49.4109 74.4496C45.7992 74.6423 42.1864 74.0932 38.7951 72.8363L38.4476 73.7739ZM29.0009 67.864C31.7133 70.4583 34.9282 72.4696 38.4476 73.7739L38.7951 72.8363C35.4038 71.5794 32.3058 69.6412 29.6921 67.1413L29.0009 67.864ZM23.945 61.3003C25.2863 63.7262 26.9896 65.9402 29.0009 67.864L29.6921 67.1413C27.754 65.2876 26.1126 63.1541 24.8201 60.8164L23.945 61.3003ZM28.0145 58.3841L24.1326 60.6253L24.6326 61.4914L28.5145 59.2501L28.0145 58.3841Z" fill="white"/>
<circle cx="48" cy="78" r="8" transform="rotate(-180 48 78)" fill="#111B24"/>
<circle cx="48" cy="78" r="8" transform="rotate(-180 48 78)" fill="#00EAC7" fill-opacity="0.06"/>
<circle cx="48" cy="78" r="8" transform="rotate(-180 48 78)" stroke="#00EAC7" stroke-width="2" stroke-linejoin="bevel"/>
<circle cx="22" cy="32" r="8" transform="rotate(-180 22 32)" fill="#111B24"/>
<circle cx="22" cy="32" r="8" transform="rotate(-180 22 32)" fill="#00EAC7" fill-opacity="0.06"/>
<circle cx="22" cy="32" r="8" transform="rotate(-180 22 32)" stroke="#00EAC7" stroke-width="2" stroke-linejoin="bevel"/>
<circle cx="73.9999" cy="32" r="8" transform="rotate(-180 73.9999 32)" fill="#111B24"/>
<circle cx="73.9999" cy="32" r="8" transform="rotate(-180 73.9999 32)" fill="#00EAC7" fill-opacity="0.06"/>
<circle cx="73.9999" cy="32" r="8" transform="rotate(-180 73.9999 32)" stroke="#00EAC7" stroke-width="2" stroke-linejoin="bevel"/>
<path d="M74.5 79.4999V83.4999H80.5V79.4999" stroke="#1B2B38" stroke-linecap="square"/>
<path d="M77.5 80.4999V76.4999H83.5V80.4999" stroke="#1B2B38" stroke-linecap="square"/>
<path d="M21.5 12.4999L12.5 12.4999" stroke="#1B2B38" stroke-linecap="square"/>
<path d="M21.5 15.4999L12.5 15.4999" stroke="#1B2B38" stroke-linecap="square"/>
</svg>
