<svg width="180" height="60" viewBox="0 0 180 60" fill="none" xmlns="http://www.w3.org/2000/svg">
<path fill-rule="evenodd" clip-rule="evenodd" d="M0.6 40.25L14.88 46.13C15.2719 46.326 15.4238 46.2819 15.7277 46.1938C15.796 46.174 15.8719 46.152 15.96 46.13L30.24 40.37C30.72 40.13 30.84 40.01 30.84 39.53V20.45C30.84 19.97 30.72 19.85 30.24 19.61L15.96 14.09C15.48 13.97 15.36 13.97 14.88 14.09L0.6 19.61C0.12 19.85 0 19.97 0 20.45V39.41C0 39.9566 0.0996044 40.0053 0.480305 40.1911C0.517468 40.2092 0.55731 40.2287 0.6 40.25ZM27.84 39.65L15.36 44.57L2.88 39.53L15.36 35.09L27.84 39.65ZM12.96 34.13L1.68 38.33V21.53L12.96 25.85L10.92 26.69C10.8 26.69 10.68 26.81 10.68 27.05V32.93C10.68 33.05 10.8 33.17 10.92 33.29L12.96 34.13ZM29.04 21.65V38.33L17.76 34.13L19.8 33.29C19.92 33.29 20.04 33.05 20.04 32.93V27.05C20.04 26.93 19.92 26.81 19.8 26.69L17.76 25.85L29.04 21.65ZM18.36 31.97L15.36 33.17L12.36 31.97V27.77L15.36 26.57L18.36 27.77V31.97ZM27.84 20.33L15.36 24.89L2.88 20.33L15.36 15.53L27.84 20.33ZM158.88 27.77C158.52 25.85 157.32 24.17 154.44 24.17C151.8 24.17 149.64 26.45 149.76 30.05C149.76 33.77 151.8 35.93 154.56 35.93C157.44 35.93 158.64 34.25 158.88 32.33H162.36C162 36.17 159.6 39.05 154.44 39.05C149.64 39.05 146.16 35.57 146.16 30.05C146.16 24.65 149.64 21.05 154.44 21.05C159.48 21.05 162 23.93 162.36 27.77H158.88ZM107.88 29.69C108.84 29.33 110.52 28.13 110.52 25.61C110.52 23.09 108.6 21.17 105.6 21.17H97.7998V38.81H105.96C108.96 38.81 111.24 36.89 111.24 34.01C111.12 31.61 109.44 30.17 107.88 29.69ZM101.28 24.05H104.52C106.08 24.05 107.04 24.77 107.04 26.33C107.04 27.77 106.2 28.61 104.64 28.61H101.28V24.05ZM105 36.17H101.16V31.25H104.88C106.56 31.25 107.64 32.09 107.64 33.77C107.52 35.33 106.56 36.17 105 36.17ZM41.16 24.29H46.8V38.93H50.28V24.29H55.92V21.29H41.16V24.29ZM69.6002 28.37H61.9202V21.29H58.3202V38.93H61.9202V31.49H69.6002V38.93H73.2002V21.29H69.6002V28.37ZM87.36 31.37H79.68V35.93H88.56V38.93H76.08V21.29H88.32V24.29H79.68V28.49H87.36V31.37ZM113.64 21.29H117.12V35.81H125.76V38.93H113.64V21.29ZM135.36 21.17C130.32 21.17 126.6 24.65 126.6 30.17C126.6 35.69 130.32 39.05 135.36 39.05C140.4 39.05 144.12 35.57 144.12 30.05C144.12 24.53 140.28 21.17 135.36 21.17ZM135.36 35.93C132.48 35.93 130.2 33.77 130.2 30.05C130.2 26.33 132.48 24.17 135.36 24.17C138.24 24.17 140.52 26.33 140.52 30.05C140.52 33.77 138.24 35.93 135.36 35.93ZM173.04 28.85L179.52 21.29H175.32L168.12 30.05V21.29H164.64V38.93H168.12V34.25L170.64 31.37L175.92 38.93H180L173.04 28.85Z" fill="white"/>
</svg>
