<svg width="104" height="67" viewBox="0 0 104 67" fill="none" xmlns="http://www.w3.org/2000/svg">
<path d="M37.212 34.8024C38.4229 34.1872 39.3277 33.0574 39.6413 31.7024C39.6413 31.7009 39.6413 31.6979 39.6428 31.6964C39.8608 30.7667 39.7678 29.7096 39.3982 28.8515C39.3982 28.85 39.3967 28.8485 39.3952 28.8455C38.6908 27.1482 36.9642 25.985 35.1083 26.0006L28.0561 26.0006V40.9994H31.1321V37.0231L34.3041 35.8843L37.0229 40.9994H40.5071L37.2285 34.8339L37.212 34.8024H37.212ZM36.3912 31.6964C36.3897 31.6979 36.3897 31.7009 36.3867 31.7024C36.192 32.0156 35.9119 32.2531 35.5705 32.3732L31.1321 33.9892V28.8455L35.1083 28.8515C36.4275 28.8458 37.1136 30.5946 36.3913 31.6964H36.3912Z" fill="white"/>
<path d="M0.933627 28.8459C0.932125 28.8474 0.930622 28.8489 0.929122 28.8519C0.405455 29.6862 0.0798547 30.6555 0.0153341 31.6968V31.7028C-0.00580392 32.2366 -0.00391706 34.7585 0.0138317 35.2934C0.0138317 35.2964 0.0138317 35.3009 0.0153341 35.3039C0.0783523 36.3423 0.40245 37.3116 0.923122 38.1444C0.924624 38.1488 0.927618 38.1519 0.92912 38.1549C1.98091 39.8317 3.79684 40.9134 5.80718 40.9998H10.3497L10.9539 38.1549H6.08027C5.96023 38.1549 5.84169 38.1519 5.72315 38.1444H5.85069C4.41474 38.0288 3.26387 36.8269 3.10032 35.3039L3.07931 34.8538V32.1469L3.10032 31.6968C3.27587 30.0958 4.54228 28.8519 6.08027 28.8519L11.557 28.8463L11.557 26.001H6.08027C3.96471 25.9994 2.03877 27.0915 0.933627 28.8459Z" fill="white"/>
<path d="M60.3255 26.0015H57.2495V41.0002H60.3255V26.0015Z" fill="white"/>
<path d="M54.6957 31.6973C54.6312 30.6559 54.3041 29.6866 53.7804 28.8524C53.7804 28.8494 53.7789 28.8479 53.7774 28.8464C52.672 27.0918 50.7465 26 48.6308 26.0015H42.5538V41.0002H48.9039C50.9131 40.9141 52.7287 39.8325 53.7804 38.1553C53.7834 38.1523 53.7849 38.1493 53.7879 38.1448C54.3086 37.3121 54.6327 36.3428 54.6957 35.3044C54.6972 35.3014 54.6972 35.2969 54.6972 35.2939C54.715 34.759 54.7168 32.2375 54.6957 31.7033V31.6973ZM51.6317 34.8543L51.6107 35.3044C51.4472 36.8274 50.2948 38.0278 48.8618 38.1448H48.9879C48.9222 38.165 45.808 38.1518 45.6298 38.1553V28.8524H48.6308C50.1673 28.8524 51.4352 30.0963 51.6107 31.6973L51.6317 32.1474V34.8543V34.8543Z" fill="white"/>
<path d="M22.4501 26.0015H16.2673C15.9837 26.0015 15.7388 26.2 15.6801 26.4775L12.6073 41.0002H15.7523L16.327 38.1553L16.3285 38.1448H22.3889L22.3904 38.1553L22.9651 41.0002H26.1086L23.0373 26.4775C22.9786 26.2 22.7337 26.0015 22.4501 26.0015ZM16.9017 35.3044L16.9047 35.2939L18.2056 28.8524L18.2071 28.8464H20.5103L20.5118 28.8524L21.8127 35.2939L21.8142 35.3044H16.9017H16.9017Z" fill="white"/>
<path d="M96.7032 38.155V26.0011C95.7444 25.9996 94.7165 25.9996 93.6272 26.0011V40.3997C93.6272 40.7312 93.8959 40.9999 94.2274 40.9999H101.728L102.33 38.155V38.1535C100.909 38.155 99.0019 38.155 96.7032 38.155V38.155Z" fill="white"/>
<path d="M88.2356 26.0015H82.0528C81.7692 26.0015 81.5244 26.2 81.4656 26.4774C80.9174 29.0595 78.3928 41.0002 78.3928 41.0002H81.5378L82.1125 38.1553H88.176L88.7506 41.0002H91.8941C91.8941 41.0002 89.3729 29.0642 88.8228 26.4774C88.7641 26.2 88.5192 26.0015 88.2356 26.0015ZM82.6872 35.3044L82.6902 35.2939C83.0126 33.6957 83.6727 30.4264 83.9926 28.8449H86.2958C86.613 30.4212 87.2761 33.7028 87.5983 35.2939L87.5998 35.3044H82.6872H82.6872Z" fill="white"/>
<path d="M74.427 26.0015L72.6715 34.3036C72.6715 34.3036 66.9991 26.5461 66.7804 26.2474C66.6673 26.0928 66.4873 26.0015 66.2959 26.0015H63.0579L65.1376 28.8449H65.139V28.8479L65.1421 28.8524H65.1376C64.8037 30.4291 62.5687 41.0002 62.5687 41.0002H65.7122L67.5773 32.1834C67.5773 32.1834 73.8367 40.7378 73.8451 40.7543C73.9581 40.9089 74.1381 41.0002 74.3296 41.0002H77.5675L75.1097 37.6392C75.1097 37.6392 76.9914 28.7448 77.572 26.0015H74.427Z" fill="white"/>
</svg>
