<svg width="305" height="309" viewBox="0 0 305 309" fill="none" xmlns="http://www.w3.org/2000/svg">
<circle cx="152.229" cy="152.229" r="151.729" stroke="#2F4252"/>
<circle cx="89.8372" cy="288" r="20.5" fill="#141F29" stroke="#2F4252"/>
<path fill-rule="evenodd" clip-rule="evenodd" d="M89.8366 278.975C87.6994 278.975 85.6321 279.736 84.0045 281.121C82.3769 282.507 81.2953 284.426 80.9532 286.535C80.6111 288.645 81.0309 290.807 82.1374 292.636C83.2438 294.464 84.9648 295.839 86.9924 296.515C87.4424 296.598 87.6067 296.32 87.6067 296.081C87.6067 295.868 87.5989 295.302 87.5945 294.551C85.091 295.094 84.5628 293.344 84.5628 293.344C84.3974 292.8 84.043 292.333 83.5635 292.028C82.7464 291.469 83.6253 291.481 83.6253 291.481C83.9106 291.52 84.1831 291.624 84.422 291.785C84.6609 291.946 84.8599 292.159 85.0039 292.408C85.1258 292.63 85.2905 292.826 85.4885 292.984C85.6866 293.142 85.9139 293.259 86.1575 293.328C86.4011 293.398 86.656 293.418 86.9076 293.389C87.1592 293.359 87.4024 293.28 87.6231 293.156C87.6642 292.7 87.8668 292.273 88.1945 291.953C86.196 291.726 84.095 290.953 84.095 287.505C84.0819 286.61 84.4137 285.746 85.0214 285.09C84.7468 284.313 84.7784 283.462 85.1096 282.708C85.1096 282.708 85.8653 282.466 87.5846 283.63C89.0595 283.226 90.6159 283.226 92.0909 283.63C93.8091 282.466 94.5634 282.708 94.5634 282.708C94.8955 283.461 94.9276 284.313 94.6529 285.09C95.2607 285.745 95.5921 286.611 95.5781 287.505C95.5781 290.962 93.4738 291.723 91.4688 291.946C91.6836 292.164 91.8492 292.426 91.9546 292.713C92.0599 293 92.1026 293.307 92.0798 293.612C92.0798 294.816 92.0688 295.786 92.0688 296.081C92.0688 296.322 92.2309 296.602 92.6876 296.514C94.7144 295.837 96.4342 294.461 97.5394 292.632C98.6447 290.804 99.0634 288.641 98.7205 286.532C98.3777 284.423 97.2957 282.505 95.6681 281.12C94.0405 279.736 91.9734 278.975 89.8366 278.975H89.8366Z" fill="#2F4252"/>
</svg>
