<svg width="224" height="224" viewBox="0 0 224 224" fill="none" xmlns="http://www.w3.org/2000/svg">
<circle cx="111.807" cy="111.807" r="111.307" stroke="#00EAC7"/>
<g clip-path="url(#clip0_1679_33657)">
<path d="M152.415 115.891H172.066C172.298 115.891 172.529 115.846 172.744 115.757C172.959 115.668 173.155 115.537 173.319 115.373C173.484 115.208 173.615 115.012 173.703 114.797C173.792 114.582 173.838 114.351 173.837 114.118V99.9355C173.837 99.4653 173.651 99.0144 173.318 98.682C172.986 98.3495 172.536 98.1627 172.066 98.1627H144.53L122.836 49.4025C122.651 48.9875 122.351 48.6345 121.971 48.3858C121.592 48.1371 121.148 48.0031 120.694 48H102.98C102.523 48.0001 102.077 48.1326 101.694 48.3815C101.311 48.6305 101.008 48.9851 100.823 49.4025L79.1445 98.1627H51.6086C51.1388 98.1627 50.6882 98.3495 50.356 98.682C50.0238 99.0144 49.8372 99.4653 49.8372 99.9355V114.118C49.8366 114.351 49.8821 114.582 49.9709 114.797C50.0598 115.012 50.1902 115.208 50.3548 115.373C50.5194 115.537 50.7149 115.668 50.9301 115.757C51.1452 115.846 51.3758 115.891 51.6086 115.891H71.2596L50.0025 163.694C49.8827 163.963 49.8319 164.258 49.8547 164.552C49.8775 164.846 49.9731 165.129 50.133 165.377C50.2928 165.624 50.5118 165.828 50.7701 165.97C51.0285 166.111 51.318 166.186 51.6125 166.188H67.4255C67.882 166.187 68.3288 166.055 68.7116 165.806C69.0945 165.557 69.397 165.202 69.5827 164.785L111.837 69.8056L154.092 164.785C154.277 165.202 154.58 165.557 154.963 165.806C155.346 166.055 155.792 166.187 156.249 166.188H172.062C172.357 166.188 172.648 166.115 172.908 165.974C173.168 165.833 173.389 165.63 173.55 165.382C173.711 165.134 173.808 164.85 173.831 164.555C173.855 164.26 173.804 163.964 173.684 163.694L152.415 115.891Z" fill="white"/>
</g>
<defs>
<clipPath id="clip0_1679_33657">
<rect width="124" height="118.188" fill="white" transform="translate(49.8372 48)"/>
</clipPath>
</defs>
</svg>
