<svg width="371" height="360" viewBox="0 0 371 360" fill="none" xmlns="http://www.w3.org/2000/svg">
<circle cx="190.751" cy="179.751" r="179.251" stroke="#1B2B38" stroke-dasharray="8 4"/>
<circle cx="21.8372" cy="119" r="20.5" fill="#111B24" stroke="#1B2B38"/>
<path fill-rule="evenodd" clip-rule="evenodd" d="M28.8347 114.155C29.5555 113.701 30.1076 112.979 30.3669 112.12C29.6932 112.543 28.9476 112.849 28.1523 113.014C27.5171 112.298 26.6101 111.851 25.6064 111.851C23.6808 111.851 22.12 113.499 22.12 115.53C22.12 115.818 22.1498 116.099 22.2094 116.367C19.3111 116.213 16.7416 114.751 15.0208 112.524C14.7205 113.069 14.5493 113.701 14.5493 114.373C14.5493 115.65 15.1647 116.775 16.1002 117.437C15.5282 117.418 14.991 117.251 14.5195 116.976V117.022C14.5195 118.804 15.7218 120.292 17.3185 120.628C17.0257 120.715 16.7181 120.758 16.3992 120.758C16.1746 120.758 15.955 120.736 15.7429 120.692C16.1858 122.154 17.4749 123.218 19.0009 123.247C17.8061 124.233 16.3024 124.821 14.6697 124.821C14.388 124.821 14.1101 124.805 13.8372 124.77C15.3806 125.814 17.2143 126.423 19.1833 126.423C25.6002 126.423 29.1064 120.818 29.1064 115.957C29.1064 115.796 29.1039 115.638 29.0977 115.481C29.7788 114.963 30.3719 114.314 30.8372 113.577C30.2118 113.868 29.5394 114.067 28.8347 114.155Z" fill="#1B2B38"/>
</svg>
