<svg width="429" height="445" viewBox="0 0 429 445" fill="none" xmlns="http://www.w3.org/2000/svg">
<circle cx="214.234" cy="230.202" r="213.5" stroke="#182733"/>
<circle cx="254.837" cy="21" r="20.5" fill="#111B24" stroke="#182733"/>
<path fill-rule="evenodd" clip-rule="evenodd" d="M247.006 20.4795C251.569 18.4913 254.612 17.1806 256.135 16.5473C260.482 14.7391 261.385 14.425 261.974 14.4147C262.104 14.4124 262.393 14.4445 262.581 14.5967C262.739 14.7252 262.783 14.8987 262.803 15.0206C262.824 15.1424 262.85 15.42 262.83 15.6368C262.594 18.1121 261.575 24.1188 261.056 26.8911C260.837 28.0642 260.405 28.4575 259.986 28.496C259.077 28.5796 258.387 27.8952 257.507 27.3181C256.129 26.4149 255.35 25.8527 254.013 24.9715C252.468 23.953 253.47 23.3932 254.35 22.4784C254.581 22.239 258.586 18.5959 258.664 18.2654C258.673 18.2241 258.682 18.07 258.591 17.9886C258.499 17.9073 258.364 17.9351 258.267 17.9572C258.128 17.9886 255.928 19.4433 251.664 22.3215C251.039 22.7505 250.473 22.9595 249.966 22.9485C249.407 22.9364 248.332 22.6325 247.533 22.3727C246.553 22.054 245.773 21.8855 245.841 21.3444C245.877 21.0625 246.265 20.7742 247.006 20.4795Z" fill="#182733"/>
</svg>
