<svg width="518" height="518" viewBox="0 0 518 518" fill="none" xmlns="http://www.w3.org/2000/svg">
<circle cx="259" cy="259" r="258.5" stroke="#16232E"/>
<circle cx="391.837" cy="480" r="20.5" fill="#131E27" stroke="#16232E"/>
<path d="M400.629 480.963L399.708 478.125C399.708 478.126 399.709 478.128 399.709 478.129C399.709 478.127 399.708 478.126 399.708 478.124C399.708 478.124 399.708 478.124 399.708 478.124C399.708 478.124 399.708 478.124 399.708 478.124L397.879 472.493C397.779 472.197 397.504 471.998 397.188 472C396.871 472.002 396.604 472.197 396.506 472.498L394.77 477.842H389.292L387.553 472.497C387.455 472.197 387.187 472.002 386.871 472C386.869 472 386.868 472 386.867 472C386.555 472 386.279 472.198 386.178 472.498L384.354 478.124L384.354 478.124C384.354 478.124 384.354 478.124 384.354 478.124C384.353 478.126 384.353 478.127 384.353 478.129C384.353 478.127 384.353 478.126 384.354 478.125L383.429 480.963C383.29 481.391 383.441 481.856 383.805 482.121L391.789 487.922C391.79 487.923 391.792 487.924 391.793 487.925C391.796 487.927 391.799 487.93 391.803 487.932C391.8 487.93 391.797 487.927 391.793 487.925C391.793 487.925 391.793 487.925 391.793 487.925C391.794 487.925 391.794 487.926 391.795 487.926C391.795 487.926 391.796 487.926 391.796 487.927C391.796 487.927 391.796 487.927 391.797 487.927C391.809 487.935 391.822 487.943 391.835 487.951C391.837 487.952 391.839 487.953 391.84 487.954C391.84 487.954 391.84 487.954 391.84 487.954C391.842 487.954 391.843 487.955 391.844 487.956C391.845 487.956 391.845 487.956 391.846 487.957C391.847 487.957 391.848 487.957 391.848 487.958C391.85 487.958 391.851 487.959 391.853 487.959C391.86 487.963 391.867 487.965 391.874 487.968C391.881 487.971 391.887 487.974 391.894 487.977C391.895 487.977 391.895 487.977 391.895 487.977C391.896 487.978 391.897 487.978 391.898 487.979C391.9 487.979 391.901 487.98 391.903 487.98C391.903 487.98 391.904 487.98 391.904 487.98C391.906 487.981 391.908 487.981 391.91 487.982C391.91 487.982 391.911 487.982 391.912 487.982C391.922 487.985 391.932 487.987 391.941 487.989C391.945 487.99 391.949 487.992 391.953 487.992C391.954 487.992 391.954 487.993 391.955 487.993C391.956 487.993 391.957 487.993 391.958 487.994C391.961 487.994 391.963 487.995 391.965 487.995C391.966 487.995 391.968 487.995 391.97 487.995C391.97 487.995 391.97 487.995 391.971 487.995C391.971 487.995 391.971 487.995 391.971 487.995C391.99 487.998 392.009 488 392.028 488C392.028 488 392.028 488 392.029 488C392.029 488 392.029 488 392.029 488H392.029C392.029 488 392.029 488 392.029 488C392.048 488 392.068 487.998 392.086 487.995C392.086 487.995 392.087 487.995 392.087 487.995C392.087 487.995 392.087 487.995 392.088 487.995C392.089 487.995 392.091 487.995 392.093 487.995C392.095 487.995 392.097 487.994 392.099 487.994C392.1 487.993 392.101 487.993 392.103 487.993C392.103 487.993 392.104 487.992 392.104 487.992C392.108 487.992 392.112 487.99 392.116 487.989C392.126 487.987 392.136 487.985 392.145 487.982C392.146 487.982 392.147 487.982 392.147 487.982C392.149 487.981 392.151 487.981 392.153 487.981C392.154 487.98 392.154 487.98 392.155 487.98C392.156 487.98 392.158 487.979 392.159 487.979C392.16 487.978 392.161 487.978 392.162 487.977C392.163 487.977 392.163 487.977 392.163 487.977C392.17 487.974 392.177 487.971 392.184 487.968C392.191 487.965 392.198 487.963 392.204 487.96C392.206 487.959 392.207 487.958 392.209 487.958C392.21 487.957 392.21 487.957 392.211 487.957C392.212 487.956 392.213 487.956 392.214 487.956C392.215 487.955 392.216 487.954 392.217 487.954C392.217 487.954 392.217 487.954 392.217 487.954C392.219 487.953 392.221 487.951 392.222 487.95C392.236 487.943 392.248 487.935 392.261 487.927C392.262 487.926 392.263 487.926 392.264 487.925C392.264 487.925 392.264 487.925 392.265 487.925C392.266 487.924 392.267 487.923 392.268 487.922L400.254 482.121C400.618 481.856 400.769 481.391 400.629 480.963ZM397.193 473.021L398.759 477.842H395.627L397.193 473.021ZM398.485 478.658L397.846 479.476L393.133 485.516L395.362 478.658H398.485ZM391.641 487.718C391.641 487.72 391.642 487.721 391.642 487.722C391.642 487.721 391.641 487.72 391.641 487.718ZM390.926 485.516L385.577 478.658H388.7L390.926 485.516ZM386.866 473.021L388.435 477.842H385.302L386.866 473.021ZM384.284 481.462C384.207 481.405 384.175 481.306 384.204 481.215L384.892 479.105L389.928 485.563L384.284 481.462ZM391.775 487.912C391.773 487.91 391.772 487.909 391.77 487.908C391.77 487.907 391.77 487.907 391.769 487.907C391.766 487.904 391.763 487.902 391.76 487.899C391.755 487.894 391.749 487.889 391.743 487.883C391.744 487.884 391.744 487.884 391.745 487.884C391.745 487.885 391.746 487.885 391.747 487.886C391.758 487.897 391.771 487.908 391.784 487.917C391.784 487.918 391.784 487.918 391.784 487.918C391.785 487.918 391.785 487.919 391.786 487.919C391.782 487.917 391.778 487.914 391.775 487.912ZM392.029 486.273L390.719 482.238L389.557 478.658H394.505L392.029 486.273ZM392.297 487.899C392.294 487.902 392.291 487.904 392.288 487.907C392.288 487.907 392.287 487.907 392.287 487.908C392.285 487.909 392.284 487.91 392.282 487.912C392.279 487.914 392.275 487.917 392.272 487.919C392.272 487.919 392.273 487.918 392.274 487.918C392.274 487.918 392.274 487.918 392.274 487.918C392.287 487.908 392.299 487.898 392.311 487.886C392.311 487.886 392.312 487.886 392.312 487.885C392.313 487.885 392.313 487.884 392.314 487.884C392.308 487.889 392.303 487.894 392.297 487.899ZM399.774 481.461L394.131 485.561L399.169 479.106L399.854 481.214C399.884 481.306 399.852 481.405 399.774 481.461Z" fill="#16232E"/>
</svg>
