<svg width="1792" height="231" viewBox="0 0 1792 231" fill="none" xmlns="http://www.w3.org/2000/svg">
<path d="M1408 229L1408 67.444C1408 66.6447 1408.48 65.9221 1409.21 65.6065L1559.54 1" stroke="url(#paint0_linear_1515_14932)"/>
<path d="M1472 229L1472 67.5108C1472 66.678 1472.52 65.9324 1473.3 65.639L1645 0.999054" stroke="url(#paint1_linear_1515_14932)"/>
<path d="M1536 229L1536 67.566C1536 66.7062 1536.55 65.9426 1537.36 65.6696L1730.45 1" stroke="url(#paint2_linear_1515_14932)"/>
<path d="M1344 229L1344 67.362C1344 66.6048 1344.43 65.9126 1345.1 65.5736L1474.08 1" stroke="url(#paint3_linear_1515_14932)"/>
<path d="M1280 229L1280 67.3137C1280 66.5819 1280.4 65.9086 1281.04 65.5581L1399.35 1" stroke="url(#paint4_linear_1515_14932)"/>
<path d="M1216 229L1216 67.1983C1216 66.5289 1216.33 65.9039 1216.89 65.5331L1313.9 1" stroke="url(#paint5_linear_1515_14932)"/>
<path d="M1152 229L1152 67.0501C1152 66.4642 1152.26 65.9078 1152.7 65.5278L1228.44 1" stroke="url(#paint6_linear_1515_14932)"/>
<path d="M1088 229L1088 66.858C1088 66.3857 1088.17 65.9287 1088.47 65.5678L1142.98 1" stroke="url(#paint7_linear_1515_14932)"/>
<path d="M1024 229L1024 66.6112C1024 66.2928 1024.08 65.979 1024.22 65.6958L1057.53 1" stroke="url(#paint8_linear_1515_14932)"/>
<path d="M960 229L960 66.3104C960 66.1882 960.011 66.0662 960.033 65.946L972.07 1" stroke="url(#paint9_linear_1515_14932)"/>
<path d="M896 229V66.1267V1" stroke="url(#paint10_linear_1515_14932)"/>
<path d="M384 229L384 67.444C384 66.6447 383.524 65.9221 382.79 65.6065L232.46 1" stroke="url(#paint11_linear_1515_14932)"/>
<path d="M320 228V67.5108C320 66.678 319.484 65.9324 318.705 65.639L147.003 1" stroke="url(#paint12_linear_1515_14932)"/>
<path d="M256 227.873L256 67.566C256 66.7062 255.45 65.9426 254.635 65.6696L61.5455 1" stroke="url(#paint13_linear_1515_14932)"/>
<path d="M448 229L448 67.362C448 66.6048 447.572 65.9126 446.895 65.5736L317.917 1" stroke="url(#paint14_linear_1515_14932)"/>
<path d="M512 229V67.3137C512 66.5819 511.6 65.9086 510.958 65.5581L392.645 1" stroke="url(#paint15_linear_1515_14932)"/>
<path d="M576 229V67.1983C576 66.5289 575.665 65.9039 575.108 65.5331L478.102 1" stroke="url(#paint16_linear_1515_14932)"/>
<path d="M640 229L640 67.0501C640 66.4642 639.743 65.9078 639.297 65.5278L563.559 1" stroke="url(#paint17_linear_1515_14932)"/>
<path d="M704 229L704 66.858C704 66.3857 703.833 65.9287 703.528 65.5678L649.016 1" stroke="url(#paint18_linear_1515_14932)"/>
<path d="M768 229V66.6112C768 66.2928 767.924 65.979 767.778 65.6958L734.5 1.05176" stroke="url(#paint19_linear_1515_14932)"/>
<path d="M832 229L832 66.3104C832 66.1882 831.989 66.0662 831.967 65.946L819.93 1" stroke="url(#paint20_linear_1515_14932)"/>
<g filter="url(#filter0_f_1515_14932)">
<line x1="287.5" y1="66" x2="287.5" y2="229" stroke="url(#paint21_linear_1515_14932)"/>
</g>
<g filter="url(#filter1_f_1515_14932)">
<line x1="351.5" y1="66" x2="351.5" y2="229" stroke="url(#paint22_linear_1515_14932)"/>
</g>
<g filter="url(#filter2_f_1515_14932)">
<line x1="415.5" y1="66" x2="415.5" y2="229" stroke="url(#paint23_linear_1515_14932)"/>
</g>
<g filter="url(#filter3_f_1515_14932)">
<line x1="479.5" y1="66" x2="479.5" y2="229" stroke="url(#paint24_linear_1515_14932)"/>
</g>
<g filter="url(#filter4_f_1515_14932)">
<line x1="543.5" y1="66" x2="543.5" y2="229" stroke="url(#paint25_linear_1515_14932)"/>
</g>
<g filter="url(#filter5_f_1515_14932)">
<line x1="607.5" y1="66" x2="607.5" y2="229" stroke="url(#paint26_linear_1515_14932)"/>
</g>
<g filter="url(#filter6_f_1515_14932)">
<line x1="671.5" y1="66" x2="671.5" y2="229" stroke="url(#paint27_linear_1515_14932)"/>
</g>
<g filter="url(#filter7_f_1515_14932)">
<line x1="735.5" y1="66" x2="735.5" y2="229" stroke="url(#paint28_linear_1515_14932)"/>
</g>
<g filter="url(#filter8_f_1515_14932)">
<line x1="799.5" y1="66" x2="799.5" y2="229" stroke="url(#paint29_linear_1515_14932)"/>
</g>
<g filter="url(#filter9_f_1515_14932)">
<line x1="863.5" y1="66" x2="863.5" y2="229" stroke="url(#paint30_linear_1515_14932)"/>
</g>
<g filter="url(#filter10_f_1515_14932)">
<line x1="927.5" y1="66" x2="927.5" y2="229" stroke="url(#paint31_linear_1515_14932)"/>
</g>
<g filter="url(#filter11_f_1515_14932)">
<line x1="991.5" y1="66" x2="991.5" y2="229" stroke="url(#paint32_linear_1515_14932)"/>
</g>
<g filter="url(#filter12_f_1515_14932)">
<line x1="1055.5" y1="66" x2="1055.5" y2="229" stroke="url(#paint33_linear_1515_14932)"/>
</g>
<g filter="url(#filter13_f_1515_14932)">
<line x1="1119.5" y1="66" x2="1119.5" y2="229" stroke="url(#paint34_linear_1515_14932)"/>
</g>
<g filter="url(#filter14_f_1515_14932)">
<line x1="1183.5" y1="66" x2="1183.5" y2="229" stroke="url(#paint35_linear_1515_14932)"/>
</g>
<g filter="url(#filter15_f_1515_14932)">
<line x1="1247.5" y1="66" x2="1247.5" y2="229" stroke="url(#paint36_linear_1515_14932)"/>
</g>
<g filter="url(#filter16_f_1515_14932)">
<line x1="1311.5" y1="66" x2="1311.5" y2="229" stroke="url(#paint37_linear_1515_14932)"/>
</g>
<g filter="url(#filter17_f_1515_14932)">
<line x1="1375.5" y1="66" x2="1375.5" y2="229" stroke="url(#paint38_linear_1515_14932)"/>
</g>
<g filter="url(#filter18_f_1515_14932)">
<line x1="1439.5" y1="66" x2="1439.5" y2="229" stroke="url(#paint39_linear_1515_14932)"/>
</g>
<g filter="url(#filter19_f_1515_14932)">
<line x1="1503.5" y1="66" x2="1503.5" y2="229" stroke="url(#paint40_linear_1515_14932)"/>
</g>
<line y1="-0.5" x2="21" y2="-0.5" transform="matrix(1.62357e-07 -1 -1 -1.12921e-07 542.408 116)" stroke="#415566"/>
<line opacity="0.8" y1="-0.5" x2="21" y2="-0.5" transform="matrix(1.62357e-07 -1 -1 -1.12921e-07 534.636 116)" stroke="#415566"/>
<line opacity="0.6" y1="-0.5" x2="21" y2="-0.5" transform="matrix(1.62357e-07 -1 -1 -1.12921e-07 526.863 116)" stroke="#415566"/>
<line opacity="0.4" y1="-0.5" x2="21" y2="-0.5" transform="matrix(1.62357e-07 -1 -1 -1.12921e-07 519.09 116)" stroke="#415566"/>
<line opacity="0.2" y1="-0.5" x2="21" y2="-0.5" transform="matrix(1.62357e-07 -1 -1 -1.12921e-07 503.545 116)" stroke="#415566"/>
<line opacity="0.2" y1="-0.5" x2="21" y2="-0.5" transform="matrix(1.62357e-07 -1 -1 -1.12921e-07 488 116)" stroke="#415566"/>
<g filter="url(#filter20_f_1515_14932)">
<circle r="5" transform="matrix(-4.37114e-08 1 1 4.37114e-08 287 128)" fill="#1B2B38"/>
</g>
<g filter="url(#filter21_f_1515_14932)">
<circle r="9" transform="matrix(-4.37114e-08 1 1 4.37114e-08 287 177)" fill="#1B2B38"/>
</g>
<g filter="url(#filter22_f_1515_14932)">
<circle r="3" transform="matrix(-4.37114e-08 1 1 4.37114e-08 287 80)" fill="#1B2B38"/>
</g>
<line x1="1507.15" y1="113.818" x2="1491" y2="113.818" stroke="#1B2B38"/>
<line x1="1515.22" y1="106.045" x2="1499.07" y2="106.045" stroke="#1B2B38"/>
<line x1="1507.15" y1="98.2726" x2="1491" y2="98.2726" stroke="#1B2B38"/>
<line x1="1515.22" y1="90.5" x2="1499.07" y2="90.5" stroke="#1B2B38"/>
<path d="M415 191C411.686 191 409 188.314 409 185L409 184.762C409 183.217 409.574 181.727 410.61 180.58L411.807 179.255C413.098 177.827 413.037 175.636 411.669 174.281L410.807 173.427C409.651 172.282 409 170.723 409 169.096L409 169C409 165.686 411.686 163 415 163C418.314 163 421 165.686 421 169L421 169.096C421 170.723 420.349 172.282 419.193 173.427L418.331 174.281C416.963 175.636 416.902 177.827 418.193 179.255L419.39 180.58C420.426 181.727 421 183.217 421 184.762L421 185C421 188.314 418.314 191 415 191Z" fill="#00EAC7"/>
<rect x="1308" y="135" width="6" height="6" transform="rotate(-90 1308 135)" fill="#1B2B38"/>
<rect x="1308" y="123" width="6" height="6" transform="rotate(-90 1308 123)" fill="#1B2B38"/>
<rect x="1308" y="111" width="6" height="6" transform="rotate(-90 1308 111)" fill="#1B2B38"/>
<rect x="1308" y="93" width="6" height="6" transform="rotate(-90 1308 93)" fill="#00EAC7"/>
<g filter="url(#filter23_f_1515_14932)">
<path d="M1375 175C1371.82 175 1368.77 176.264 1366.51 178.515C1364.26 180.765 1363 183.817 1363 187C1363 190.183 1364.26 193.235 1366.51 195.485C1368.77 197.736 1371.82 199 1375 199L1375 187L1375 175Z" fill="#1B2B38"/>
</g>
<defs>
<filter id="filter0_f_1515_14932" x="285" y="64" width="5" height="167" filterUnits="userSpaceOnUse" color-interpolation-filters="sRGB">
<feFlood flood-opacity="0" result="BackgroundImageFix"/>
<feBlend mode="normal" in="SourceGraphic" in2="BackgroundImageFix" result="shape"/>
<feGaussianBlur stdDeviation="1" result="effect1_foregroundBlur_1515_14932"/>
</filter>
<filter id="filter1_f_1515_14932" x="349" y="64" width="5" height="167" filterUnits="userSpaceOnUse" color-interpolation-filters="sRGB">
<feFlood flood-opacity="0" result="BackgroundImageFix"/>
<feBlend mode="normal" in="SourceGraphic" in2="BackgroundImageFix" result="shape"/>
<feGaussianBlur stdDeviation="1" result="effect1_foregroundBlur_1515_14932"/>
</filter>
<filter id="filter2_f_1515_14932" x="413" y="64" width="5" height="167" filterUnits="userSpaceOnUse" color-interpolation-filters="sRGB">
<feFlood flood-opacity="0" result="BackgroundImageFix"/>
<feBlend mode="normal" in="SourceGraphic" in2="BackgroundImageFix" result="shape"/>
<feGaussianBlur stdDeviation="1" result="effect1_foregroundBlur_1515_14932"/>
</filter>
<filter id="filter3_f_1515_14932" x="477" y="64" width="5" height="167" filterUnits="userSpaceOnUse" color-interpolation-filters="sRGB">
<feFlood flood-opacity="0" result="BackgroundImageFix"/>
<feBlend mode="normal" in="SourceGraphic" in2="BackgroundImageFix" result="shape"/>
<feGaussianBlur stdDeviation="1" result="effect1_foregroundBlur_1515_14932"/>
</filter>
<filter id="filter4_f_1515_14932" x="541" y="64" width="5" height="167" filterUnits="userSpaceOnUse" color-interpolation-filters="sRGB">
<feFlood flood-opacity="0" result="BackgroundImageFix"/>
<feBlend mode="normal" in="SourceGraphic" in2="BackgroundImageFix" result="shape"/>
<feGaussianBlur stdDeviation="1" result="effect1_foregroundBlur_1515_14932"/>
</filter>
<filter id="filter5_f_1515_14932" x="605" y="64" width="5" height="167" filterUnits="userSpaceOnUse" color-interpolation-filters="sRGB">
<feFlood flood-opacity="0" result="BackgroundImageFix"/>
<feBlend mode="normal" in="SourceGraphic" in2="BackgroundImageFix" result="shape"/>
<feGaussianBlur stdDeviation="1" result="effect1_foregroundBlur_1515_14932"/>
</filter>
<filter id="filter6_f_1515_14932" x="669" y="64" width="5" height="167" filterUnits="userSpaceOnUse" color-interpolation-filters="sRGB">
<feFlood flood-opacity="0" result="BackgroundImageFix"/>
<feBlend mode="normal" in="SourceGraphic" in2="BackgroundImageFix" result="shape"/>
<feGaussianBlur stdDeviation="1" result="effect1_foregroundBlur_1515_14932"/>
</filter>
<filter id="filter7_f_1515_14932" x="733" y="64" width="5" height="167" filterUnits="userSpaceOnUse" color-interpolation-filters="sRGB">
<feFlood flood-opacity="0" result="BackgroundImageFix"/>
<feBlend mode="normal" in="SourceGraphic" in2="BackgroundImageFix" result="shape"/>
<feGaussianBlur stdDeviation="1" result="effect1_foregroundBlur_1515_14932"/>
</filter>
<filter id="filter8_f_1515_14932" x="797" y="64" width="5" height="167" filterUnits="userSpaceOnUse" color-interpolation-filters="sRGB">
<feFlood flood-opacity="0" result="BackgroundImageFix"/>
<feBlend mode="normal" in="SourceGraphic" in2="BackgroundImageFix" result="shape"/>
<feGaussianBlur stdDeviation="1" result="effect1_foregroundBlur_1515_14932"/>
</filter>
<filter id="filter9_f_1515_14932" x="861" y="64" width="5" height="167" filterUnits="userSpaceOnUse" color-interpolation-filters="sRGB">
<feFlood flood-opacity="0" result="BackgroundImageFix"/>
<feBlend mode="normal" in="SourceGraphic" in2="BackgroundImageFix" result="shape"/>
<feGaussianBlur stdDeviation="1" result="effect1_foregroundBlur_1515_14932"/>
</filter>
<filter id="filter10_f_1515_14932" x="925" y="64" width="5" height="167" filterUnits="userSpaceOnUse" color-interpolation-filters="sRGB">
<feFlood flood-opacity="0" result="BackgroundImageFix"/>
<feBlend mode="normal" in="SourceGraphic" in2="BackgroundImageFix" result="shape"/>
<feGaussianBlur stdDeviation="1" result="effect1_foregroundBlur_1515_14932"/>
</filter>
<filter id="filter11_f_1515_14932" x="989" y="64" width="5" height="167" filterUnits="userSpaceOnUse" color-interpolation-filters="sRGB">
<feFlood flood-opacity="0" result="BackgroundImageFix"/>
<feBlend mode="normal" in="SourceGraphic" in2="BackgroundImageFix" result="shape"/>
<feGaussianBlur stdDeviation="1" result="effect1_foregroundBlur_1515_14932"/>
</filter>
<filter id="filter12_f_1515_14932" x="1053" y="64" width="5" height="167" filterUnits="userSpaceOnUse" color-interpolation-filters="sRGB">
<feFlood flood-opacity="0" result="BackgroundImageFix"/>
<feBlend mode="normal" in="SourceGraphic" in2="BackgroundImageFix" result="shape"/>
<feGaussianBlur stdDeviation="1" result="effect1_foregroundBlur_1515_14932"/>
</filter>
<filter id="filter13_f_1515_14932" x="1117" y="64" width="5" height="167" filterUnits="userSpaceOnUse" color-interpolation-filters="sRGB">
<feFlood flood-opacity="0" result="BackgroundImageFix"/>
<feBlend mode="normal" in="SourceGraphic" in2="BackgroundImageFix" result="shape"/>
<feGaussianBlur stdDeviation="1" result="effect1_foregroundBlur_1515_14932"/>
</filter>
<filter id="filter14_f_1515_14932" x="1181" y="64" width="5" height="167" filterUnits="userSpaceOnUse" color-interpolation-filters="sRGB">
<feFlood flood-opacity="0" result="BackgroundImageFix"/>
<feBlend mode="normal" in="SourceGraphic" in2="BackgroundImageFix" result="shape"/>
<feGaussianBlur stdDeviation="1" result="effect1_foregroundBlur_1515_14932"/>
</filter>
<filter id="filter15_f_1515_14932" x="1245" y="64" width="5" height="167" filterUnits="userSpaceOnUse" color-interpolation-filters="sRGB">
<feFlood flood-opacity="0" result="BackgroundImageFix"/>
<feBlend mode="normal" in="SourceGraphic" in2="BackgroundImageFix" result="shape"/>
<feGaussianBlur stdDeviation="1" result="effect1_foregroundBlur_1515_14932"/>
</filter>
<filter id="filter16_f_1515_14932" x="1309" y="64" width="5" height="167" filterUnits="userSpaceOnUse" color-interpolation-filters="sRGB">
<feFlood flood-opacity="0" result="BackgroundImageFix"/>
<feBlend mode="normal" in="SourceGraphic" in2="BackgroundImageFix" result="shape"/>
<feGaussianBlur stdDeviation="1" result="effect1_foregroundBlur_1515_14932"/>
</filter>
<filter id="filter17_f_1515_14932" x="1373" y="64" width="5" height="167" filterUnits="userSpaceOnUse" color-interpolation-filters="sRGB">
<feFlood flood-opacity="0" result="BackgroundImageFix"/>
<feBlend mode="normal" in="SourceGraphic" in2="BackgroundImageFix" result="shape"/>
<feGaussianBlur stdDeviation="1" result="effect1_foregroundBlur_1515_14932"/>
</filter>
<filter id="filter18_f_1515_14932" x="1437" y="64" width="5" height="167" filterUnits="userSpaceOnUse" color-interpolation-filters="sRGB">
<feFlood flood-opacity="0" result="BackgroundImageFix"/>
<feBlend mode="normal" in="SourceGraphic" in2="BackgroundImageFix" result="shape"/>
<feGaussianBlur stdDeviation="1" result="effect1_foregroundBlur_1515_14932"/>
</filter>
<filter id="filter19_f_1515_14932" x="1501" y="64" width="5" height="167" filterUnits="userSpaceOnUse" color-interpolation-filters="sRGB">
<feFlood flood-opacity="0" result="BackgroundImageFix"/>
<feBlend mode="normal" in="SourceGraphic" in2="BackgroundImageFix" result="shape"/>
<feGaussianBlur stdDeviation="1" result="effect1_foregroundBlur_1515_14932"/>
</filter>
<filter id="filter20_f_1515_14932" x="278" y="119" width="18" height="18" filterUnits="userSpaceOnUse" color-interpolation-filters="sRGB">
<feFlood flood-opacity="0" result="BackgroundImageFix"/>
<feBlend mode="normal" in="SourceGraphic" in2="BackgroundImageFix" result="shape"/>
<feGaussianBlur stdDeviation="2" result="effect1_foregroundBlur_1515_14932"/>
</filter>
<filter id="filter21_f_1515_14932" x="274" y="164" width="26" height="26" filterUnits="userSpaceOnUse" color-interpolation-filters="sRGB">
<feFlood flood-opacity="0" result="BackgroundImageFix"/>
<feBlend mode="normal" in="SourceGraphic" in2="BackgroundImageFix" result="shape"/>
<feGaussianBlur stdDeviation="2" result="effect1_foregroundBlur_1515_14932"/>
</filter>
<filter id="filter22_f_1515_14932" x="280" y="73" width="14" height="14" filterUnits="userSpaceOnUse" color-interpolation-filters="sRGB">
<feFlood flood-opacity="0" result="BackgroundImageFix"/>
<feBlend mode="normal" in="SourceGraphic" in2="BackgroundImageFix" result="shape"/>
<feGaussianBlur stdDeviation="2" result="effect1_foregroundBlur_1515_14932"/>
</filter>
<filter id="filter23_f_1515_14932" x="1359" y="171" width="20" height="32" filterUnits="userSpaceOnUse" color-interpolation-filters="sRGB">
<feFlood flood-opacity="0" result="BackgroundImageFix"/>
<feBlend mode="normal" in="SourceGraphic" in2="BackgroundImageFix" result="shape"/>
<feGaussianBlur stdDeviation="2" result="effect1_foregroundBlur_1515_14932"/>
</filter>
<linearGradient id="paint0_linear_1515_14932" x1="1408" y1="1" x2="1408" y2="229.127" gradientUnits="userSpaceOnUse">
<stop stop-color="#1B2B38" stop-opacity="0"/>
<stop offset="0.177533" stop-color="#1B2B38"/>
<stop offset="0.861362" stop-color="#1B2B38"/>
<stop offset="1" stop-color="#1B2B38" stop-opacity="0"/>
</linearGradient>
<linearGradient id="paint1_linear_1515_14932" x1="1472" y1="0.999054" x2="1472" y2="229.127" gradientUnits="userSpaceOnUse">
<stop stop-color="#1B2B38" stop-opacity="0"/>
<stop offset="0.177533" stop-color="#1B2B38"/>
<stop offset="0.861362" stop-color="#1B2B38"/>
<stop offset="1" stop-color="#1B2B38" stop-opacity="0"/>
</linearGradient>
<linearGradient id="paint2_linear_1515_14932" x1="1536" y1="1" x2="1536" y2="229.127" gradientUnits="userSpaceOnUse">
<stop stop-color="#1B2B38" stop-opacity="0"/>
<stop offset="0.177533" stop-color="#1B2B38"/>
<stop offset="0.861362" stop-color="#1B2B38"/>
<stop offset="1" stop-color="#1B2B38" stop-opacity="0"/>
</linearGradient>
<linearGradient id="paint3_linear_1515_14932" x1="1344" y1="1" x2="1344" y2="229.127" gradientUnits="userSpaceOnUse">
<stop stop-color="#1B2B38" stop-opacity="0"/>
<stop offset="0.177533" stop-color="#1B2B38"/>
<stop offset="0.861362" stop-color="#1B2B38"/>
<stop offset="1" stop-color="#1B2B38" stop-opacity="0"/>
</linearGradient>
<linearGradient id="paint4_linear_1515_14932" x1="1280" y1="1" x2="1280" y2="229.127" gradientUnits="userSpaceOnUse">
<stop stop-color="#1B2B38" stop-opacity="0"/>
<stop offset="0.177533" stop-color="#1B2B38"/>
<stop offset="0.861362" stop-color="#1B2B38"/>
<stop offset="1" stop-color="#1B2B38" stop-opacity="0"/>
</linearGradient>
<linearGradient id="paint5_linear_1515_14932" x1="1216" y1="1" x2="1216" y2="229.127" gradientUnits="userSpaceOnUse">
<stop stop-color="#1B2B38" stop-opacity="0"/>
<stop offset="0.177533" stop-color="#1B2B38"/>
<stop offset="0.861362" stop-color="#1B2B38"/>
<stop offset="1" stop-color="#1B2B38" stop-opacity="0"/>
</linearGradient>
<linearGradient id="paint6_linear_1515_14932" x1="1152" y1="1" x2="1152" y2="229.127" gradientUnits="userSpaceOnUse">
<stop stop-color="#1B2B38" stop-opacity="0"/>
<stop offset="0.177533" stop-color="#1B2B38"/>
<stop offset="0.861362" stop-color="#1B2B38"/>
<stop offset="1" stop-color="#1B2B38" stop-opacity="0"/>
</linearGradient>
<linearGradient id="paint7_linear_1515_14932" x1="1088" y1="1" x2="1088" y2="229.127" gradientUnits="userSpaceOnUse">
<stop stop-color="#1B2B38" stop-opacity="0"/>
<stop offset="0.177533" stop-color="#1B2B38"/>
<stop offset="0.861362" stop-color="#1B2B38"/>
<stop offset="1" stop-color="#1B2B38" stop-opacity="0"/>
</linearGradient>
<linearGradient id="paint8_linear_1515_14932" x1="1024" y1="1" x2="1024" y2="229.127" gradientUnits="userSpaceOnUse">
<stop stop-color="#1B2B38" stop-opacity="0"/>
<stop offset="0.177533" stop-color="#1B2B38"/>
<stop offset="0.861362" stop-color="#1B2B38"/>
<stop offset="1" stop-color="#1B2B38" stop-opacity="0"/>
</linearGradient>
<linearGradient id="paint9_linear_1515_14932" x1="960" y1="1" x2="960" y2="229.127" gradientUnits="userSpaceOnUse">
<stop stop-color="#1B2B38" stop-opacity="0"/>
<stop offset="0.177533" stop-color="#1B2B38"/>
<stop offset="0.861362" stop-color="#1B2B38"/>
<stop offset="1" stop-color="#1B2B38" stop-opacity="0"/>
</linearGradient>
<linearGradient id="paint10_linear_1515_14932" x1="896" y1="1" x2="896" y2="229.127" gradientUnits="userSpaceOnUse">
<stop stop-color="#1B2B38" stop-opacity="0"/>
<stop offset="0.177533" stop-color="#1B2B38"/>
<stop offset="0.861362" stop-color="#1B2B38"/>
<stop offset="1" stop-color="#1B2B38" stop-opacity="0"/>
</linearGradient>
<linearGradient id="paint11_linear_1515_14932" x1="384" y1="1" x2="384" y2="229.127" gradientUnits="userSpaceOnUse">
<stop stop-color="#1B2B38" stop-opacity="0"/>
<stop offset="0.177533" stop-color="#1B2B38"/>
<stop offset="0.861362" stop-color="#1B2B38"/>
<stop offset="1" stop-color="#1B2B38" stop-opacity="0"/>
</linearGradient>
<linearGradient id="paint12_linear_1515_14932" x1="320" y1="1" x2="320" y2="228.127" gradientUnits="userSpaceOnUse">
<stop stop-color="#1B2B38" stop-opacity="0"/>
<stop offset="0.177533" stop-color="#1B2B38"/>
<stop offset="0.861362" stop-color="#1B2B38"/>
<stop offset="1" stop-color="#1B2B38" stop-opacity="0"/>
</linearGradient>
<linearGradient id="paint13_linear_1515_14932" x1="256" y1="1" x2="256" y2="228" gradientUnits="userSpaceOnUse">
<stop stop-color="#1B2B38" stop-opacity="0"/>
<stop offset="0.177533" stop-color="#1B2B38"/>
<stop offset="0.861362" stop-color="#1B2B38"/>
<stop offset="1" stop-color="#1B2B38" stop-opacity="0"/>
</linearGradient>
<linearGradient id="paint14_linear_1515_14932" x1="448" y1="1" x2="448" y2="229.127" gradientUnits="userSpaceOnUse">
<stop stop-color="#1B2B38" stop-opacity="0"/>
<stop offset="0.177533" stop-color="#1B2B38"/>
<stop offset="0.861362" stop-color="#1B2B38"/>
<stop offset="1" stop-color="#1B2B38" stop-opacity="0"/>
</linearGradient>
<linearGradient id="paint15_linear_1515_14932" x1="512" y1="1" x2="512" y2="229.127" gradientUnits="userSpaceOnUse">
<stop stop-color="#1B2B38" stop-opacity="0"/>
<stop offset="0.177533" stop-color="#1B2B38"/>
<stop offset="0.861362" stop-color="#1B2B38"/>
<stop offset="1" stop-color="#1B2B38" stop-opacity="0"/>
</linearGradient>
<linearGradient id="paint16_linear_1515_14932" x1="576" y1="1" x2="576" y2="229.127" gradientUnits="userSpaceOnUse">
<stop stop-color="#1B2B38" stop-opacity="0"/>
<stop offset="0.177533" stop-color="#1B2B38"/>
<stop offset="0.861362" stop-color="#1B2B38"/>
<stop offset="1" stop-color="#1B2B38" stop-opacity="0"/>
</linearGradient>
<linearGradient id="paint17_linear_1515_14932" x1="640" y1="1" x2="640" y2="229.127" gradientUnits="userSpaceOnUse">
<stop stop-color="#1B2B38" stop-opacity="0"/>
<stop offset="0.177533" stop-color="#1B2B38"/>
<stop offset="0.861362" stop-color="#1B2B38"/>
<stop offset="1" stop-color="#1B2B38" stop-opacity="0"/>
</linearGradient>
<linearGradient id="paint18_linear_1515_14932" x1="704" y1="1" x2="704" y2="229.127" gradientUnits="userSpaceOnUse">
<stop stop-color="#1B2B38" stop-opacity="0"/>
<stop offset="0.177533" stop-color="#1B2B38"/>
<stop offset="0.861362" stop-color="#1B2B38"/>
<stop offset="1" stop-color="#1B2B38" stop-opacity="0"/>
</linearGradient>
<linearGradient id="paint19_linear_1515_14932" x1="768" y1="1.05176" x2="768" y2="229.127" gradientUnits="userSpaceOnUse">
<stop stop-color="#1B2B38" stop-opacity="0"/>
<stop offset="0.177533" stop-color="#1B2B38"/>
<stop offset="0.861362" stop-color="#1B2B38"/>
<stop offset="1" stop-color="#1B2B38" stop-opacity="0"/>
</linearGradient>
<linearGradient id="paint20_linear_1515_14932" x1="832" y1="1" x2="832" y2="229.127" gradientUnits="userSpaceOnUse">
<stop stop-color="#1B2B38" stop-opacity="0"/>
<stop offset="0.177533" stop-color="#1B2B38"/>
<stop offset="0.861362" stop-color="#1B2B38"/>
<stop offset="1" stop-color="#1B2B38" stop-opacity="0"/>
</linearGradient>
<linearGradient id="paint21_linear_1515_14932" x1="287" y1="66" x2="287" y2="229" gradientUnits="userSpaceOnUse">
<stop stop-color="#1B2B38" stop-opacity="0"/>
<stop offset="0.248574" stop-color="#1B2B38" stop-opacity="0.3"/>
<stop offset="0.769419" stop-color="#1B2B38" stop-opacity="0.3"/>
<stop offset="1" stop-color="#1B2B38" stop-opacity="0"/>
</linearGradient>
<linearGradient id="paint22_linear_1515_14932" x1="351" y1="66" x2="351" y2="229" gradientUnits="userSpaceOnUse">
<stop stop-color="#1B2B38" stop-opacity="0"/>
<stop offset="0.248574" stop-color="#1B2B38" stop-opacity="0.3"/>
<stop offset="0.769419" stop-color="#1B2B38" stop-opacity="0.3"/>
<stop offset="1" stop-color="#1B2B38" stop-opacity="0"/>
</linearGradient>
<linearGradient id="paint23_linear_1515_14932" x1="415" y1="66" x2="415" y2="229" gradientUnits="userSpaceOnUse">
<stop stop-color="#1B2B38" stop-opacity="0"/>
<stop offset="0.248574" stop-color="#1B2B38" stop-opacity="0.3"/>
<stop offset="0.769419" stop-color="#1B2B38" stop-opacity="0.3"/>
<stop offset="1" stop-color="#1B2B38" stop-opacity="0"/>
</linearGradient>
<linearGradient id="paint24_linear_1515_14932" x1="479" y1="66" x2="479" y2="229" gradientUnits="userSpaceOnUse">
<stop stop-color="#1B2B38" stop-opacity="0"/>
<stop offset="0.248574" stop-color="#1B2B38" stop-opacity="0.3"/>
<stop offset="0.769419" stop-color="#1B2B38" stop-opacity="0.3"/>
<stop offset="1" stop-color="#1B2B38" stop-opacity="0"/>
</linearGradient>
<linearGradient id="paint25_linear_1515_14932" x1="543" y1="66" x2="543" y2="229" gradientUnits="userSpaceOnUse">
<stop stop-color="#1B2B38" stop-opacity="0"/>
<stop offset="0.248574" stop-color="#1B2B38" stop-opacity="0.3"/>
<stop offset="0.769419" stop-color="#1B2B38" stop-opacity="0.3"/>
<stop offset="1" stop-color="#1B2B38" stop-opacity="0"/>
</linearGradient>
<linearGradient id="paint26_linear_1515_14932" x1="607" y1="66" x2="607" y2="229" gradientUnits="userSpaceOnUse">
<stop stop-color="#1B2B38" stop-opacity="0"/>
<stop offset="0.248574" stop-color="#1B2B38" stop-opacity="0.3"/>
<stop offset="0.769419" stop-color="#1B2B38" stop-opacity="0.3"/>
<stop offset="1" stop-color="#1B2B38" stop-opacity="0"/>
</linearGradient>
<linearGradient id="paint27_linear_1515_14932" x1="671" y1="66" x2="671" y2="229" gradientUnits="userSpaceOnUse">
<stop stop-color="#1B2B38" stop-opacity="0"/>
<stop offset="0.248574" stop-color="#1B2B38" stop-opacity="0.3"/>
<stop offset="0.769419" stop-color="#1B2B38" stop-opacity="0.3"/>
<stop offset="1" stop-color="#1B2B38" stop-opacity="0"/>
</linearGradient>
<linearGradient id="paint28_linear_1515_14932" x1="735" y1="66" x2="735" y2="229" gradientUnits="userSpaceOnUse">
<stop stop-color="#1B2B38" stop-opacity="0"/>
<stop offset="0.248574" stop-color="#1B2B38" stop-opacity="0.3"/>
<stop offset="0.769419" stop-color="#1B2B38" stop-opacity="0.3"/>
<stop offset="1" stop-color="#1B2B38" stop-opacity="0"/>
</linearGradient>
<linearGradient id="paint29_linear_1515_14932" x1="799" y1="66" x2="799" y2="229" gradientUnits="userSpaceOnUse">
<stop stop-color="#1B2B38" stop-opacity="0"/>
<stop offset="0.248574" stop-color="#1B2B38" stop-opacity="0.3"/>
<stop offset="0.769419" stop-color="#1B2B38" stop-opacity="0.3"/>
<stop offset="1" stop-color="#1B2B38" stop-opacity="0"/>
</linearGradient>
<linearGradient id="paint30_linear_1515_14932" x1="863" y1="66" x2="863" y2="229" gradientUnits="userSpaceOnUse">
<stop stop-color="#1B2B38" stop-opacity="0"/>
<stop offset="0.248574" stop-color="#1B2B38" stop-opacity="0.3"/>
<stop offset="0.769419" stop-color="#1B2B38" stop-opacity="0.3"/>
<stop offset="1" stop-color="#1B2B38" stop-opacity="0"/>
</linearGradient>
<linearGradient id="paint31_linear_1515_14932" x1="927" y1="66" x2="927" y2="229" gradientUnits="userSpaceOnUse">
<stop stop-color="#1B2B38" stop-opacity="0"/>
<stop offset="0.248574" stop-color="#1B2B38" stop-opacity="0.3"/>
<stop offset="0.769419" stop-color="#1B2B38" stop-opacity="0.3"/>
<stop offset="1" stop-color="#1B2B38" stop-opacity="0"/>
</linearGradient>
<linearGradient id="paint32_linear_1515_14932" x1="991" y1="66" x2="991" y2="229" gradientUnits="userSpaceOnUse">
<stop stop-color="#1B2B38" stop-opacity="0"/>
<stop offset="0.248574" stop-color="#1B2B38" stop-opacity="0.3"/>
<stop offset="0.769419" stop-color="#1B2B38" stop-opacity="0.3"/>
<stop offset="1" stop-color="#1B2B38" stop-opacity="0"/>
</linearGradient>
<linearGradient id="paint33_linear_1515_14932" x1="1055" y1="66" x2="1055" y2="229" gradientUnits="userSpaceOnUse">
<stop stop-color="#1B2B38" stop-opacity="0"/>
<stop offset="0.248574" stop-color="#1B2B38" stop-opacity="0.3"/>
<stop offset="0.769419" stop-color="#1B2B38" stop-opacity="0.3"/>
<stop offset="1" stop-color="#1B2B38" stop-opacity="0"/>
</linearGradient>
<linearGradient id="paint34_linear_1515_14932" x1="1119" y1="66" x2="1119" y2="229" gradientUnits="userSpaceOnUse">
<stop stop-color="#1B2B38" stop-opacity="0"/>
<stop offset="0.248574" stop-color="#1B2B38" stop-opacity="0.3"/>
<stop offset="0.769419" stop-color="#1B2B38" stop-opacity="0.3"/>
<stop offset="1" stop-color="#1B2B38" stop-opacity="0"/>
</linearGradient>
<linearGradient id="paint35_linear_1515_14932" x1="1183" y1="66" x2="1183" y2="229" gradientUnits="userSpaceOnUse">
<stop stop-color="#1B2B38" stop-opacity="0"/>
<stop offset="0.248574" stop-color="#1B2B38" stop-opacity="0.3"/>
<stop offset="0.769419" stop-color="#1B2B38" stop-opacity="0.3"/>
<stop offset="1" stop-color="#1B2B38" stop-opacity="0"/>
</linearGradient>
<linearGradient id="paint36_linear_1515_14932" x1="1247" y1="66" x2="1247" y2="229" gradientUnits="userSpaceOnUse">
<stop stop-color="#1B2B38" stop-opacity="0"/>
<stop offset="0.248574" stop-color="#1B2B38" stop-opacity="0.3"/>
<stop offset="0.769419" stop-color="#1B2B38" stop-opacity="0.3"/>
<stop offset="1" stop-color="#1B2B38" stop-opacity="0"/>
</linearGradient>
<linearGradient id="paint37_linear_1515_14932" x1="1311" y1="66" x2="1311" y2="229" gradientUnits="userSpaceOnUse">
<stop stop-color="#1B2B38" stop-opacity="0"/>
<stop offset="0.248574" stop-color="#1B2B38" stop-opacity="0.3"/>
<stop offset="0.769419" stop-color="#1B2B38" stop-opacity="0.3"/>
<stop offset="1" stop-color="#1B2B38" stop-opacity="0"/>
</linearGradient>
<linearGradient id="paint38_linear_1515_14932" x1="1375" y1="66" x2="1375" y2="229" gradientUnits="userSpaceOnUse">
<stop stop-color="#1B2B38" stop-opacity="0"/>
<stop offset="0.248574" stop-color="#1B2B38" stop-opacity="0.3"/>
<stop offset="0.769419" stop-color="#1B2B38" stop-opacity="0.3"/>
<stop offset="1" stop-color="#1B2B38" stop-opacity="0"/>
</linearGradient>
<linearGradient id="paint39_linear_1515_14932" x1="1439" y1="66" x2="1439" y2="229" gradientUnits="userSpaceOnUse">
<stop stop-color="#1B2B38" stop-opacity="0"/>
<stop offset="0.248574" stop-color="#1B2B38" stop-opacity="0.3"/>
<stop offset="0.769419" stop-color="#1B2B38" stop-opacity="0.3"/>
<stop offset="1" stop-color="#1B2B38" stop-opacity="0"/>
</linearGradient>
<linearGradient id="paint40_linear_1515_14932" x1="1503" y1="66" x2="1503" y2="229" gradientUnits="userSpaceOnUse">
<stop stop-color="#1B2B38" stop-opacity="0"/>
<stop offset="0.248574" stop-color="#1B2B38" stop-opacity="0.3"/>
<stop offset="0.769419" stop-color="#1B2B38" stop-opacity="0.3"/>
<stop offset="1" stop-color="#1B2B38" stop-opacity="0"/>
</linearGradient>
</defs>
</svg>
